<svg width="40" height="37" viewBox="0 0 40 37" fill="none" xmlns="http://www.w3.org/2000/svg">
<path d="M1.0045 29.6163C-0.802349 32.9478 1.60972 37 5.39971 37H34.157C37.947 37 40.3591 32.9479 38.5523 29.6163L24.1736 3.10414C22.2817 -0.384242 17.2751 -0.38425 15.3832 3.10413L1.0045 29.6163ZM21.8491 28.2977C21.8491 29.4413 20.922 30.3684 19.7784 30.3684C18.6347 30.3684 17.7076 29.4413 17.7076 28.2977V28.0181C17.7076 26.8745 18.6347 25.9474 19.7784 25.9474C20.922 25.9474 21.8491 26.8745 21.8491 28.0181V28.2977ZM21.8491 19.4556C21.8491 20.5992 20.922 21.5263 19.7784 21.5263C18.6347 21.5263 17.7076 20.5992 17.7076 19.4556V14.755C17.7076 13.6113 18.6347 12.6842 19.7784 12.6842C20.922 12.6842 21.8491 13.6113 21.8491 14.755V19.4556Z" fill="#FF2819"/>
</svg>
