<svg width="300" height="304" viewBox="0 0 300 304" fill="none" xmlns="http://www.w3.org/2000/svg">
<path d="M62.3399 195.279L56.6066 196.316L55.4804 190.105L48.6687 191.341L49.7948 197.552L44.0684 198.589L45.3447 205.64L51.0712 204.602L52.1974 210.813L59.0091 209.585L57.8829 203.367L63.6162 202.33L62.3399 195.279Z" stroke="#4DB1C8" stroke-linecap="round" stroke-linejoin="round"/>
<path d="M119.577 100.133L114.083 98.1951L116.185 92.2434L109.66 89.9364L107.558 95.8881L102.063 93.9497L99.6812 100.707L105.169 102.645L103.067 108.604L109.592 110.904L111.701 104.952L117.188 106.891L119.577 100.133Z" stroke="#4DB1C8" stroke-linecap="round" stroke-linejoin="round"/>
<path d="M258.16 171.267L253.013 173.99L250.058 168.407L243.936 171.643L246.891 177.226L241.745 179.949L245.096 186.283L250.242 183.56L253.198 189.136L259.32 185.901L256.365 180.318L261.511 177.594L258.16 171.267Z" stroke="#4DB1C8" stroke-linecap="round" stroke-linejoin="round"/>
<path d="M38.3959 180.482C40.7028 180.482 42.573 178.611 42.573 176.304C42.573 173.997 40.7028 172.127 38.3959 172.127C36.0889 172.127 34.2188 173.997 34.2188 176.304C34.2188 178.611 36.0889 180.482 38.3959 180.482Z" stroke="#4DB1C8" stroke-linecap="round" stroke-linejoin="round"/>
<path d="M103.461 120.459C103.461 120.678 103.397 120.892 103.275 121.073C103.154 121.255 102.981 121.397 102.779 121.481C102.577 121.564 102.354 121.586 102.14 121.544C101.926 121.501 101.728 121.396 101.574 121.241C101.419 121.086 101.314 120.889 101.271 120.675C101.229 120.46 101.25 120.238 101.334 120.036C101.418 119.834 101.56 119.661 101.741 119.54C101.923 119.418 102.137 119.353 102.356 119.353C102.649 119.353 102.93 119.47 103.138 119.677C103.345 119.885 103.461 120.166 103.461 120.459V120.459Z" stroke="#4DB1C8" stroke-linecap="round" stroke-linejoin="round"/>
<path d="M52.8653 101.491C52.8653 102.264 52.6364 103.018 52.2074 103.66C51.7784 104.302 51.1687 104.803 50.4553 105.098C49.7419 105.394 48.9569 105.471 48.1996 105.32C47.4423 105.17 46.7466 104.798 46.2006 104.252C45.6546 103.706 45.2828 103.01 45.1321 102.253C44.9815 101.496 45.0588 100.711 45.3543 99.9974C45.6498 99.284 46.1502 98.6742 46.7922 98.2452C47.4343 97.8162 48.1891 97.5873 48.9612 97.5873C49.9961 97.5891 50.9881 98.001 51.7199 98.7328C52.4516 99.4645 52.8635 100.457 52.8653 101.491V101.491Z" stroke="#4DB1C8" stroke-linecap="round" stroke-linejoin="round"/>
<path d="M224.885 154.374C224.885 154.812 224.755 155.239 224.512 155.603C224.269 155.967 223.924 156.25 223.52 156.417C223.116 156.585 222.671 156.629 222.242 156.543C221.813 156.458 221.419 156.247 221.11 155.938C220.8 155.629 220.59 155.235 220.504 154.806C220.419 154.377 220.463 153.932 220.63 153.528C220.798 153.124 221.081 152.779 221.445 152.536C221.808 152.293 222.236 152.163 222.673 152.163C223.26 152.163 223.822 152.396 224.237 152.811C224.652 153.225 224.885 153.788 224.885 154.374V154.374Z" stroke="#4DB1C8" stroke-linecap="round" stroke-linejoin="round"/>
<path d="M202.532 86.974C205.265 86.974 207.481 84.7586 207.481 82.0257C207.481 79.2927 205.265 77.0773 202.532 77.0773C199.799 77.0773 197.584 79.2927 197.584 82.0257C197.584 84.7586 199.799 86.974 202.532 86.974Z" stroke="#4DB1C8" stroke-linecap="round" stroke-linejoin="round"/>
<path d="M172.063 126.507C172.323 126.896 180.151 128.459 184.213 134.363C186.575 137.755 188.557 141.396 190.123 145.222C190.123 145.222 196.914 149.263 200.395 152.594C203.876 155.924 208.026 160.347 211.227 162.668C214.428 164.988 221.015 169.391 222.673 174.544C222.673 174.544 212.797 201.593 210.006 207.572C207.214 213.551 200.327 226.239 200.327 226.239L188.042 278.433H116.778L114.348 260.53C114.348 260.53 92.5069 256.243 83.3814 248.244C83.3814 248.244 82.5214 228.451 86.3368 210.793C90.1521 193.136 103.127 156.423 111.918 145.208C111.918 145.208 125.958 138.492 138.346 136.335C138.346 136.335 146.386 129.981 151.649 129.305C156.911 128.63 172.063 126.507 172.063 126.507Z" fill="white"/>
<path d="M115.311 268.597C121.638 269.805 127.153 270.85 133.596 270.774C140.039 270.699 146.619 269.252 151.888 265.56C152.906 264.713 154.06 264.043 155.301 263.581C158.099 262.796 160.87 264.645 163.648 265.505C167.17 266.597 171.033 266.079 174.487 264.768C177.941 263.458 181.046 261.417 184.124 259.383C183.669 265.662 183.521 271.953 183.681 278.255L188.069 278.433L199.311 228.969C199.311 228.969 180.084 251.302 170.713 257.97L152.734 253.342C152.734 253.342 151.042 254.749 147.479 255.458C147.479 255.458 145.848 261.731 136.674 261.745C127.501 261.758 114.349 260.53 114.349 260.53L115.311 268.597Z" fill="#4DB1C8"/>
<path opacity="0.5" d="M115.311 268.597C121.638 269.805 127.153 270.85 133.596 270.774C140.039 270.699 146.619 269.252 151.888 265.56C152.906 264.713 154.06 264.043 155.301 263.581C158.099 262.796 160.87 264.645 163.648 265.505C167.17 266.597 171.033 266.079 174.487 264.768C177.941 263.458 181.046 261.417 184.124 259.383C183.669 265.662 183.521 271.953 183.681 278.255L188.069 278.433L199.311 228.969C199.311 228.969 180.084 251.302 170.713 257.97L152.734 253.342C152.734 253.342 151.042 254.749 147.479 255.458C147.479 255.458 145.848 261.731 136.674 261.745C127.501 261.758 114.349 260.53 114.349 260.53L115.311 268.597Z" fill="white"/>
<path d="M96.8897 176.304C96.8897 176.304 88.5422 216.827 88.9654 230.743C88.9654 230.743 100.309 227.563 108.227 230.743C108.227 230.743 94.7533 229.242 88.9518 235.419C83.1502 241.596 101.005 257.826 136.729 254.53C136.729 254.53 143.855 256.762 147.472 255.451C147.472 255.451 146.503 261.908 136.668 261.737C126.873 261.348 98.2206 261.109 83.3754 248.25C83.3823 248.257 81.5121 211.004 96.8897 176.304Z" fill="#4DB1C8"/>
<path opacity="0.6" d="M96.8897 176.304C96.8897 176.304 88.5422 216.827 88.9654 230.743C88.9654 230.743 100.309 227.563 108.227 230.743C108.227 230.743 94.7533 229.242 88.9518 235.419C83.1502 241.596 101.005 257.826 136.729 254.53C136.729 254.53 143.855 256.762 147.472 255.451C147.472 255.451 146.503 261.908 136.668 261.737C126.873 261.348 98.2206 261.109 83.3754 248.25C83.3823 248.257 81.5121 211.004 96.8897 176.304Z" fill="white"/>
<path d="M113.959 184.072C113.959 184.072 116.423 202.016 120.402 205.769C124.381 209.523 142.926 208.295 150.27 212.342C150.27 212.342 157.184 200.364 169.688 192.87L152.734 219.564L138.08 216.103L120.191 213.373L118.689 216.827H116C116 216.827 115.699 197.675 113.959 184.072Z" fill="#4DB1C8"/>
<path opacity="0.5" d="M113.959 184.072C113.959 184.072 116.423 202.016 120.402 205.769C124.381 209.523 142.926 208.295 150.27 212.342C150.27 212.342 157.184 200.364 169.688 192.87L152.734 219.564L138.08 216.103L120.191 213.373L118.689 216.827H116C116 216.827 115.699 197.675 113.959 184.072Z" fill="white"/>
<path d="M184.049 147.522C191.714 152.034 192.574 157.119 194.151 160.75C190.165 161.542 186.042 162.388 182.753 164.77C178.657 167.746 176.439 172.674 174.719 177.458C173.092 181.986 171.725 186.603 170.624 191.287C174.329 184.594 179.595 178.895 185.974 174.674C189.653 172.244 194.199 170.285 198.396 171.657C194.874 173.152 190.888 175.172 190.144 178.926C189.998 179.549 190.024 180.2 190.219 180.81C190.847 182.577 193.045 183.055 194.711 183.915C197.959 185.587 199.652 189.375 199.795 193.047C199.939 196.719 198.813 200.269 197.7 203.743C196.722 206.787 195.743 209.831 194.765 212.875C193.516 216.766 192.247 220.711 189.987 224.123C187.728 227.536 184.336 230.396 180.302 231.065C178.616 231.39 176.87 231.192 175.299 230.498C174.108 229.851 173.001 229.06 172.003 228.143C167.163 224.235 161.348 221.724 155.185 220.881C163.116 226.123 166.87 235.645 170.16 244.565C168.649 241.921 166.472 239.718 163.846 238.177C163.173 237.708 162.373 237.456 161.553 237.453C159.396 237.624 158.714 240.375 157.417 242.095C155.861 244.142 153.014 244.872 150.462 244.545C147.909 244.217 145.561 243.023 143.268 241.815L114.253 226.853L112.206 232.996C112.206 232.996 135.316 251.425 170.726 257.943C170.726 257.943 193.728 239.767 201.877 223.652C210.027 207.538 222.688 174.51 222.688 174.51C222.688 174.51 218.053 165.732 210.109 161.153C210.109 161.153 204.177 158.347 202.928 154.88C201.679 151.413 190.533 145.427 190.533 145.427C190.533 145.427 191.98 149.126 184.049 147.522Z" fill="#4DB1C8"/>
<path opacity="0.6" d="M184.049 147.522C191.714 152.034 192.574 157.119 194.151 160.75C190.165 161.542 186.042 162.388 182.753 164.77C178.657 167.746 176.439 172.674 174.719 177.458C173.092 181.986 171.725 186.603 170.624 191.287C174.329 184.594 179.595 178.895 185.974 174.674C189.653 172.244 194.199 170.285 198.396 171.657C194.874 173.152 190.888 175.172 190.144 178.926C189.998 179.549 190.024 180.2 190.219 180.81C190.847 182.577 193.045 183.055 194.711 183.915C197.959 185.587 199.652 189.375 199.795 193.047C199.939 196.719 198.813 200.269 197.7 203.743C196.722 206.787 195.743 209.831 194.765 212.875C193.516 216.766 192.247 220.711 189.987 224.123C187.728 227.536 184.336 230.396 180.302 231.065C178.616 231.39 176.87 231.192 175.299 230.498C174.108 229.851 173.001 229.06 172.003 228.143C167.163 224.235 161.348 221.724 155.185 220.881C163.116 226.123 166.87 235.645 170.16 244.565C168.649 241.921 166.472 239.718 163.846 238.177C163.173 237.708 162.373 237.456 161.553 237.453C159.396 237.624 158.714 240.375 157.417 242.095C155.861 244.142 153.014 244.872 150.462 244.545C147.909 244.217 145.561 243.023 143.268 241.815L114.253 226.853L112.206 232.996C112.206 232.996 135.316 251.425 170.726 257.943C170.726 257.943 193.728 239.767 201.877 223.652C210.027 207.538 222.688 174.51 222.688 174.51C222.688 174.51 218.053 165.732 210.109 161.153C210.109 161.153 204.177 158.347 202.928 154.88C201.679 151.413 190.533 145.427 190.533 145.427C190.533 145.427 191.98 149.126 184.049 147.522Z" fill="white"/>
<path d="M181.612 84.6947C181.612 84.6947 183.161 66.628 175.374 64.9012C167.586 63.1744 163.211 56.0282 163.211 56.0282L135.582 63.7409L131.295 80.3538L134.026 88.7627C134.026 88.7627 134.599 96.564 134.708 100.42C134.817 104.277 134.708 107.246 137.629 111.928C140.551 116.61 143.267 121.258 149.581 125.306V135.946C149.581 135.946 145.676 147.338 147.833 154.327C147.833 154.327 149.123 155.692 152.686 153.645C156.249 151.597 171.49 141.414 176.807 130.78L178.459 103.744C178.459 103.744 182.847 104.427 184.738 100.427C187.516 96.5163 187.407 91.9569 186.328 88.2439C185.25 84.5309 180.609 86.9334 180.609 86.9334L181.612 84.6947Z" fill="#FFDEDE"/>
<path d="M149.881 111.184C150.663 110.333 151.625 109.669 152.698 109.241C153.771 108.814 154.927 108.633 156.079 108.713C156.079 108.713 159.403 103.464 162.904 104.427C162.904 104.427 163.983 109.989 159.785 112.18C154.325 115.026 149.881 111.184 149.881 111.184Z" fill="white"/>
<path d="M139.616 61.4408C139.616 61.4408 133.002 70.1295 133.384 79.1867C133.766 88.244 135.084 94.6667 134.701 101.656C134.319 108.645 141.691 120.351 149.246 125.067C154.891 128.596 161.969 127.995 167.463 124.384C173.606 120.289 176.985 112.931 178.22 105.867C178.343 105.185 178.438 104.502 178.507 103.765" stroke="#0F2328" stroke-linecap="round" stroke-linejoin="round"/>
<path d="M149.246 125.074C149.246 125.074 150.318 134.861 149.246 138.212C148.066 141.891 146.639 150.457 147.881 154.327C149.124 158.197 172.364 141.932 176.855 130.773C176.855 130.773 177.476 109.089 179.025 103.669" stroke="#0F2328" stroke-linecap="round" stroke-linejoin="round"/>
<path d="M148.605 110.945C148.605 110.945 159.178 113.934 163.505 103.02" stroke="#0F2328" stroke-linecap="round" stroke-linejoin="round"/>
<path d="M149.458 127.428C149.458 127.428 151.71 134.411 156.57 134.827C161.43 135.244 173.586 125.504 177.729 114.03V108.29C177.729 108.29 174.316 123.306 164.324 126.036C154.331 128.766 149.656 125.292 149.656 125.292L149.458 127.428Z" fill="#0F2328"/>
<path d="M162.897 104.426C158.201 104.099 156.071 108.713 156.071 108.713C154.914 108.572 153.74 108.724 152.657 109.156C151.574 109.587 150.617 110.285 149.874 111.184C151.031 112.221 152.453 112.918 153.982 113.195C155.512 113.472 157.088 113.319 158.535 112.753C163.873 110.897 162.897 104.426 162.897 104.426Z" fill="white" stroke="#0F2328" stroke-linecap="round" stroke-linejoin="round"/>
<path d="M151.123 83.8412C151.181 86.0066 151.086 88.1734 150.837 90.3253C150.584 92.2569 149.69 94.1065 148.946 95.9221C148.263 97.5738 147.124 100.113 148.072 101.853C149.151 103.826 152.734 101.853 152.734 101.853" stroke="#0F2328" stroke-linecap="round" stroke-linejoin="round"/>
<path d="M154.939 101.444C156.148 101.608 157.861 101.444 158.202 99.3488" stroke="#0F2328" stroke-linecap="round" stroke-linejoin="round"/>
<path d="M158.843 81.2342C160.011 80.1202 161.563 79.4987 163.177 79.4987C164.791 79.4987 166.344 80.1202 167.511 81.2342" stroke="#0F2328" stroke-width="2" stroke-linecap="round" stroke-linejoin="round"/>
<path d="M145.07 82.9403C145.07 82.9403 141.869 78.8451 137.678 82.9403" stroke="#0F2328" stroke-width="2" stroke-linecap="round" stroke-linejoin="round"/>
<path d="M175.995 93.2944C175.995 93.2944 179.647 84.5238 184.411 86.4076C187.694 87.7113 187.892 93.3763 186.151 97.3282C184.411 101.28 183.537 105.307 177.736 103.055" stroke="#0F2328" stroke-linecap="round" stroke-linejoin="round"/>
<path d="M176.644 91.9499C176.644 91.9499 173.136 90.7077 172.487 85.0085C171.839 79.3093 175.333 73.6033 174.037 69.5081C172.74 65.4129 162.522 67.4605 160.195 60.3212C160.195 60.3212 152.523 66.0408 137.671 64.8123C137.671 64.8123 134.538 70.1497 133.992 73.4122C133.261 78.5134 133.279 83.694 134.047 88.7898C134.047 88.9672 134.108 89.1379 134.142 89.3153C135.207 94.8712 129.904 81.7528 130.047 76.1492C130.19 70.5456 126.812 63.4267 131.214 58.1234C135.617 52.8201 151.759 49.7146 154.939 47.2233C158.12 44.7321 164.304 51.3663 171.45 53.8098C178.596 56.2533 184.52 59.1677 183.619 69.3034C182.718 79.439 183.667 80.7973 183.708 86.1347C183.708 86.1484 180.405 84.9061 176.644 91.9499Z" fill="#0F2328"/>
<path d="M163.19 88.6191C163.19 89.9841 162.665 91.1171 162.009 91.1171C161.354 91.1171 160.835 89.9978 160.835 88.6191C160.835 87.2403 161.361 86.1278 162.009 86.1278C162.658 86.1278 163.19 87.254 163.19 88.6191Z" fill="#0F2328"/>
<path d="M145.069 88.6191C145.069 89.9841 144.544 91.1171 143.895 91.1171C143.247 91.1171 142.721 89.9978 142.721 88.6191C142.721 87.2403 143.247 86.1278 143.895 86.1278C144.544 86.1278 145.069 87.254 145.069 88.6191Z" fill="#0F2328"/>
<path d="M158.843 91.9498C158.843 91.9498 161.28 94.5366 164.365 94.9052" stroke="#0F2328" stroke-linecap="round" stroke-linejoin="round"/>
<path d="M142.244 94.9052C142.244 94.9052 146.701 94.5912 147.704 91.9498" stroke="#0F2328" stroke-linecap="round" stroke-linejoin="round"/>
<path d="M152.604 155.986C155.922 153.877 160.31 154.668 163.941 156.163C165.934 156.989 167.832 158.027 169.818 158.893C170.8 159.328 171.813 159.688 172.849 159.972C175.34 160.62 174.446 157.528 174.302 156.143C174.098 154.157 173.954 152.164 173.715 150.191C173.617 149.783 173.666 149.353 173.852 148.976C174.097 148.672 174.439 148.463 174.821 148.382C179.196 147.017 183.912 147.618 188.472 147.7C188.886 147.749 189.305 147.67 189.673 147.474C190.356 147.031 190.281 146.028 190.096 145.236C188.52 138.492 182.957 131.783 176.91 128.411" stroke="#0F2328" stroke-linecap="round" stroke-linejoin="round"/>
<path d="M149.629 129.503C146.619 130.759 143.527 132.063 140.933 133.988C139.992 134.674 139.125 135.456 138.346 136.322C137.719 136.919 137.325 137.72 137.234 138.581C137.251 138.982 137.357 139.373 137.545 139.728C137.732 140.082 137.997 140.39 138.319 140.629C138.777 141.006 139.282 141.322 139.821 141.571C141.077 142.164 142.551 142.745 143.083 144.007C143.213 144.272 143.26 144.569 143.22 144.86C143.152 145.116 143.02 145.351 142.838 145.543C141.8 146.806 139.971 147.782 140.107 149.413C140.196 150.676 141.472 151.46 142.605 152.02C143.738 152.58 145.063 153.16 145.452 154.368" stroke="#0F2328" stroke-linecap="round" stroke-linejoin="round"/>
<path d="M131.808 65.5019C132.252 62.7717 135.105 61.0108 137.849 60.5672C140.592 60.1235 143.411 60.5672 146.175 60.3283C148.487 60.0998 150.723 59.3778 152.732 58.2109C154.741 57.044 156.476 55.4594 157.82 53.5643" stroke="white" stroke-linecap="round" stroke-linejoin="round"/>
<path d="M134.914 57.83C139.869 54.9019 146.831 57.946 151.663 54.82C153.03 53.8244 154.221 52.6062 155.185 51.2162" stroke="white" stroke-linecap="round" stroke-linejoin="round"/>
<path d="M198.124 169.841C180.378 173.383 173.757 186.44 173.757 186.44L152.735 219.55" stroke="#0F2328" stroke-linecap="round" stroke-linejoin="round"/>
<path d="M183.122 166.265C184.594 164.901 186.262 163.764 188.07 162.893" stroke="#0F2328" stroke-linecap="round" stroke-linejoin="round"/>
<path d="M170.713 191.259C170.713 191.259 172.952 179.301 179.381 170.49" stroke="#0F2328" stroke-linecap="round" stroke-linejoin="round"/>
<path d="M116 216.772C116 216.772 115.079 180.14 111.905 174.544" stroke="#0F2328" stroke-linecap="round" stroke-linejoin="round"/>
<path d="M190.123 145.222C190.123 145.222 200.361 151.365 204.907 157.139C209.453 162.913 220.196 166.749 222.653 174.544C222.653 174.544 208.504 219.127 193.679 235.242C178.855 251.356 170.692 257.97 170.692 257.97C170.692 257.97 135.029 251.773 111.898 232.348L120.17 213.339C120.17 213.339 143.493 216.288 152.714 219.564C161.935 222.84 170.692 242.681 170.692 242.681" stroke="#0F2328" stroke-linecap="round" stroke-linejoin="round"/>
<path d="M152.735 219.564C152.735 219.564 169.061 222.738 174.364 230.171" stroke="#0F2328" stroke-linecap="round" stroke-linejoin="round"/>
<path d="M199.713 227.208L188.069 278.433H116.778L114.349 260.53" stroke="#0F2328" stroke-linecap="round" stroke-linejoin="round"/>
<path d="M147.479 255.458C143.541 263.526 138.347 261.744 138.347 261.744C98.1792 263.266 83.3819 248.257 83.3819 248.257C83.3819 248.257 81.3342 227.147 89.2312 198.657C97.1281 170.168 111.919 145.222 111.919 145.222C118.478 140.86 133.111 137.454 137.241 136.553L138.347 136.321" stroke="#0F2328" stroke-linecap="round" stroke-linejoin="round"/>
<path d="M138.368 261.744C138.368 261.744 136.245 261.396 136.784 247.322" stroke="#0F2328" stroke-linecap="round" stroke-linejoin="round"/>
<path d="M113.004 233.249C113.004 233.249 102.971 229.713 90.542 238.313" stroke="#0F2328" stroke-linecap="round" stroke-linejoin="round"/>
<path d="M92.7935 230.17C92.7935 230.17 105.939 226.259 111.904 232.525" stroke="#0F2328" stroke-linecap="round" stroke-linejoin="round"/>
<path d="M110.485 232.17L112.192 233.024L118.689 216.793C118.689 216.793 111.96 215.694 101.298 228.969C104.627 229.008 107.853 230.132 110.485 232.17Z" fill="#FFDEDE" stroke="#0F2328" stroke-miterlimit="10"/>
<path d="M136.764 247.322V254.537C136.764 254.537 145.957 257.267 152.762 253.342L136.764 247.322Z" fill="#FFDEDE" stroke="#0F2328" stroke-miterlimit="10"/>
<path d="M186.595 147.624C186.602 147.758 186.588 147.891 186.554 148.02C186.267 149.147 179.258 175.608 156.823 187.382C156.628 187.487 156.409 187.541 156.188 187.539C155.883 187.539 155.587 187.437 155.347 187.249C155.107 187.06 154.937 186.797 154.863 186.501C154.79 186.205 154.819 185.893 154.944 185.615C155.069 185.336 155.283 185.108 155.553 184.966C176.029 174.23 183.244 149.761 183.872 147.508L186.595 147.624Z" fill="#0F2328"/>
<path d="M138.319 140.608C134.772 148.709 132.859 157.43 132.688 166.271C132.688 166.988 132.688 167.718 132.688 168.462C132.688 168.646 132.688 168.831 132.688 169.015C132.485 169.022 132.282 169.042 132.081 169.076C131.342 169.193 130.626 169.423 129.958 169.759C129.958 168.756 129.958 167.78 129.958 166.817C130.251 151.501 134.825 141.079 137.261 136.574L138.367 136.342C137.739 136.939 137.345 137.74 137.254 138.601C137.275 138.993 137.38 139.376 137.564 139.722C137.748 140.069 138.006 140.371 138.319 140.608Z" fill="#0F2328"/>
<path d="M165.197 181.225C166.794 183.444 165.483 187.129 162.262 189.457C159.04 191.784 155.136 191.866 153.532 189.648C151.928 187.43 153.239 183.744 156.46 181.417C159.682 179.089 163.62 179.007 165.197 181.225Z" fill="white" stroke="#0F2328" stroke-linecap="round" stroke-linejoin="round"/>
<path d="M161.226 179.908C162.359 181.478 161.43 184.085 159.178 185.73C156.926 187.375 154.134 187.437 153.035 185.867C151.936 184.297 152.83 181.69 155.083 180.045C157.335 178.4 160.093 178.345 161.226 179.908Z" fill="white" stroke="#0F2328" stroke-linecap="round" stroke-linejoin="round"/>
<path d="M143.185 207.612C142.895 207.806 142.541 207.88 142.197 207.821C141.853 207.761 141.545 207.572 141.336 207.292C141.127 207.013 141.033 206.664 141.074 206.317C141.114 205.97 141.286 205.652 141.554 205.428C141.67 205.333 146.25 201.435 144.243 188.31C144.073 187.198 143.854 186.01 143.561 184.761C142.694 180.782 141.356 175.745 138.619 172.045C137.968 171.07 137.076 170.278 136.03 169.747C134.984 169.216 133.819 168.964 132.647 169.015C132.443 169.022 132.24 169.042 132.04 169.076C131.301 169.193 130.585 169.423 129.917 169.759C127.878 170.812 126.33 172.619 125.603 174.796L125.358 175.479C123.81 179.664 122.544 183.949 121.569 188.303C120.477 193.661 120.109 199.279 122.047 203.203C122.567 204.28 123.306 205.236 124.219 206.008C125.131 206.781 126.196 207.353 127.344 207.687C127.652 207.789 127.914 207.996 128.083 208.273C128.252 208.55 128.317 208.878 128.266 209.199C128.215 209.519 128.051 209.811 127.805 210.021C127.558 210.232 127.245 210.349 126.921 210.349C126.777 210.349 126.634 210.326 126.497 210.281C125.005 209.833 123.621 209.08 122.435 208.069C121.248 207.059 120.284 205.813 119.604 204.411C117.42 199.995 117.706 193.982 118.812 188.303C119.792 183.633 121.12 179.043 122.784 174.571L123.03 173.888C123.567 172.264 124.465 170.782 125.658 169.556C126.852 168.33 128.308 167.391 129.917 166.81C130.474 166.617 131.047 166.476 131.63 166.387C131.978 166.339 132.313 166.305 132.667 166.285C134.265 166.241 135.848 166.598 137.272 167.324C138.696 168.051 139.915 169.122 140.817 170.441C143.861 174.537 145.308 179.949 146.229 184.194C146.55 185.655 146.796 187.027 146.98 188.324C149.137 203.039 143.452 207.421 143.185 207.612Z" fill="#0F2328" stroke="#0F2328" stroke-miterlimit="10"/>
<path d="M125.965 210.111C125.965 210.111 130.914 212.158 132.169 210.111C133.425 208.063 132.408 207.101 130.695 206.937C128.988 206.849 127.277 206.849 125.569 206.937L125.965 210.111Z" fill="#0F2328" stroke="#0F2328" stroke-miterlimit="10"/>
<path d="M128.238 209.428C128.149 209.702 127.975 209.94 127.742 210.109C127.509 210.279 127.229 210.37 126.941 210.37C126.797 210.37 126.654 210.347 126.518 210.302C125.025 209.854 123.642 209.101 122.455 208.09C121.269 207.08 120.305 205.834 119.624 204.432C117.44 200.016 117.727 194.003 118.832 188.324H121.563C120.471 193.682 120.102 199.299 122.04 203.224C122.56 204.301 123.3 205.256 124.212 206.029C125.125 206.801 126.189 207.374 127.337 207.708C127.51 207.761 127.67 207.848 127.809 207.963C127.948 208.078 128.063 208.22 128.147 208.38C128.23 208.54 128.282 208.715 128.297 208.895C128.313 209.075 128.293 209.256 128.238 209.428Z" fill="white" stroke="#0F2328" stroke-linecap="round" stroke-linejoin="round"/>
<path d="M138.626 206.131C138.421 206.375 138.269 206.66 138.181 206.967C138.092 207.274 138.07 207.596 138.115 207.913C138.251 208.38 138.547 208.785 138.951 209.057C139.355 209.329 139.842 209.45 140.326 209.4C141.295 209.272 142.182 208.785 142.81 208.035C143.493 207.271 145.861 202.268 143.67 203.128C142.08 203.729 139.691 204.746 138.626 206.131Z" fill="#0F2328" stroke="#0F2328" stroke-miterlimit="10"/>
<path d="M143.185 207.612C142.895 207.806 142.541 207.88 142.197 207.821C141.853 207.761 141.545 207.572 141.336 207.292C141.127 207.013 141.033 206.664 141.074 206.317C141.114 205.97 141.286 205.652 141.554 205.428C141.67 205.333 146.25 201.435 144.243 188.31H146.973C149.137 203.039 143.452 207.421 143.185 207.612Z" fill="white" stroke="#0F2328" stroke-linecap="round" stroke-linejoin="round"/>
<path opacity="0.2" d="M155.43 86.9743C155.43 86.9743 164.024 82.5105 171.921 86.9743C171.921 86.9743 172.05 93.5607 169.068 96.2704C168.01 97.2328 163.164 97.3966 161.328 97.2328C153.874 96.5571 155.43 86.9743 155.43 86.9743Z" fill="white"/>
<path opacity="0.2" d="M150.038 86.9743C150.038 86.9743 141.445 82.5105 133.555 86.9743C133.555 86.9743 133.425 93.5607 136.401 96.2704C137.459 97.2328 142.312 97.3966 144.141 97.2328C151.594 96.5571 150.038 86.9743 150.038 86.9743Z" fill="white"/>
<path d="M155.43 86.9743C155.43 86.9743 164.024 82.5105 171.921 86.9743C171.921 86.9743 172.05 93.5607 169.068 96.2704C168.01 97.2328 163.164 97.3966 161.328 97.2328C153.874 96.5571 155.43 86.9743 155.43 86.9743Z" stroke="#0F2328" stroke-miterlimit="10"/>
<path d="M150.038 86.9743C150.038 86.9743 141.445 82.5105 133.555 86.9743C133.555 86.9743 133.425 93.5607 136.401 96.2704C137.459 97.2328 142.312 97.3966 144.141 97.2328C151.594 96.5571 150.038 86.9743 150.038 86.9743Z" stroke="#0F2328" stroke-miterlimit="10"/>
<path d="M150.038 86.974C150.038 86.974 151.963 85.5612 155.43 86.974" stroke="#0F2328" stroke-miterlimit="10"/>
<path d="M171.92 86.9745L175.51 88.6399" stroke="#0F2328" stroke-miterlimit="10"/>
<path d="M34.501 296.601L59.7617 272.74H260.25L275.43 296.601H34.501Z" fill="white" stroke="#0F2328" stroke-linecap="round" stroke-linejoin="round"/>
<path d="M275.427 296.602H34.4985V303.024H275.427V296.602Z" fill="#0F2328" stroke="#0F2328" stroke-linecap="round" stroke-linejoin="round"/>
<path d="M59.7612 290.704V285.756H99.3483V290.704H91.7108H59.7612Z" fill="white" stroke="#0F2328" stroke-miterlimit="10"/>
<path d="M59.7612 285.756L83.1449 270.071L114.351 270.808L99.3484 285.756H59.7612Z" fill="white" stroke="#0F2328" stroke-linecap="round" stroke-linejoin="round"/>
<path d="M99.3486 290.704L114.351 275.675V270.808L99.3486 285.756V290.704Z" fill="white" stroke="#0F2328" stroke-linecap="round" stroke-linejoin="round"/>
<path d="M98.2768 284.507C98.2768 284.507 95.1167 285.135 95.1167 287.872C95.1167 290.609 97.8468 291.414 97.8468 291.414" stroke="#0F2328" stroke-width="2" stroke-linecap="round" stroke-linejoin="round"/>
<path d="M95.1172 284.507C95.1172 284.507 91.957 285.135 91.957 287.872C91.957 290.609 94.6872 291.414 94.6872 291.414" stroke="#0F2328" stroke-width="2" stroke-linecap="round" stroke-linejoin="round"/>
<path d="M91.956 284.507C91.956 284.507 88.7959 285.135 88.7959 287.872C88.7959 290.609 91.526 291.414 91.526 291.414" stroke="#0F2328" stroke-width="2" stroke-linecap="round" stroke-linejoin="round"/>
<path d="M88.7964 284.507C88.7964 284.507 85.6362 285.135 85.6362 287.872C85.6362 290.609 88.3664 291.414 88.3664 291.414" stroke="#0F2328" stroke-width="2" stroke-linecap="round" stroke-linejoin="round"/>
<path d="M85.6367 284.507C85.6367 284.507 82.4766 285.135 82.4766 287.872C82.4766 290.609 85.2067 291.414 85.2067 291.414" stroke="#0F2328" stroke-width="2" stroke-linecap="round" stroke-linejoin="round"/>
<path d="M82.477 284.507C82.477 284.507 79.3169 285.135 79.3169 287.872C79.3169 290.609 82.047 291.414 82.047 291.414" stroke="#0F2328" stroke-width="2" stroke-linecap="round" stroke-linejoin="round"/>
<path d="M79.3159 284.507C79.3159 284.507 76.1558 285.135 76.1558 287.872C76.1558 290.609 78.8859 291.414 78.8859 291.414" stroke="#0F2328" stroke-width="2" stroke-linecap="round" stroke-linejoin="round"/>
<path d="M76.1562 284.507C76.1562 284.507 72.9961 285.135 72.9961 287.872C72.9961 290.609 75.7262 291.414 75.7262 291.414" stroke="#0F2328" stroke-width="2" stroke-linecap="round" stroke-linejoin="round"/>
<path d="M72.6069 284.507C72.6069 284.507 69.4468 285.135 69.4468 287.872C69.4468 290.609 72.1769 291.414 72.1769 291.414" stroke="#0F2328" stroke-width="2" stroke-linecap="round" stroke-linejoin="round"/>
<path d="M69.0503 284.507C69.0503 284.507 65.8901 285.135 65.8901 287.872C65.8901 290.609 68.6203 291.414 68.6203 291.414" stroke="#0F2328" stroke-width="2" stroke-linecap="round" stroke-linejoin="round"/>
<path d="M65.0996 284.507C65.0996 284.507 61.9395 285.135 61.9395 287.872C61.9395 290.609 64.6696 291.414 64.6696 291.414" stroke="#0F2328" stroke-width="2" stroke-linecap="round" stroke-linejoin="round"/>
<path d="M85.1315 273.914C82.9515 275.116 81.2237 276.998 80.2104 279.272C83.0839 278.364 85.3568 276.316 87.5341 274.269L85.1725 280.125C86.2596 280.037 87.3107 279.693 88.2404 279.123C89.1701 278.553 89.9523 277.771 90.5236 276.842C90.3365 276.923 90.1686 277.042 90.0308 277.192C89.893 277.342 89.7885 277.52 89.724 277.713C89.6596 277.906 89.6367 278.111 89.6569 278.314C89.677 278.517 89.7398 278.713 89.841 278.89C91.8204 278.603 93.0831 276.692 94.0796 274.958C94.2626 275.923 94.3336 276.905 94.2912 277.886C95.9464 278.124 97.6349 277.909 99.1781 277.265" stroke="#0F2328" stroke-width="0.75" stroke-linecap="round" stroke-linejoin="round"/>
<path d="M258.911 248.837H190.104V286.616H258.911V248.837Z" fill="white" stroke="#0F2328" stroke-linecap="round" stroke-linejoin="round"/>
<path d="M189.838 286.609L178.774 276.091V238.312L189.838 248.837V286.609Z" fill="white" stroke="#0F2328" stroke-linecap="round" stroke-linejoin="round"/>
<path d="M258.911 248.837L247.848 238.312H179.048L190.105 248.837H258.911Z" fill="white" stroke="#0F2328" stroke-linecap="round" stroke-linejoin="round"/>
<path d="M233.609 263.007H227.527V256.646H218.955V263.007H212.32V271.58H218.955V277.934H227.527V271.58H233.609V263.007Z" fill="#4DB1C8" stroke="#0F2328" stroke-miterlimit="10"/>
<path d="M223.91 248.837L212.846 238.312" stroke="#0F2328" stroke-linecap="round" stroke-linejoin="round"/>
<path d="M78.4736 88.2744C86.4993 80.2487 86.4993 67.2364 78.4736 59.2107C70.4478 51.1849 57.4355 51.1849 49.4098 59.2107C41.3841 67.2364 41.3841 80.2487 49.4098 88.2744C57.4355 96.3002 70.4478 96.3002 78.4736 88.2744Z" fill="white" stroke="#0F2328" stroke-linecap="round" stroke-linejoin="round"/>
<path d="M81.0347 70.5935C81.0345 71.9692 80.6031 73.3102 79.8012 74.428C78.9993 75.5458 77.8672 76.3841 76.5641 76.8251L67.384 79.917L56.2109 83.6914C54.5649 84.2325 52.7718 84.1011 51.2223 83.3259C49.6728 82.5507 48.4926 81.1944 47.9387 79.5527C47.3849 77.911 47.5024 76.1169 48.2656 74.5615C49.0288 73.006 50.3759 71.8153 52.0133 71.2488L62.1626 67.8361L72.3597 64.4234C73.3462 64.0916 74.3974 63.9988 75.4268 64.1527C76.4562 64.3065 77.4343 64.7027 78.2807 65.3084C79.127 65.9142 79.8174 66.7123 80.295 67.6371C80.7727 68.5619 81.0238 69.5868 81.0279 70.6277L81.0347 70.5935Z" fill="white"/>
<path d="M81.0357 70.593C81.0355 71.9687 80.6041 73.3097 79.8022 74.4275C79.0003 75.5453 77.8682 76.3836 76.5651 76.8246L67.385 79.9165C67.1402 75.3939 65.2885 71.1073 62.1636 67.8288L72.3607 64.4161C73.3472 64.0843 74.3984 63.9915 75.4278 64.1453C76.4572 64.2992 77.4353 64.6953 78.2817 65.3011C79.128 65.9069 79.8184 66.705 80.296 67.6298C80.7737 68.5546 81.0248 69.5795 81.0289 70.6203L81.0357 70.593Z" fill="#4DB1C8"/>
<path d="M81.0347 70.5935C81.0345 71.9692 80.6031 73.3102 79.8012 74.428C78.9993 75.5458 77.8672 76.3841 76.5641 76.8251L67.384 79.917L56.2109 83.6914C54.5649 84.2325 52.7718 84.1011 51.2223 83.3259C49.6728 82.5507 48.4926 81.1944 47.9387 79.5527C47.3849 77.911 47.5024 76.1169 48.2656 74.5615C49.0288 73.006 50.3759 71.8153 52.0133 71.2488L62.1626 67.8361L72.3597 64.4234C73.3462 64.0916 74.3974 63.9988 75.4268 64.1527C76.4562 64.3065 77.4343 64.7027 78.2807 65.3084C79.127 65.9142 79.8174 66.7123 80.295 67.6371C80.7727 68.5619 81.0238 69.5868 81.0279 70.6277L81.0347 70.5935Z" stroke="#0F2328" stroke-linecap="round" stroke-linejoin="round"/>
<path d="M67.385 79.9167C67.1761 75.3857 65.3192 71.0871 62.1636 67.829" stroke="#0F2328" stroke-linecap="round" stroke-linejoin="round"/>
<path d="M78.8379 68.1432C79.2688 68.8691 79.4865 69.7018 79.4658 70.5457" stroke="white" stroke-linecap="round" stroke-linejoin="round"/>
<path d="M64.7563 68.8255L72.9468 66.0953C73.6814 65.8434 74.4627 65.7574 75.2346 65.8436C76.0064 65.9297 76.7496 66.1859 77.4106 66.5936" stroke="white" stroke-linecap="round" stroke-linejoin="round"/>
<path d="M203.579 45.8619C214.031 41.438 218.919 29.3784 214.495 18.9259C210.071 8.47344 198.011 3.58633 187.559 8.01022C177.106 12.4341 172.219 24.4938 176.643 34.9462C181.067 45.3987 193.127 50.2858 203.579 45.8619Z" fill="white" stroke="#0F2328" stroke-linecap="round" stroke-linejoin="round"/>
<path d="M202.656 35.5378L184.733 29.5383C183.242 29.0373 182.012 27.965 181.312 26.5572C180.612 25.1493 180.499 23.5211 180.999 22.0304C181.5 20.5401 182.572 19.3096 183.98 18.6095C185.388 17.9095 187.016 17.797 188.507 18.2969L206.431 24.2896C207.92 24.7921 209.149 25.8646 209.849 27.272C210.549 28.6793 210.662 30.3067 210.164 31.7975C209.663 33.288 208.591 34.5189 207.183 35.22C205.776 35.9212 204.148 36.0355 202.656 35.5378Z" fill="#4DB1C8"/>
<path d="M189.524 29.0605L192.528 21.8871" stroke="#0F2328" stroke-linecap="round" stroke-linejoin="round"/>
<path d="M199.4 32.344L202.39 25.191" stroke="#0F2328" stroke-linecap="round" stroke-linejoin="round"/>
<path d="M192.002 29.4843C192.338 29.4843 192.61 29.2124 192.61 28.8769C192.61 28.5414 192.338 28.2694 192.002 28.2694C191.667 28.2694 191.395 28.5414 191.395 28.8769C191.395 29.2124 191.667 29.4843 192.002 29.4843Z" fill="#0F2328"/>
<path d="M197.974 30.6647C197.974 30.7849 197.939 30.9023 197.872 31.0022C197.805 31.1021 197.71 31.18 197.599 31.2259C197.488 31.2719 197.366 31.2839 197.248 31.2605C197.13 31.2371 197.022 31.1792 196.937 31.0942C196.852 31.0093 196.794 30.9011 196.771 30.7832C196.748 30.6654 196.76 30.5432 196.806 30.4322C196.851 30.3212 196.929 30.2264 197.029 30.1596C197.129 30.0929 197.247 30.0573 197.367 30.0573C197.528 30.0573 197.682 30.1213 197.796 30.2352C197.91 30.3491 197.974 30.5036 197.974 30.6647Z" fill="#0F2328"/>
<path d="M194.356 24.0783C194.692 24.0783 194.964 23.8063 194.964 23.4709C194.964 23.1354 194.692 22.8634 194.356 22.8634C194.021 22.8634 193.749 23.1354 193.749 23.4709C193.749 23.8063 194.021 24.0783 194.356 24.0783Z" fill="#0F2328"/>
<path d="M200.24 25.2045C200.24 25.3246 200.205 25.4421 200.138 25.542C200.071 25.6419 199.976 25.7197 199.865 25.7657C199.754 25.8117 199.632 25.8237 199.514 25.8003C199.396 25.7768 199.288 25.719 199.203 25.634C199.118 25.5491 199.061 25.4408 199.037 25.323C199.014 25.2052 199.026 25.083 199.072 24.972C199.118 24.861 199.195 24.7662 199.295 24.6994C199.395 24.6327 199.513 24.597 199.633 24.597C199.794 24.597 199.948 24.661 200.062 24.775C200.176 24.8889 200.24 25.0434 200.24 25.2045Z" fill="#0F2328"/>
<path d="M202.656 35.5378L184.733 29.5383C183.242 29.0373 182.012 27.965 181.312 26.5572C180.612 25.1493 180.499 23.5211 180.999 22.0304V22.0304C181.5 20.5401 182.572 19.3096 183.98 18.6095C185.388 17.9095 187.016 17.797 188.507 18.2969L206.431 24.2896C207.92 24.7921 209.149 25.8646 209.849 27.272C210.549 28.6793 210.662 30.3067 210.164 31.7975V31.7975C209.663 33.288 208.591 34.5189 207.183 35.22C205.776 35.9212 204.148 36.0355 202.656 35.5378V35.5378Z" stroke="#0F2328" stroke-linecap="round" stroke-linejoin="round"/>
<path d="M117.988 46.37C129.338 46.37 138.539 37.169 138.539 25.8189C138.539 14.4688 129.338 5.2677 117.988 5.2677C106.638 5.2677 97.437 14.4688 97.437 25.8189C97.437 37.169 106.638 46.37 117.988 46.37Z" fill="white" stroke="#0F2328" stroke-linecap="round" stroke-linejoin="round"/>
<path d="M129.762 26.3447V34.7672C129.762 36.9035 128.397 38.6372 126.725 38.6372H109.252C107.573 38.6372 106.214 36.9035 106.214 34.7672V26.3447C106.214 24.2084 107.579 22.4747 109.252 22.4747H112.125V17.5878H123.728V22.4747H126.704C128.397 22.4747 129.762 24.2084 129.762 26.3447Z" fill="white" stroke="#0F2328" stroke-linecap="round" stroke-linejoin="round"/>
<path d="M129.755 27.3136H106.214V32.535H129.755V27.3136Z" fill="#4DB1C8" stroke="#0F2328" stroke-miterlimit="10"/>
<path d="M113.728 11.8676H122.355C123.329 11.8676 124.263 12.2544 124.952 12.9431C125.641 13.6317 126.027 14.5657 126.027 15.5396V19.355H110.049V15.5396C110.049 15.0568 110.145 14.5788 110.329 14.1328C110.514 13.6868 110.786 13.2817 111.127 12.9407C111.469 12.5996 111.875 12.3293 112.321 12.1451C112.767 11.961 113.245 11.8667 113.728 11.8676Z" fill="#4DB1C8" stroke="#0F2328" stroke-miterlimit="10"/>
<path d="M112.841 12.0997V19.3551" stroke="#0F2328" stroke-linecap="round" stroke-linejoin="round"/>
<path d="M116.616 11.8676V19.355" stroke="#0F2328" stroke-linecap="round" stroke-linejoin="round"/>
<path d="M120.39 11.8676V19.355" stroke="#0F2328" stroke-linecap="round" stroke-linejoin="round"/>
<path d="M124.165 12.2909V19.3551" stroke="#0F2328" stroke-linecap="round" stroke-linejoin="round"/>
<path d="M65.3353 138.168C67.1715 126.967 59.5801 116.399 48.3795 114.563C37.179 112.726 26.6106 120.318 24.7744 131.518C22.9382 142.719 30.5296 153.287 41.7302 155.124C52.9308 156.96 63.4991 149.368 65.3353 138.168Z" fill="white" stroke="#0F2328" stroke-linecap="round" stroke-linejoin="round"/>
<path d="M55.4801 140.145C57.7185 135.411 54.6408 129.26 48.6057 126.406C42.5707 123.552 35.8637 125.076 33.6253 129.809C31.3869 134.542 34.4646 140.693 40.4997 143.547C46.5347 146.401 53.2417 144.878 55.4801 140.145Z" fill="#4DB1C8" stroke="#0F2328" stroke-linecap="round" stroke-linejoin="round"/>
<path d="M56.2267 138.535C58.3265 134.095 55.1364 128.182 49.1014 125.328C43.0664 122.474 36.4717 123.759 34.3719 128.2C32.2721 132.64 35.4622 138.553 41.4972 141.407C47.5323 144.261 54.1269 142.975 56.2267 138.535Z" fill="#4DB1C8" stroke="#0F2328" stroke-linecap="round" stroke-linejoin="round"/>
<path d="M48.7848 127.291L41.3247 137.782" stroke="#0F2328" stroke-linecap="round" stroke-linejoin="round"/>
<path d="M44.2939 125.592C45.2937 125.727 46.2787 125.955 47.2357 126.275" stroke="white" stroke-linecap="round" stroke-linejoin="round"/>
<path d="M37.6666 135.468C37.6666 135.468 33.858 131.298 37.5778 127.278C38.4362 126.403 39.5541 125.828 40.7653 125.64" stroke="white" stroke-linecap="round" stroke-linejoin="round"/>
<path d="M281.811 138.179C283.648 126.979 276.056 116.41 264.856 114.574C253.655 112.738 243.087 120.329 241.25 131.53C239.414 142.731 247.006 153.299 258.206 155.135C269.407 156.971 279.975 149.38 281.811 138.179Z" fill="white" stroke="#0F2328" stroke-linecap="round" stroke-linejoin="round"/>
<path d="M273.325 136.915C273.168 137.14 273.011 137.372 272.848 137.598C269.769 141.863 265.026 145.843 261.511 146.628V146.573C258.098 145.808 253.504 142.02 250.426 137.884C250.256 137.659 250.092 137.427 249.935 137.202C246.973 132.956 245.724 128.499 249.02 126.657C255.723 122.916 261.511 130.936 261.511 130.936C261.511 130.936 267.312 122.978 274.001 126.711C277.209 128.499 276.11 132.772 273.325 136.915Z" fill="#4DB1C8" stroke="#0F2328" stroke-miterlimit="10"/>
<path d="M273.327 136.915C273.17 137.14 273.013 137.373 272.849 137.598H271.156L269.218 140.157L267.9 132.567L265.853 137.727H261.014L258.536 141.857L256.625 133.496L254.161 137.857H250.427C250.257 137.632 250.093 137.4 249.936 137.175H253.765L256.898 131.626L258.823 140.055L260.645 137.018H265.423L268.153 130.028L269.614 138.465L270.808 136.888L273.327 136.915Z" fill="white"/>
<path d="M241.745 94.5231C253.096 94.5231 262.297 85.322 262.297 73.9719C262.297 62.6218 253.096 53.4208 241.745 53.4208C230.395 53.4208 221.194 62.6218 221.194 73.9719C221.194 85.322 230.395 94.5231 241.745 94.5231Z" fill="white" stroke="#0F2328" stroke-linecap="round" stroke-linejoin="round"/>
<path d="M240.203 64.4709C240.401 64.9145 239.166 65.8974 237.473 66.6686C235.78 67.4399 234.197 67.7061 233.999 67.2556C233.801 66.8051 235.03 65.8291 236.729 65.0578C238.429 64.2866 239.998 64.0477 240.203 64.4709Z" fill="white" stroke="#0F2328" stroke-linecap="round" stroke-linejoin="round"/>
<path d="M249.451 83.5341L243.301 86.5099L237.787 75.1525L233.978 67.3034L240.128 64.3207L243.841 71.9787L249.451 83.5341Z" fill="white" stroke="#0F2328" stroke-linecap="round" stroke-linejoin="round"/>
<path d="M235.118 69.6444L237.786 68.4091L235.118 69.6444Z" fill="#4DB1C8"/>
<path d="M235.118 69.6444L237.786 68.4091" stroke="#0F2328" stroke-linecap="round" stroke-linejoin="round"/>
<path d="M236.278 72.1149L238.947 70.8795L236.278 72.1149Z" fill="#4DB1C8"/>
<path d="M236.278 72.1149L238.947 70.8795" stroke="#0F2328" stroke-linecap="round" stroke-linejoin="round"/>
<path d="M245.656 85.3698L248.83 89.5332L247.246 84.5985L245.656 85.3698Z" fill="white" stroke="#0F2328" stroke-linecap="round" stroke-linejoin="round"/>
<path d="M249.451 83.5342C248.011 84.9756 246.174 85.9547 244.175 86.3463L243.302 86.5101L237.787 75.1527L243.841 71.9789L249.451 83.5342Z" fill="#4DB1C8" stroke="#0F2328" stroke-miterlimit="10"/>
<path d="M238.947 77.3096L241.459 76.1493" stroke="#0F2328" stroke-linecap="round" stroke-linejoin="round"/>
<path d="M240.325 79.951L242.789 78.8248L240.325 79.951Z" fill="#4DB1C8"/>
<path d="M240.325 79.951L242.789 78.8248" stroke="#0F2328" stroke-linecap="round" stroke-linejoin="round"/>
<path d="M236.108 66.2659L234.163 61.8909L235.691 61.024L237.787 65.4537L236.108 66.2659Z" fill="white" stroke="#0F2328" stroke-linecap="round" stroke-linejoin="round"/>
<path d="M239.445 60.4915L238.981 59.4677L230.791 63.1329L231.255 64.1567C231.446 64.5935 233.432 64.1157 235.698 63.1056C237.964 62.0954 239.636 60.9215 239.445 60.4915Z" fill="white" stroke="#0F2328" stroke-linecap="round" stroke-linejoin="round"/>
<path d="M238.981 59.4679C238.79 59.0379 236.797 59.5089 234.538 60.519C232.279 61.5292 230.6 62.7032 230.791 63.1332C230.982 63.5632 232.975 63.0922 235.234 62.0752C237.493 61.0583 239.172 59.8979 238.981 59.4679Z" fill="white" stroke="#0F2328" stroke-linecap="round" stroke-linejoin="round"/>
</svg>
