<svg width="400" height="319" viewBox="0 0 400 319" fill="none" xmlns="http://www.w3.org/2000/svg">
<path d="M400 261.92H0V262.12H400V261.92Z" fill="#EBEBEB"/>
<path d="M138.576 267.024H120.032V267.224H138.576V267.024Z" fill="#EBEBEB"/>
<path d="M367.016 271.312H321.68V271.512H367.016V271.312Z" fill="#EBEBEB"/>
<path d="M79.5118 271.312H34.1758V271.512H79.5118V271.312Z" fill="#EBEBEB"/>
<path d="M189.6 226.24H35.1279C33.9177 226.238 32.7579 225.756 31.903 224.899C31.048 224.043 30.5679 222.882 30.5679 221.672V4.528C30.5784 3.32482 31.0632 2.17438 31.917 1.32657C32.7708 0.478767 33.9246 0.00206111 35.1279 0H189.6C190.811 0 191.973 0.48127 192.83 1.33794C193.687 2.1946 194.168 3.35649 194.168 4.568V221.672C194.168 222.883 193.687 224.045 192.83 224.902C191.973 225.759 190.811 226.24 189.6 226.24ZM35.1279 0.160001C33.9708 0.16212 32.8618 0.623252 32.0444 1.44218C31.227 2.26111 30.7679 3.37092 30.7679 4.528V221.672C30.7679 222.829 31.227 223.939 32.0444 224.758C32.8618 225.577 33.9708 226.038 35.1279 226.04H189.6C190.757 226.036 191.866 225.574 192.684 224.756C193.502 223.938 193.964 222.829 193.968 221.672V4.528C193.964 3.37083 193.502 2.26226 192.684 1.44402C191.866 0.625769 190.757 0.164216 189.6 0.160001H35.1279Z" fill="#EBEBEB"/>
<path d="M362.648 226.24H208.168C206.958 226.236 205.798 225.753 204.943 224.897C204.087 224.042 203.604 222.882 203.6 221.672V4.528C203.613 3.32409 204.099 2.17366 204.954 1.32607C205.809 0.478487 206.964 0.00203863 208.168 0H362.648C363.85 0.0041636 365.002 0.481799 365.854 1.32938C366.706 2.17697 367.19 3.3262 367.2 4.528V221.672C367.201 222.271 367.084 222.864 366.856 223.418C366.628 223.971 366.293 224.475 365.87 224.899C365.447 225.323 364.945 225.66 364.393 225.89C363.84 226.12 363.247 226.239 362.648 226.24ZM208.168 0.160001C207.011 0.164216 205.902 0.625769 205.084 1.44402C204.266 2.26226 203.804 3.37083 203.8 4.528V221.672C203.804 222.829 204.266 223.938 205.084 224.756C205.902 225.574 207.011 226.036 208.168 226.04H362.648C363.805 226.036 364.914 225.574 365.732 224.756C366.55 223.938 367.012 222.829 367.016 221.672V4.528C367.012 3.37083 366.55 2.26226 365.732 1.44402C364.914 0.625769 363.805 0.164216 362.648 0.160001H208.168Z" fill="#EBEBEB"/>
<path d="M171.328 149.304H58.7124V261.92H171.328V149.304Z" fill="#E0E0E0"/>
<path d="M151.344 149.304H47.9199V261.92H151.344V149.304Z" fill="#EBEBEB"/>
<path d="M147.048 155.4H52.0879V186.152H147.048V155.4Z" fill="#F5F5F5"/>
<path d="M147.048 190.992H52.0879V221.744H147.048V190.992Z" fill="#F5F5F5"/>
<path d="M147.048 225.08H52.0879V255.832H147.048V225.08Z" fill="#F5F5F5"/>
<path d="M100.576 169.072C100.576 169.737 100.379 170.386 100.01 170.939C99.6405 171.491 99.1157 171.922 98.5018 172.176C97.8878 172.431 97.2122 172.497 96.5605 172.367C95.9087 172.238 95.31 171.918 94.8401 171.448C94.3702 170.978 94.0502 170.379 93.9205 169.728C93.7909 169.076 93.8574 168.4 94.1117 167.786C94.366 167.172 94.7967 166.647 95.3492 166.278C95.9018 165.909 96.5514 165.712 97.216 165.712C98.1071 165.712 98.9617 166.066 99.5918 166.696C100.222 167.326 100.576 168.181 100.576 169.072Z" fill="#FAFAFA"/>
<path d="M99.632 237.344C99.632 237.819 99.4913 238.283 99.2276 238.677C98.9638 239.072 98.589 239.38 98.1505 239.561C97.7119 239.743 97.2294 239.79 96.7638 239.698C96.2983 239.605 95.8706 239.377 95.535 239.041C95.1993 238.705 94.9708 238.278 94.8781 237.812C94.7855 237.347 94.8331 236.864 95.0147 236.426C95.1964 235.987 95.504 235.612 95.8987 235.348C96.2933 235.085 96.7574 234.944 97.232 234.944C97.8686 234.944 98.479 235.197 98.9291 235.647C99.3792 236.097 99.632 236.707 99.632 237.344Z" fill="#FAFAFA"/>
<path d="M99.632 205.904C99.632 206.379 99.4913 206.843 99.2276 207.237C98.9638 207.632 98.589 207.94 98.1505 208.121C97.7119 208.303 97.2294 208.35 96.7638 208.258C96.2983 208.165 95.8706 207.937 95.535 207.601C95.1993 207.265 94.9708 206.838 94.8781 206.372C94.7855 205.907 94.8331 205.424 95.0147 204.985C95.1964 204.547 95.504 204.172 95.8987 203.908C96.2933 203.645 96.7574 203.504 97.232 203.504C97.8686 203.504 98.479 203.757 98.9291 204.207C99.3792 204.657 99.632 205.267 99.632 205.904Z" fill="#FAFAFA"/>
<path d="M185.408 10.952H54.48V97.248H185.408V10.952Z" fill="#E0E0E0"/>
<path d="M182.88 10.952H51.9517V97.248H182.88V10.952Z" fill="#F0F0F0"/>
<path d="M178.064 15.064H55.7124V93.816H178.064V15.064Z" fill="#FAFAFA"/>
<path d="M173.936 16.184L139.128 93.816H124.824L158.304 16.184H173.936Z" fill="white"/>
<path d="M145.415 16.184L110.063 93.816H93.2954L130.255 16.184H145.415Z" fill="white"/>
<path d="M185.232 10.952H51.9517V16.184H185.232V10.952Z" fill="#E0E0E0"/>
<path d="M185.232 17.536H51.9517V22.768H185.232V17.536Z" fill="#E0E0E0"/>
<path d="M185.232 24.12H51.9517V29.352H185.232V24.12Z" fill="#E0E0E0"/>
<path d="M185.232 30.6959H51.9517V35.9279H185.232V30.6959Z" fill="#E0E0E0"/>
<path d="M185.232 37.2799H51.9517V42.5119H185.232V37.2799Z" fill="#E0E0E0"/>
<path d="M189.208 97.2479H49.0957V103.76H189.208V97.2479Z" fill="#E0E0E0"/>
<path d="M351.336 194.864V261.92H327.64L326.376 255.208H234.304V194.864H351.336Z" fill="#E0E0E0"/>
<path d="M335.104 194.864V261.92H327.64L326.376 255.208H232.472L230.984 261.92H218.072V194.864H335.104Z" fill="#EBEBEB"/>
<path d="M328.504 199.568H224.016V222.672H328.504V199.568Z" stroke="#FAFAFA" stroke-miterlimit="10"/>
<path d="M328.504 227.272H224.016V250.608H328.504V227.272Z" stroke="#FAFAFA" stroke-miterlimit="10"/>
<path d="M349.232 7.54395H302.248V71.0879H349.232V7.54395Z" fill="#E0E0E0"/>
<path d="M346.88 7.50403H299.896V71.048H346.88V7.50403Z" fill="#E6E6E6"/>
<path d="M344.44 9.88806H302.248V68.7601H344.44V9.88806Z" fill="#FAFAFA"/>
<path d="M340.136 55.984H307.888V57.36H340.136V55.984Z" fill="#E0E0E0"/>
<path d="M340.136 59.496H307.888V60.872H340.136V59.496Z" fill="#E0E0E0"/>
<path d="M340.136 63.0079H307.888V64.3839H340.136V63.0079Z" fill="#E0E0E0"/>
<path d="M335.528 31.664C335.528 33.9402 334.853 36.1653 333.589 38.058C332.325 39.9508 330.528 41.4264 328.425 42.2981C326.322 43.1699 324.009 43.3988 321.776 42.9559C319.543 42.513 317.492 41.4182 315.881 39.8098C314.271 38.2015 313.173 36.1517 312.727 33.9197C312.281 31.6876 312.507 29.3734 313.376 27.2696C314.244 25.1658 315.718 23.3668 317.609 22.0999C319.5 20.833 321.724 20.1552 324 20.152C325.513 20.1499 327.012 20.4461 328.41 21.0237C329.809 21.6013 331.08 22.4489 332.15 23.5181C333.221 24.5873 334.071 25.8571 334.65 27.2548C335.23 28.6526 335.528 30.1509 335.528 31.664V31.664Z" stroke="#E0E0E0" stroke-miterlimit="10"/>
<path d="M330.84 87.496H290.72V127.616H330.84V87.496Z" fill="#E0E0E0"/>
<path d="M327.408 87.496H287.288V127.616H327.408V87.496Z" fill="#EBEBEB"/>
<path d="M324.64 90.2721H290.064V124.848H324.64V90.2721Z" fill="#FAFAFA"/>
<path d="M316.52 98.3839H298.184V116.72H316.52V98.3839Z" fill="#E0E0E0"/>
<path d="M198.464 318.168C272.32 318.168 332.192 313.641 332.192 308.056C332.192 302.471 272.32 297.944 198.464 297.944C124.608 297.944 64.7358 302.471 64.7358 308.056C64.7358 313.641 124.608 318.168 198.464 318.168Z" fill="#F5F5F5"/>
<path d="M128.4 254.568H79.1836V310.112H128.4V254.568Z" fill="#4DB1C8"/>
<path d="M153.007 254.568H103.792V310.112H153.007V254.568Z" fill="#4DB1C8"/>
<path opacity="0.7" d="M128.4 254.568H79.1836V310.112H128.4V254.568Z" fill="white"/>
<path opacity="0.2" d="M153 254.568H128.344V310.112H153V254.568Z" fill="white"/>
<path d="M140.157 293.428C143.615 293.347 146.306 288.441 146.166 282.469C146.026 276.497 143.11 271.721 139.651 271.802C136.192 271.883 133.502 276.79 133.642 282.762C133.781 288.734 136.698 293.509 140.157 293.428Z" fill="white"/>
<path d="M143.68 280.792L141.008 280.856L140.904 276.328L138.84 276.376L138.944 280.904L136.008 280.976L136.088 284.504L139.024 284.432L139.136 288.92L141.2 288.872L141.096 284.384L143.768 284.32L143.68 280.792Z" fill="#4DB1C8"/>
<path d="M109.784 254.568H99.8159V264.536H109.784V254.568Z" fill="#F5F5F5"/>
<path d="M109.784 274.48H99.8159V310.112H109.784V274.48Z" fill="#F5F5F5"/>
<path d="M144.168 209.008H103.792V254.584H144.168V209.008Z" fill="#4DB1C8"/>
<path d="M164.36 209.008H123.984V254.584H164.36V209.008Z" fill="#4DB1C8"/>
<path opacity="0.7" d="M137.871 209.008H103.792V254.584H137.871V209.008Z" fill="white"/>
<path opacity="0.2" d="M164.36 209.008H137.872V254.584H164.36V209.008Z" fill="white"/>
<path d="M156.247 231.912C156.367 236.808 154.159 240.84 151.319 240.904C148.479 240.968 146.087 237.048 145.975 232.152C145.863 227.256 148.071 223.2 150.903 223.2C153.735 223.2 156.135 227.008 156.247 231.912Z" fill="white"/>
<path d="M154.232 230.528L152.04 230.576L151.952 226.856L150.256 226.896L150.344 230.616L147.928 230.672L148 233.568L150.408 233.512L150.496 237.2L152.192 237.152L152.104 233.472L154.296 233.424L154.232 230.528Z" fill="#4DB1C8"/>
<path d="M120.72 209.008H112.536V254.584H120.72V209.008Z" fill="#F5F5F5"/>
<path d="M190.712 147.28C190.712 147.28 178.928 203.088 177.912 221.6C176.896 240.112 181.728 286.632 181.728 286.632L196.784 289.032L199.656 229.664L206.256 184.408C206.256 184.408 213.168 221.208 216.144 229.824C219.12 238.44 233.32 263.424 245.048 283.384L255.128 276C255.128 276 236.288 222.128 233.072 211.608C229.856 201.088 232.032 156.488 222.112 143.824L190.712 147.28Z" fill="#4DB1C8"/>
<path opacity="0.4" d="M190.712 147.28C190.712 147.28 178.928 203.088 177.912 221.6C176.896 240.112 181.728 286.632 181.728 286.632L196.784 289.032L199.656 229.664L206.256 184.408C206.256 184.408 213.168 221.208 216.144 229.824C219.12 238.44 233.32 263.424 245.048 283.384L255.128 276C255.128 276 236.288 222.128 233.072 211.608C229.856 201.088 232.032 156.488 222.112 143.824L190.712 147.28Z" fill="white"/>
<path d="M193.513 302.08C193.441 302.528 185.633 300.832 185.633 300.832L185.105 293.12L184.897 290.096L192.897 289.392C192.897 289.392 193.033 291.696 193.177 294.336C193.337 297.792 193.601 301.816 193.513 302.08Z" fill="#FFD2D2"/>
<path opacity="0.2" d="M193.145 294.336L185.105 293.12L184.897 290.096L192.897 289.392C192.897 289.392 193.001 291.696 193.145 294.336Z" fill="black"/>
<path d="M179.913 303.544L179.593 303.104C179.497 302.968 177.193 299.744 177.529 298.16C177.56 298.006 177.625 297.861 177.719 297.735C177.813 297.609 177.934 297.506 178.073 297.432C178.186 297.364 178.316 297.328 178.449 297.328C178.581 297.328 178.711 297.364 178.825 297.432C179.969 298.128 179.929 302.512 179.921 303.032L179.913 303.544ZM178.473 297.688C178.391 297.691 178.312 297.713 178.241 297.752C178.149 297.803 178.07 297.873 178.008 297.957C177.946 298.042 177.902 298.138 177.881 298.24C177.633 299.328 178.929 301.44 179.561 302.416C179.561 300.872 179.353 298.168 178.641 297.736C178.59 297.705 178.532 297.688 178.473 297.688Z" fill="#4DB1C8"/>
<path d="M179.104 303.592L178.64 303.4C178.144 303.2 173.792 301.384 173.52 299.824C173.495 299.665 173.513 299.503 173.57 299.353C173.628 299.202 173.724 299.07 173.848 298.968C173.98 298.846 174.138 298.757 174.311 298.708C174.483 298.66 174.665 298.653 174.84 298.688C176.6 298.992 178.776 302.976 178.84 303.144L179.104 303.592ZM174.616 299.024C174.421 299.024 174.234 299.102 174.096 299.24C174.015 299.3 173.952 299.38 173.914 299.474C173.875 299.567 173.864 299.669 173.88 299.768C174.056 300.792 176.776 302.168 178.28 302.856C177.656 301.792 176.04 299.264 174.776 299.04L174.616 299.024Z" fill="#4DB1C8"/>
<path d="M193.256 301.648L185.176 300.376C184.674 300.297 184.161 300.408 183.736 300.688C181.863 301.953 179.755 302.829 177.536 303.264C174.08 303.752 171.008 303.072 170.72 304.064C170.557 304.709 170.615 305.39 170.885 305.998C171.154 306.605 171.621 307.105 172.208 307.416C173.344 308.008 187.264 310.168 193.136 311.064C193.444 311.111 193.758 311.086 194.054 310.993C194.351 310.9 194.622 310.741 194.848 310.527C195.074 310.314 195.248 310.052 195.358 309.761C195.467 309.47 195.509 309.158 195.48 308.848L194.976 303.488C194.933 303.035 194.741 302.608 194.43 302.275C194.118 301.943 193.706 301.722 193.256 301.648Z" fill="#222221"/>
<path d="M179.737 284.784L181.001 291.44L197.481 293.008L197.969 286.272L179.737 284.784Z" fill="#4DB1C8"/>
<path d="M260.193 284.352C260.417 284.752 253.249 288.28 253.249 288.28L248.497 283.056L246.009 280.312L248.537 277.912L251.817 274.816C251.817 274.816 252.153 275.2 252.705 275.808L255.617 279.088C257.777 281.536 260.081 284.152 260.193 284.352Z" fill="#FFD2D2"/>
<path opacity="0.2" d="M255.617 279.096L248.497 283.056L246.009 280.312L248.537 277.912L252.705 275.808L255.617 279.096Z" fill="black"/>
<path d="M250.92 291.472L250.504 291.28C250.352 291.216 246.84 289.608 246.504 288.192C246.473 288.051 246.478 287.904 246.517 287.764C246.556 287.625 246.628 287.497 246.728 287.392C246.835 287.255 246.977 287.149 247.138 287.084C247.3 287.019 247.476 286.999 247.648 287.024C249.072 287.256 250.552 290.672 250.72 291.064L250.92 291.472ZM247.52 287.36C247.423 287.363 247.329 287.387 247.243 287.431C247.157 287.476 247.082 287.539 247.024 287.616C246.96 287.682 246.914 287.762 246.891 287.851C246.867 287.939 246.866 288.032 246.888 288.12C247.08 289.016 249.064 290.168 250.208 290.744C249.656 289.56 248.52 287.544 247.616 287.368L247.52 287.36Z" fill="#4DB1C8"/>
<path d="M245.657 293.152C244.936 293.227 244.213 293.043 243.617 292.632C243.465 292.48 243.36 292.288 243.313 292.078C243.267 291.869 243.28 291.65 243.353 291.448C243.409 291.201 243.523 290.97 243.685 290.775C243.848 290.58 244.055 290.427 244.289 290.328C246.377 289.384 251.041 291.76 251.241 291.864L251.641 292.072L251.209 292.2C249.4 292.728 247.538 293.047 245.657 293.152ZM245.505 290.464C245.138 290.452 244.773 290.518 244.433 290.656C244.25 290.734 244.089 290.855 243.962 291.008C243.835 291.161 243.747 291.342 243.705 291.536C243.657 291.672 243.647 291.817 243.675 291.958C243.703 292.099 243.769 292.229 243.865 292.336C244.825 293.264 248.737 292.456 250.649 291.944C249.673 291.52 247.201 290.464 245.505 290.464Z" fill="#4DB1C8"/>
<path d="M259.728 284.064L252.608 288.064C252.163 288.31 251.829 288.716 251.672 289.2C250.99 291.355 249.88 293.349 248.408 295.064C246.008 297.6 243.176 298.976 243.568 299.928C243.838 300.535 244.304 301.034 244.892 301.343C245.48 301.652 246.155 301.754 246.808 301.632C248.064 301.392 260.32 294.432 265.48 291.504C265.751 291.349 265.983 291.135 266.158 290.877C266.333 290.619 266.447 290.324 266.491 290.016C266.535 289.707 266.507 289.392 266.411 289.096C266.315 288.799 266.153 288.529 265.936 288.304L262.216 284.408C261.897 284.085 261.481 283.876 261.031 283.814C260.581 283.752 260.123 283.84 259.728 284.064Z" fill="#222221"/>
<path d="M239.12 279.944L244.248 284.392L258.144 275.384L254.344 269.8L239.12 279.944Z" fill="#4DB1C8"/>
<path d="M207.424 77.6002C207.864 77.3522 217.024 76.9362 225.824 78.7842C234.624 80.6322 218.944 91.4562 218.944 91.4562L214.032 111.12L205.032 111.2L203.944 83.2802L207.424 77.6002Z" fill="#EBEBEB"/>
<path d="M225.817 78.8082L206.729 108.928L208.841 77.3442C208.841 77.3442 201.905 77.5202 199.753 78.1442C197.601 78.7682 195.753 83.7922 194.209 90.6722C192.665 97.5522 190.321 114.048 190.321 114.048L179.353 206.048C179.353 206.048 216.849 214.048 234.513 207.832C234.513 207.832 227.873 125.2 228.969 120.096C230.065 114.992 233.609 96.3202 233.609 96.3202C233.609 96.3202 238.521 87.0002 236.385 84.2562C234.249 81.5122 225.817 78.8082 225.817 78.8082Z" fill="#4DB1C8"/>
<path d="M203.312 136.76L206.032 209.768" stroke="white" stroke-width="0.75" stroke-linecap="round" stroke-linejoin="round"/>
<path d="M200.995 79.7113L134.821 102.265L151.487 151.167L217.662 128.613L200.995 79.7113Z" fill="#4DB1C8"/>
<path d="M200.993 79.7123L151.481 151.168L142.185 146.952L125.521 98.0563L191.697 75.5043L200.993 79.7123Z" fill="#4DB1C8"/>
<path opacity="0.7" d="M200.993 79.7123L134.817 102.264L151.481 151.168L142.185 146.952L125.521 98.0563L191.697 75.5043L200.993 79.7123Z" fill="white"/>
<path opacity="0.46" d="M200.995 79.7113L134.821 102.265L151.487 151.167L217.662 128.613L200.995 79.7113Z" fill="white"/>
<path d="M186.837 129.908C194.815 123.381 195.991 111.622 189.464 103.644C182.936 95.6662 171.177 94.4903 163.2 101.018C155.222 107.545 154.046 119.304 160.573 127.282C167.101 135.259 178.859 136.435 186.837 129.908Z" fill="#FAFAFA"/>
<path d="M186.225 108.992L178.617 111.48L176.169 104.008L170.289 105.936L172.737 113.408L164.369 116.144L166.265 121.96L174.641 119.216L177.065 126.624L182.945 124.696L180.521 117.288L188.129 114.8L186.225 108.992Z" fill="#4DB1C8"/>
<path d="M208.8 38.5122V26.8722C208.8 26.8722 221.544 21.1362 233.728 32.8482L228.128 44.1442L208.8 38.5122Z" fill="#4DB1C8"/>
<path d="M221.04 28.5765L219.596 28.2914L218.724 32.7101L220.168 32.9952L221.04 28.5765Z" fill="white"/>
<path d="M217.833 29.4802L217.548 30.9243L221.967 31.7968L222.252 30.3527L217.833 29.4802Z" fill="white"/>
<path d="M227.2 60.0003C224.872 63.3523 222.736 62.8883 222.736 62.8883C222.036 64.1611 221.124 65.3054 220.04 66.2723C219.656 76.7283 222.736 79.5523 222.736 79.5523C219.536 84.4883 215.584 84.3523 211.584 82.9123C207.584 81.4723 207.376 78.3363 207.376 78.3363C210.992 76.5603 211.04 73.7763 210.52 71.8723C210.313 71.1353 210.006 70.4301 209.608 69.7763C202.816 67.9123 200.856 61.4003 201.32 55.2563C201.607 51.5298 202.521 47.8784 204.024 44.4563L208.024 38.4003L223.664 41.6003L224.504 49.8883L221.304 56.0323C226.944 51.8643 229.552 56.6083 227.2 60.0003Z" fill="#FFD2D2"/>
<path d="M208.8 59.9202C208.42 59.9223 208.04 59.8956 207.664 59.8402C207.628 59.8339 207.593 59.8206 207.562 59.8009C207.531 59.7812 207.504 59.7556 207.483 59.7255C207.462 59.6954 207.447 59.6614 207.439 59.6255C207.431 59.5896 207.43 59.5525 207.436 59.5162C207.443 59.48 207.456 59.4454 207.476 59.4143C207.495 59.3832 207.521 59.3563 207.551 59.3351C207.581 59.314 207.615 59.2989 207.651 59.2909C207.687 59.2828 207.724 59.2819 207.76 59.2882C207.76 59.2882 211.76 59.9842 213.48 57.0242C213.499 56.9922 213.523 56.9641 213.552 56.9415C213.582 56.919 213.615 56.9024 213.651 56.8927C213.686 56.8831 213.724 56.8805 213.76 56.8852C213.797 56.89 213.832 56.9019 213.864 56.9202C213.896 56.9386 213.924 56.9631 213.947 56.9924C213.97 57.0216 213.986 57.055 213.996 57.0907C214.005 57.1264 214.008 57.1636 214.003 57.2002C213.999 57.2369 213.987 57.2722 213.968 57.3042C212.648 59.5602 210.208 59.9202 208.8 59.9202Z" fill="#263238"/>
<path d="M207.704 56.2642C207.872 56.2642 208.552 51.1602 208.552 51.1602L204.92 55.5282C205.295 55.8598 205.741 56.0992 206.225 56.227C206.708 56.3548 207.215 56.3676 207.704 56.2642Z" fill="#EB9A98"/>
<path d="M213.328 51.2642C213.24 51.8962 212.848 52.3682 212.456 52.3122C212.064 52.2562 211.816 51.6962 211.904 51.0642C211.992 50.4322 212.384 49.9522 212.776 50.0082C213.168 50.0642 213.416 50.6242 213.328 51.2642Z" fill="#263238"/>
<path d="M205.6 50.5602C205.512 51.1922 205.12 51.6642 204.728 51.6082C204.336 51.5522 204.088 51.0002 204.176 50.3602C204.264 49.7202 204.656 49.2562 205.048 49.3122C205.44 49.3682 205.728 49.9202 205.6 50.5602Z" fill="#263238"/>
<path d="M216.464 48.4001C216.394 48.3993 216.325 48.3786 216.265 48.3404C216.206 48.3022 216.159 48.248 216.128 48.1841C215.176 46.1601 213.832 46.4241 213.776 46.4321C213.684 46.4459 213.589 46.4244 213.511 46.372C213.433 46.3195 213.378 46.2398 213.356 46.1485C213.334 46.0573 213.347 45.9611 213.392 45.8788C213.437 45.7966 213.512 45.7343 213.6 45.7041C213.68 45.7041 215.584 45.2561 216.8 47.8641C216.822 47.9092 216.834 47.9581 216.837 48.008C216.839 48.0579 216.831 48.1078 216.814 48.1547C216.797 48.2016 216.771 48.2447 216.737 48.2813C216.703 48.3179 216.662 48.3474 216.616 48.3681C216.569 48.3897 216.517 48.4006 216.464 48.4001Z" fill="#263238"/>
<path d="M203.144 47.0562C203.097 47.0566 203.05 47.0476 203.006 47.0298C202.962 47.0119 202.922 46.9856 202.888 46.9522C202.853 46.9179 202.825 46.8769 202.806 46.8315C202.787 46.7862 202.777 46.7375 202.777 46.6882C202.777 46.639 202.787 46.5903 202.806 46.5449C202.825 46.4996 202.853 46.4585 202.888 46.4242C202.984 46.3282 205.128 44.1362 207.832 45.2162C207.879 45.2339 207.921 45.2606 207.957 45.2948C207.993 45.329 208.022 45.3699 208.042 45.4153C208.062 45.4606 208.073 45.5095 208.074 45.5591C208.075 45.6087 208.067 45.658 208.048 45.7042C208.01 45.7969 207.936 45.8707 207.843 45.9096C207.75 45.9485 207.646 45.9494 207.552 45.9122C205.304 45.0162 203.456 46.9202 203.432 46.9442C203.396 46.9836 203.351 47.0141 203.301 47.0335C203.252 47.0529 203.198 47.0607 203.144 47.0562Z" fill="#263238"/>
<path opacity="0.2" d="M213.096 69.3521C212.471 70.3825 211.592 71.2361 210.544 71.832C210.337 71.0951 210.03 70.3899 209.632 69.736C210.801 69.8488 211.981 69.7181 213.096 69.3521Z" fill="black"/>
<path d="M222.92 42.3041C222.92 42.3041 209.424 45.9122 204.048 44.0002C198.672 42.0882 200.552 35.4802 201.28 34.8562C202.272 34.0082 204.432 37.5122 204.432 37.5122C204.432 37.5122 202.664 33.7602 204.048 32.9362C205.432 32.1122 205.648 37.7362 210.688 37.1442C215.728 36.5522 229.696 32.7522 230.52 41.5362C231.015 46.7986 230.164 52.1005 228.048 56.9442C228.048 56.9442 227.304 52.1441 221.36 55.9601C221.36 55.9601 219.384 54.5521 221.36 52.6161C224.8 49.2641 223.6 44.8561 222.92 42.3041Z" fill="#263238"/>
<path d="M221.489 41.6002C221.489 41.6002 219.145 49.2642 223.457 48.8962C227.769 48.5282 225.121 40.5282 225.121 40.5282L221.489 41.6002Z" fill="#263238"/>
<path d="M210.152 37.6002C210.152 37.6002 207.336 35.5282 208.056 34.0242C208.776 32.5202 209.896 36.1522 215.504 35.4882C221.112 34.8242 227.768 34.3202 229 38.0402C230.232 41.7602 217.8 38.9282 217.8 38.9282L210.136 40.5762L210.152 37.6002Z" fill="#263238"/>
<path d="M209.177 129.168L203.761 127.64C203.761 127.64 197.361 127.248 196.825 129.688C196.289 132.128 196.025 136.336 198.569 136.672C201.113 137.008 209.033 136.512 209.033 136.512L209.177 129.168Z" fill="#FFD2D2"/>
<path d="M227.656 92.0004L236.385 84.2084C236.385 84.2084 247.192 108.208 247.8 117.432C248.408 126.656 241.28 130.8 235.24 132.352C229.2 133.904 209.184 138.04 209.184 138.04L208.104 126.904C208.104 126.904 229.424 123.264 237.632 119.496C237.6 119.52 230.216 98.0404 227.656 92.0004Z" fill="#4DB1C8"/>
<path opacity="0.1" d="M209.185 138.064L229.361 133.752L229.417 136.792L209.185 138.064Z" fill="black"/>
<path d="M211.601 82.8722L213.897 88.9362C217.544 86.2506 220.901 83.1913 223.913 79.8082L220.585 74.2642C220.585 74.2642 217.537 80.3282 211.601 82.8722Z" fill="#FAFAFA"/>
<path d="M209.92 76.2402C209.987 78.5474 210.56 80.8117 211.6 82.8722L209.096 88.4722C207.829 87.1884 206.863 85.6388 206.268 83.9356C205.673 82.2323 205.464 80.4181 205.656 78.6242L209.92 76.2402Z" fill="#FAFAFA"/>
</svg>
