<svg width="355" height="292" viewBox="0 0 355 292" fill="none" xmlns="http://www.w3.org/2000/svg">
<path d="M355 257.983H0V258.172H355V257.983Z" fill="#EBEBEB"/>
<path d="M60.7613 265.154H37.2461V265.343H60.7613V265.154Z" fill="#EBEBEB"/>
<path d="M154.701 263.113H121.509V263.302H154.701V263.113Z" fill="#EBEBEB"/>
<path d="M93.7123 270.977H80.0874V271.166H93.7123V270.977Z" fill="#EBEBEB"/>
<path d="M243.204 267.708H221.754V267.897H243.204V267.708Z" fill="#EBEBEB"/>
<path d="M263.24 267.708H249.522V267.897H263.24V267.708Z" fill="#EBEBEB"/>
<path d="M319.437 270.886H277.859V271.075H319.437V270.886Z" fill="#EBEBEB"/>
<path d="M168.27 224.388H31.1759C30.1019 224.386 29.0726 223.932 28.3138 223.126C27.5551 222.32 27.1289 221.227 27.1289 220.087V15.6334C27.1383 14.5005 27.5685 13.4173 28.3263 12.619C29.084 11.8208 30.108 11.3719 31.1759 11.37H168.27C169.345 11.37 170.376 11.8231 171.136 12.6297C171.897 13.4363 172.324 14.5303 172.324 15.671V220.087C172.324 221.228 171.897 222.322 171.136 223.129C170.376 223.935 169.345 224.388 168.27 224.388V224.388ZM31.1759 11.5206C30.149 11.5226 29.1648 11.9568 28.4393 12.7279C27.7139 13.499 27.3064 14.5439 27.3064 15.6334V220.087C27.3064 221.177 27.7139 222.222 28.4393 222.993C29.1648 223.764 30.149 224.198 31.1759 224.2H168.27C169.297 224.198 170.282 223.764 171.009 222.993C171.735 222.223 172.145 221.178 172.146 220.087V15.6334C172.145 14.5432 171.735 13.4983 171.009 12.7274C170.282 11.9566 169.297 11.5226 168.27 11.5206H31.1759Z" fill="#EBEBEB"/>
<path d="M321.85 224.388H184.749C183.675 224.386 182.645 223.933 181.885 223.127C181.125 222.32 180.697 221.228 180.695 220.087V15.6334C180.707 14.4998 181.138 13.4166 181.897 12.6186C182.656 11.8205 183.681 11.3719 184.749 11.37H321.85C322.917 11.3739 323.939 11.8236 324.695 12.6217C325.452 13.4197 325.881 14.5018 325.89 15.6334V220.087C325.89 221.226 325.465 222.317 324.708 223.123C323.951 223.93 322.923 224.384 321.85 224.388V224.388ZM184.749 11.5206C183.722 11.5226 182.737 11.9566 182.01 12.7274C181.284 13.4983 180.875 14.5432 180.873 15.6334V220.087C180.875 221.178 181.284 222.223 182.01 222.993C182.737 223.764 183.722 224.198 184.749 224.2H321.85C322.878 224.198 323.863 223.764 324.59 222.993C325.316 222.223 325.725 221.178 325.727 220.087V15.6334C325.725 14.5432 325.316 13.4983 324.59 12.7274C323.863 11.9566 322.878 11.5226 321.85 11.5206H184.749Z" fill="#EBEBEB"/>
<path d="M207.923 40.061H48.7412V145.742H207.923V40.061Z" fill="#F0F0F0"/>
<path d="M204.814 140.778V45.0326L51.8587 45.0326V140.778H204.814Z" fill="#FAFAFA"/>
<path d="M71.9873 140.77L87.6783 45.025H99.2513L83.5603 140.77H71.9873Z" fill="white"/>
<path d="M86.2295 140.77L101.92 45.025H107.096L91.4054 140.77H86.2295Z" fill="white"/>
<path d="M111.548 140.77L127.239 45.025H138.805L123.114 140.77H111.548Z" fill="white"/>
<path d="M140.715 140.77L156.406 45.025H161.582L145.891 140.77H140.715Z" fill="white"/>
<path d="M92.8325 140.77V45.025H92.0444V140.77H92.8325Z" fill="#E0E0E0"/>
<path d="M52.6465 140.77L52.6465 45.025H51.8584L51.8584 140.77H52.6465Z" fill="#E0E0E0"/>
<path d="M92.0449 140.77V45.025H88.928V140.77H92.0449Z" fill="#F0F0F0"/>
<path d="M131.45 140.778V45.0326H130.662V140.778H131.45Z" fill="#E0E0E0"/>
<path d="M130.654 140.778V45.0326H127.537V140.778H130.654Z" fill="#F0F0F0"/>
<path d="M170.08 140.77V45.025H169.292V140.77H170.08Z" fill="#E0E0E0"/>
<path d="M169.293 140.77V45.025H166.177V140.77H169.293Z" fill="#F0F0F0"/>
<path d="M208.711 145.742V40.061H207.923V145.742H208.711Z" fill="#E0E0E0"/>
<path d="M224.098 32.7999H41.6704C41.3973 32.798 41.1357 32.6825 40.9419 32.4783C40.7481 32.2742 40.6375 31.9975 40.6338 31.7077V31.7077C40.6338 31.4154 40.7428 31.1349 40.937 30.9274C41.1312 30.72 41.3948 30.6025 41.6704 30.6005H224.098C224.235 30.6005 224.371 30.6291 224.497 30.6848C224.624 30.7404 224.739 30.822 224.836 30.9248C224.933 31.0276 225.01 31.1497 225.062 31.284C225.114 31.4183 225.141 31.5623 225.141 31.7077V31.7077C225.138 31.9988 225.026 32.2766 224.831 32.481C224.635 32.6854 224.372 32.8 224.098 32.7999V32.7999Z" fill="#E0E0E0"/>
<g opacity="0.8">
<path opacity="0.8" d="M113.444 28.4686H44.2266V171.156H113.444V28.4686Z" fill="#F5F5F5"/>
<path opacity="0.8" d="M71.3481 172.73H65.5474L67.1804 30.0427H69.7719L71.3481 172.73Z" fill="#E6E6E6"/>
<path opacity="0.8" d="M58.554 172.73H55.7495L56.5376 30.0427H57.7872L58.554 172.73Z" fill="#E6E6E6"/>
<path opacity="0.8" d="M88.1746 172.73H85.3701L86.1582 30.0427H87.4078L88.1746 172.73Z" fill="#E6E6E6"/>
<path opacity="0.8" d="M102.425 172.73H99.6274L100.408 30.0427H101.665L102.425 172.73Z" fill="#E6E6E6"/>
</g>
<g opacity="0.8">
<path opacity="0.8" d="M220.526 28.4611H185.92V171.149H220.526V28.4611Z" fill="#F5F5F5"/>
<path opacity="0.8" d="M199.481 172.723H196.584L197.394 30.043H198.693L199.481 172.723Z" fill="#E6E6E6"/>
<path opacity="0.8" d="M193.084 172.723H191.686L192.076 30.043H192.701L193.084 172.723Z" fill="#E6E6E6"/>
<path opacity="0.8" d="M207.895 172.723H206.496L206.887 30.043H207.511L207.895 172.723Z" fill="#E6E6E6"/>
<path opacity="0.8" d="M215.016 172.723H213.617L214.015 30.043H214.64L215.016 172.723Z" fill="#E6E6E6"/>
</g>
<path d="M184.096 256.695H190.756V184.67H184.096V256.695Z" fill="#F0F0F0"/>
<path d="M45.6038 184.677L192.375 184.677V180.369L45.6038 180.369V184.677Z" fill="#F0F0F0"/>
<path d="M49.9404 257.983H188.042V256.695H49.9404V257.983Z" fill="#F0F0F0"/>
<path d="M184.096 184.67H47.229V256.695H184.096V184.67Z" fill="#FAFAFA"/>
<path d="M178.551 192.692H52.7891V214.792H178.551V192.692Z" fill="#F0F0F0"/>
<path d="M178.551 225.202H52.7891V247.302H178.551V225.202Z" fill="#F0F0F0"/>
<path d="M72.0372 194.831H159.296C160.01 194.831 160.588 194.217 160.588 193.46V192.767C160.588 192.01 160.01 191.396 159.296 191.396H72.0372C71.3235 191.396 70.745 192.01 70.745 192.767V193.46C70.745 194.217 71.3235 194.831 72.0372 194.831Z" fill="#FAFAFA"/>
<path d="M72.0372 227.326H159.296C160.01 227.326 160.588 226.713 160.588 225.955V225.262C160.588 224.505 160.01 223.891 159.296 223.891H72.0372C71.3235 223.891 70.745 224.505 70.745 225.262V225.955C70.745 226.713 71.3235 227.326 72.0372 227.326Z" fill="#FAFAFA"/>
<path d="M295.074 254.63C299.285 250.162 299.285 242.917 295.074 238.449C290.862 233.981 284.033 233.981 279.821 238.449C275.61 242.917 275.61 250.162 279.821 254.63C284.033 259.098 290.862 259.098 295.074 254.63Z" fill="#EBEBEB"/>
<path d="M304.008 257.976C311.439 257.976 317.463 251.585 317.463 243.702C317.463 235.818 311.439 229.428 304.008 229.428C296.577 229.428 290.554 235.818 290.554 243.702C290.554 251.585 296.577 257.976 304.008 257.976Z" fill="#F5F5F5"/>
<path d="M236.36 137.02H312.181V36.6267L236.36 36.6267V137.02Z" fill="#E6E6E6"/>
<path d="M233.03 137.02H311.044V36.6267L233.03 36.6267V137.02Z" fill="#F5F5F5"/>
<path d="M308.666 134.217V39.4285L235.401 39.4285V134.217H308.666Z" fill="#FAFAFA"/>
<path d="M272.037 103.643C285.863 103.643 297.071 91.7517 297.071 77.0833C297.071 62.4149 285.863 50.5238 272.037 50.5238C258.21 50.5238 247.002 62.4149 247.002 77.0833C247.002 91.7517 258.21 103.643 272.037 103.643Z" fill="white"/>
<path d="M236.089 134.217V39.4285H235.408V134.217H236.089Z" fill="#E6E6E6"/>
<path d="M298.591 71.4113C294.962 69.3098 290.007 71.0648 288.068 71.7578C286.13 72.4508 281.203 74.3791 279.641 71.0046C278.93 69.5123 277.843 68.2584 276.5 67.3824C275.158 66.5064 273.613 66.0426 272.037 66.0426C270.46 66.0426 268.915 66.5064 267.573 67.3824C266.23 68.2584 265.143 69.5123 264.432 71.0046C262.87 74.3716 257.943 72.4508 256.005 71.7578C254.066 71.0648 249.104 69.3098 245.483 71.4113C241.862 73.5129 244.773 79.1924 248.188 81.6555C251.603 84.1186 255.77 79.3958 251.908 78.3261C248.046 77.2565 246.228 76.5334 246.739 74.0176C247.25 71.5017 252.263 72.0968 256.161 73.0007L257.056 73.2191C259.559 73.8624 261.811 75.3185 263.498 77.3844C265.184 79.4503 266.221 82.023 266.463 84.7438V84.8116C266.669 87.1693 266.364 92.0352 266.25 94.6641C266.136 97.2929 268.288 103.296 268.472 105.398C268.657 107.499 272.022 107.537 272.022 107.537C272.022 107.537 275.395 107.447 275.572 105.398C275.75 103.349 277.908 97.2101 277.802 94.6641C277.695 92.1181 277.383 87.1316 277.589 84.8116V84.7363C277.833 82.0148 278.873 79.4423 280.562 77.3777C282.251 75.313 284.505 73.8592 287.01 73.2191L287.891 73.0007C291.789 72.0968 296.83 71.4942 297.313 74.0176C297.795 76.5409 296.006 77.249 292.144 78.3261C288.281 79.4033 292.435 84.1111 295.864 81.6555C299.293 79.1999 302.212 73.5054 298.591 71.4113Z" fill="#F0F0F0"/>
<path opacity="0.9" d="M299.968 74.1985C299.955 73.6708 299.807 73.1568 299.54 72.712C299.272 72.2672 298.894 71.9086 298.448 71.6751C297.219 71.009 295.852 70.6801 294.472 70.7185C292.315 70.8022 290.184 71.2523 288.16 72.0517L287.94 72.127H287.898C285.607 73.0843 283.13 73.4309 280.684 73.1364C278.625 72.7748 275.437 71.9689 272.036 71.9689C268.635 71.9689 265.447 72.7748 263.41 73.1364C260.967 73.4353 258.492 73.0939 256.203 72.1421H256.161L255.94 72.0668C253.917 71.2682 251.786 70.8181 249.629 70.7335C248.249 70.6951 246.882 71.024 245.653 71.6902C245.206 71.9237 244.829 72.2822 244.561 72.727C244.293 73.1718 244.145 73.6859 244.133 74.2135C244.02 76.7369 246.206 79.8554 248.393 81.4146C248.96 81.8336 249.634 82.0596 250.324 82.0624C251.83 82.0624 253.086 80.9928 253.2 80.0361C253.278 79.3959 252.809 78.8987 251.872 78.6351C248.18 77.6107 245.944 76.8348 246.497 73.9725C246.76 72.6167 248.13 71.9312 250.573 71.9312C252.485 71.9829 254.388 72.2352 256.253 72.6844L257.155 72.9104C262.401 74.2587 270.645 78.9967 271.12 84.6988V84.7665C271.298 86.7401 271.695 85.3465 271.56 88.0432C271.56 88.6081 271.511 89.1278 271.489 89.5497C271.426 91.0034 268.649 93.7227 269.31 96.1255C269.764 97.858 270.162 104.411 270.24 105.33C270.269 105.82 270.472 106.279 270.809 106.615C271.146 106.951 271.591 107.138 272.054 107.138C272.516 107.138 272.961 106.951 273.298 106.615C273.635 106.279 273.839 105.82 273.868 105.33C273.946 104.441 274.344 97.858 274.805 96.1255C275.437 93.7227 272.675 91.0034 272.618 89.5497C272.618 89.0977 272.576 88.578 272.547 88.0432C272.412 85.3465 272.817 86.7401 272.988 84.7665V84.6912C273.499 78.9891 281.721 74.2512 286.975 72.9029L287.862 72.6844C289.727 72.2342 291.63 71.9819 293.542 71.9312C295.984 71.9312 297.355 72.6167 297.617 73.9725C298.164 76.8348 295.928 77.6107 292.236 78.6351C291.306 78.8987 290.816 79.3884 290.908 80.0361C291.029 80.9928 292.278 82.0624 293.748 82.0624C294.441 82.0597 295.117 81.8338 295.686 81.4146C297.894 79.8403 300.074 76.7219 299.968 74.1985Z" fill="#E0E0E0"/>
<path d="M264.51 78.4919C264.446 79.0794 264.397 80.2394 262.565 81.776C261.28 82.8532 257.73 83.1545 256.31 82.1752C256.287 82.0644 256.248 81.9578 256.196 81.8589C256.238 81.7332 256.26 81.6007 256.26 81.4672C256.26 81.3 256.225 81.1348 256.157 80.9837C256.09 80.8326 255.991 80.6993 255.869 80.5934C255.915 80.4605 255.939 80.3205 255.94 80.1791C255.941 79.8936 255.838 79.6188 255.653 79.4114C255.468 79.204 255.215 79.0798 254.946 79.0643C254.95 78.9966 254.95 78.9287 254.946 78.861C254.947 78.7133 254.921 78.5669 254.868 78.4303C254.815 78.2936 254.737 78.1695 254.639 78.0651C254.54 77.9607 254.423 77.8781 254.294 77.822C254.166 77.766 254.028 77.7376 253.889 77.7386C253.767 77.7386 253.647 77.7615 253.534 77.8064C253.456 77.5955 253.321 77.4143 253.144 77.2866C252.968 77.1589 252.76 77.0906 252.547 77.0908C252.365 77.093 252.188 77.1439 252.03 77.2387C251.872 77.3335 251.74 77.4693 251.645 77.6332C251.547 77.5035 251.423 77.399 251.281 77.3272C251.14 77.2555 250.985 77.2185 250.828 77.2189C250.548 77.2189 250.279 77.3371 250.08 77.5476C249.882 77.7581 249.771 78.0436 249.771 78.3412C249.77 78.4458 249.785 78.5499 249.813 78.65C249.59 78.7264 249.397 78.8793 249.265 79.0846C249.132 79.2899 249.068 79.536 249.082 79.7843C249.096 80.0326 249.187 80.269 249.341 80.4563C249.495 80.6437 249.704 80.7714 249.934 80.8194C249.891 80.9371 249.869 81.0623 249.87 81.1885C249.87 81.4862 249.981 81.7716 250.18 81.9821C250.378 82.1926 250.647 82.3108 250.928 82.3108C251.146 82.3106 251.359 82.2396 251.538 82.1075C251.507 82.2097 251.49 82.3163 251.489 82.4238C251.489 82.7215 251.6 83.007 251.799 83.2174C251.997 83.4279 252.266 83.5462 252.547 83.5462C252.808 83.5508 253.061 83.4513 253.257 83.2675C253.342 83.465 253.479 83.6324 253.652 83.7499C253.824 83.8674 254.024 83.93 254.229 83.9303C254.386 83.9307 254.541 83.8937 254.682 83.8219C254.823 83.7502 254.948 83.6457 255.046 83.516C255.126 83.5275 255.207 83.5275 255.287 83.516H255.365L255.607 83.6591C255.961 83.8607 256.338 84.015 256.729 84.1186C257.778 84.3921 258.873 84.4101 259.931 84.1713C260.998 83.9384 261.974 83.3717 262.735 82.5443C263.363 81.805 264.102 81.1813 264.922 80.6989C265.133 80.5994 265.355 80.5286 265.582 80.488C265.604 79.7799 265.284 78.7329 264.51 78.4919Z" fill="#FAFAFA"/>
<path d="M294.948 79.7121C294.949 79.4777 294.881 79.2488 294.754 79.0572C294.627 78.8655 294.447 78.7206 294.238 78.6425C294.267 78.5423 294.281 78.4382 294.281 78.3336C293.291 78.0927 292.349 77.6695 291.498 77.0833C291.285 77.0835 291.078 77.1521 290.903 77.2798C290.728 77.4075 290.594 77.5885 290.518 77.7988C290.402 77.7532 290.279 77.7302 290.156 77.731C289.875 77.731 289.606 77.8493 289.408 78.0598C289.209 78.2702 289.098 78.5557 289.098 78.8534C289.091 78.921 289.091 78.9892 289.098 79.0568C288.829 79.0722 288.576 79.1964 288.391 79.4038C288.206 79.6113 288.104 79.886 288.104 80.1716C288.102 80.3132 288.126 80.4539 288.175 80.5858C288.051 80.6903 287.951 80.8231 287.882 80.9744C287.813 81.1257 287.777 81.2916 287.777 81.4596C287.834 81.5702 287.86 81.6958 287.851 81.8214C287.842 81.947 287.799 82.0672 287.728 82.1677C286.308 83.1544 282.793 82.8531 281.501 81.776C279.662 80.2695 279.619 79.0794 279.556 78.4918C278.782 78.7329 278.462 79.7799 278.455 80.503C278.685 80.5435 278.909 80.6143 279.122 80.7139C279.941 81.1965 280.677 81.8202 281.302 82.5594C282.073 83.3922 283.063 83.9592 284.142 84.1864C285.2 84.4251 286.294 84.4071 287.344 84.1337C287.735 84.03 288.111 83.8757 288.466 83.6742L288.7 83.531H288.786C288.863 83.543 288.942 83.543 289.02 83.531C289.402 83.3141 289.829 83.2006 290.262 83.2006C290.696 83.2006 291.123 83.3141 291.505 83.531C291.785 83.531 292.055 83.4128 292.253 83.2023C292.451 82.9918 292.563 82.7064 292.563 82.4087C292.564 82.3016 292.549 82.1949 292.52 82.0923C292.679 82.2091 292.864 82.2777 293.057 82.2906C293.249 82.3036 293.442 82.2604 293.613 82.1658C293.784 82.0711 293.927 81.9286 294.028 81.7537C294.128 81.5788 294.181 81.3781 294.182 81.1734C294.181 81.0479 294.162 80.9233 294.125 80.8043C294.358 80.748 294.567 80.6093 294.717 80.4109C294.866 80.2125 294.948 79.9662 294.948 79.7121V79.7121Z" fill="#FAFAFA"/>
<path d="M292.556 122.61H251.511C250.877 122.608 250.269 122.34 249.821 121.864C249.373 121.388 249.12 120.744 249.118 120.071V120.071C249.12 119.399 249.373 118.754 249.821 118.278C250.269 117.803 250.877 117.535 251.511 117.533H292.556C293.19 117.535 293.797 117.803 294.246 118.278C294.694 118.754 294.947 119.399 294.949 120.071C294.947 120.744 294.694 121.388 294.246 121.864C293.797 122.34 293.19 122.608 292.556 122.61Z" fill="white"/>
<path d="M177.499 292C253.528 292 315.161 288.182 315.161 283.473C315.161 278.764 253.528 274.947 177.499 274.947C101.471 274.947 39.8374 278.764 39.8374 283.473C39.8374 288.182 101.471 292 177.499 292Z" fill="#F5F5F5"/>
<path d="M139.074 177.521H136.206V272.137H139.074V177.521Z" fill="#4DB1C8"/>
<path opacity="0.8" d="M139.074 177.521H136.206V272.137H139.074V177.521Z" fill="white"/>
<path d="M133.338 272.144H136.206V177.529H133.338V272.144Z" fill="#4DB1C8"/>
<path opacity="0.7" d="M133.338 272.144H136.206V177.529H133.338V272.144Z" fill="white"/>
<path d="M136.206 277.545C137.441 277.545 138.443 276.483 138.443 275.172C138.443 273.862 137.441 272.8 136.206 272.8C134.971 272.8 133.97 273.862 133.97 275.172C133.97 276.483 134.971 277.545 136.206 277.545Z" fill="#263238"/>
<path d="M138.712 272.144H133.7V273.169H138.712V272.144Z" fill="#263238"/>
<path d="M192.183 177.521V170.373H137.137V177.521H192.183Z" fill="#4DB1C8"/>
<path opacity="0.8" d="M192.183 177.521V170.373H137.137V177.521H192.183Z" fill="white"/>
<path d="M137.136 177.521V170.373H120.416V177.521H137.136Z" fill="#4DB1C8"/>
<path opacity="0.7" d="M137.136 177.521V170.373H120.416V177.521H137.136Z" fill="white"/>
<path d="M127.551 177.521H124.683V272.137H127.551V177.521Z" fill="#4DB1C8"/>
<path opacity="0.8" d="M127.551 177.521H124.683V272.137H127.551V177.521Z" fill="white"/>
<path d="M121.807 272.144H124.676L124.676 177.529H121.807L121.807 272.144Z" fill="#4DB1C8"/>
<path opacity="0.7" d="M121.807 272.144H124.676L124.676 177.529H121.807L121.807 272.144Z" fill="white"/>
<path d="M124.683 277.545C125.918 277.545 126.919 276.483 126.919 275.172C126.919 273.862 125.918 272.8 124.683 272.8C123.448 272.8 122.446 273.862 122.446 275.172C122.446 276.483 123.448 277.545 124.683 277.545Z" fill="#263238"/>
<path d="M127.189 272.144H122.176V273.169H127.189V272.144Z" fill="#263238"/>
<path d="M190.578 177.521H187.709V272.137H190.578V177.521Z" fill="#4DB1C8"/>
<path opacity="0.8" d="M190.578 177.521H187.709V272.137H190.578V177.521Z" fill="white"/>
<path d="M184.841 272.144H187.709V177.529H184.841V272.144Z" fill="#4DB1C8"/>
<path opacity="0.7" d="M184.841 272.144H187.709V177.529H184.841V272.144Z" fill="white"/>
<path d="M189.946 275.172C189.946 275.642 189.814 276.1 189.569 276.49C189.323 276.881 188.974 277.185 188.565 277.364C188.156 277.544 187.707 277.591 187.273 277.499C186.839 277.408 186.44 277.182 186.128 276.85C185.815 276.518 185.602 276.095 185.516 275.635C185.429 275.175 185.474 274.698 185.643 274.264C185.812 273.831 186.099 273.46 186.467 273.199C186.834 272.939 187.267 272.8 187.709 272.8C188.302 272.802 188.87 273.052 189.289 273.497C189.708 273.941 189.944 274.544 189.946 275.172V275.172Z" fill="#263238"/>
<path d="M190.216 272.144H185.204V273.169H190.216V272.144Z" fill="#263238"/>
<path d="M179.054 177.521H176.186V272.137H179.054V177.521Z" fill="#4DB1C8"/>
<path opacity="0.8" d="M179.054 177.521H176.186V272.137H179.054V177.521Z" fill="white"/>
<path d="M173.318 272.144H176.186V177.529H173.318V272.144Z" fill="#4DB1C8"/>
<path opacity="0.7" d="M173.318 272.144H176.186V177.529H173.318V272.144Z" fill="white"/>
<path d="M178.423 275.172C178.425 275.644 178.294 276.105 178.048 276.498C177.802 276.89 177.452 277.196 177.041 277.377C176.631 277.559 176.18 277.606 175.744 277.515C175.308 277.423 174.907 277.196 174.593 276.863C174.279 276.53 174.065 276.105 173.979 275.642C173.892 275.18 173.937 274.701 174.108 274.265C174.279 273.83 174.568 273.459 174.938 273.198C175.308 272.937 175.742 272.798 176.187 272.8C176.779 272.802 177.347 273.052 177.766 273.497C178.185 273.941 178.421 274.544 178.423 275.172V275.172Z" fill="#263238"/>
<path d="M178.693 272.144H173.68V273.169H178.693V272.144Z" fill="#263238"/>
<path d="M135.198 222.95V218.671H122.446V222.95H135.198Z" fill="#4DB1C8"/>
<path opacity="0.7" d="M135.198 222.95V218.671H122.446V222.95H135.198Z" fill="white"/>
<path d="M189.705 222.935V218.656H137.641V222.935H189.705Z" fill="#4DB1C8"/>
<path opacity="0.8" d="M189.705 222.935V218.656H137.641V222.935H189.705Z" fill="white"/>
<path d="M157.727 206.499H151.969C151.275 206.499 150.712 207.096 150.712 207.832V217.33C150.712 218.067 151.275 218.664 151.969 218.664H157.727C158.421 218.664 158.983 218.067 158.983 217.33V207.832C158.983 207.096 158.421 206.499 157.727 206.499Z" fill="#4DB1C8"/>
<path opacity="0.3" d="M157.727 206.499H151.969C151.275 206.499 150.712 207.096 150.712 207.832V217.33C150.712 218.067 151.275 218.664 151.969 218.664H157.727C158.421 218.664 158.983 218.067 158.983 217.33V207.832C158.983 207.096 158.421 206.499 157.727 206.499Z" fill="white"/>
<path d="M158.983 209.979H156.129V216.087H158.983V209.979Z" fill="white"/>
<path d="M155.334 209.979H152.48V216.087H155.334V209.979Z" fill="white"/>
<path d="M157.485 204.849H152.203C151.995 204.849 151.827 205.028 151.827 205.248V206.092C151.827 206.312 151.995 206.491 152.203 206.491H157.485C157.693 206.491 157.862 206.312 157.862 206.092V205.248C157.862 205.028 157.693 204.849 157.485 204.849Z" fill="#4DB1C8"/>
<path d="M150.087 205.452H143.831C143.079 205.452 142.468 206.099 142.468 206.898V217.217C142.468 218.016 143.079 218.664 143.831 218.664H150.087C150.839 218.664 151.45 218.016 151.45 217.217V206.898C151.45 206.099 150.839 205.452 150.087 205.452Z" fill="#4DB1C8"/>
<path opacity="0.5" d="M150.087 205.452H143.831C143.079 205.452 142.468 206.099 142.468 206.898V217.217C142.468 218.016 143.079 218.664 143.831 218.664H150.087C150.839 218.664 151.45 218.016 151.45 217.217V206.898C151.45 206.099 150.839 205.452 150.087 205.452Z" fill="white"/>
<path d="M150.505 209.233H145.4V215.869H150.505V209.233Z" fill="white"/>
<path d="M149.832 203.659H144.095C143.867 203.659 143.683 203.855 143.683 204.096V205.007C143.683 205.249 143.867 205.444 144.095 205.444H149.832C150.059 205.444 150.244 205.249 150.244 205.007V204.096C150.244 203.855 150.059 203.659 149.832 203.659Z" fill="#4DB1C8"/>
<path d="M147.524 157.869H128.354V170.373H147.524V157.869Z" fill="#4DB1C8"/>
<path opacity="0.2" d="M134.772 170.373H147.523V157.869H134.772V170.373Z" fill="white"/>
<path opacity="0.5" d="M128.353 163.029H147.523V157.861H128.353V163.029Z" fill="white"/>
<path opacity="0.5" d="M128.353 165.206H147.523V164.121H128.353V165.206Z" fill="white"/>
<path d="M146.501 166.351H135.794V169.228H146.501V166.351Z" fill="white"/>
<path d="M172.196 165.492C172.088 165.394 172.02 165.255 172.006 165.104C171.993 164.954 172.036 164.804 172.125 164.686L177.805 157.47C177.898 157.352 178.03 157.279 178.174 157.265C178.318 157.25 178.461 157.297 178.572 157.394C178.681 157.492 178.749 157.632 178.762 157.782C178.775 157.933 178.733 158.083 178.643 158.2L172.963 165.417C172.87 165.534 172.738 165.608 172.594 165.622C172.451 165.636 172.308 165.589 172.196 165.492V165.492Z" fill="#4DB1C8"/>
<path d="M174.042 165.536C173.932 165.438 173.862 165.298 173.849 165.145C173.836 164.993 173.88 164.841 173.971 164.723L179.651 157.514C179.696 157.456 179.751 157.407 179.814 157.371C179.877 157.336 179.945 157.314 180.016 157.307C180.087 157.3 180.159 157.308 180.226 157.33C180.294 157.353 180.357 157.39 180.411 157.439V157.439C180.466 157.486 180.512 157.545 180.546 157.612C180.58 157.678 180.6 157.751 180.607 157.826C180.614 157.901 180.606 157.977 180.584 158.049C180.563 158.121 180.528 158.188 180.482 158.245L174.802 165.461C174.71 165.576 174.579 165.649 174.437 165.663C174.295 165.677 174.153 165.631 174.042 165.536Z" fill="#4DB1C8"/>
<path d="M175.597 165.951C175.542 165.903 175.496 165.844 175.462 165.777C175.428 165.71 175.407 165.636 175.401 165.56C175.394 165.485 175.402 165.408 175.423 165.336C175.445 165.263 175.48 165.196 175.526 165.138L181.206 157.929C181.251 157.871 181.306 157.822 181.369 157.786C181.431 157.751 181.5 157.729 181.571 157.722C181.642 157.715 181.713 157.723 181.781 157.745C181.849 157.768 181.912 157.805 181.966 157.854V157.854C182.076 157.951 182.145 158.09 182.159 158.241C182.172 158.393 182.128 158.543 182.037 158.66L176.357 165.876C176.265 165.993 176.134 166.066 175.992 166.081C175.849 166.095 175.707 166.048 175.597 165.951V165.951Z" fill="#4DB1C8"/>
<path d="M168.603 164.226C165.976 164.226 163.009 163.42 160.389 162.72C158.493 162.2 155.632 161.424 155.227 161.869C155.227 161.869 155.149 162.072 155.419 162.758C155.463 162.85 155.489 162.951 155.494 163.054C155.5 163.158 155.486 163.261 155.452 163.358C155.418 163.456 155.366 163.544 155.299 163.619C155.231 163.694 155.15 163.753 155.06 163.793C154.97 163.833 154.873 163.853 154.775 163.852C154.678 163.85 154.581 163.827 154.492 163.784C154.403 163.742 154.324 163.68 154.258 163.603C154.193 163.526 154.143 163.436 154.112 163.338C153.956 162.938 153.473 161.726 154.155 160.882C155.099 159.722 157.343 160.332 160.744 161.259C163.278 161.952 166.154 162.765 168.603 162.765C171.053 162.765 173.921 162.012 176.463 161.259C179.864 160.332 182.143 159.752 183.052 160.882C183.762 161.726 183.251 162.938 183.087 163.338C183.017 163.524 182.879 163.674 182.705 163.753C182.53 163.832 182.333 163.834 182.157 163.759C181.981 163.684 181.84 163.538 181.766 163.353C181.691 163.168 181.689 162.959 181.76 162.773C182.037 162.087 181.951 161.876 181.951 161.876C181.547 161.439 178.685 162.215 176.797 162.735C174.198 163.42 171.223 164.226 168.603 164.226Z" fill="#4DB1C8"/>
<path opacity="0.5" d="M168.603 164.226C165.976 164.226 163.009 163.42 160.389 162.72C158.493 162.2 155.632 161.424 155.227 161.869C155.227 161.869 155.149 162.072 155.419 162.758C155.463 162.85 155.489 162.951 155.494 163.054C155.5 163.158 155.486 163.261 155.452 163.358C155.418 163.456 155.366 163.544 155.299 163.619C155.231 163.694 155.15 163.753 155.06 163.793C154.97 163.833 154.873 163.853 154.775 163.852C154.678 163.85 154.581 163.827 154.492 163.784C154.403 163.742 154.324 163.68 154.258 163.603C154.193 163.526 154.143 163.436 154.112 163.338C153.956 162.938 153.473 161.726 154.155 160.882C155.099 159.722 157.343 160.332 160.744 161.259C163.278 161.952 166.154 162.765 168.603 162.765C171.053 162.765 173.921 162.012 176.463 161.259C179.864 160.332 182.143 159.752 183.052 160.882C183.762 161.726 183.251 162.938 183.087 163.338C183.017 163.524 182.879 163.674 182.705 163.753C182.53 163.832 182.333 163.834 182.157 163.759C181.981 163.684 181.84 163.538 181.766 163.353C181.691 163.168 181.689 162.959 181.76 162.773C182.037 162.087 181.951 161.876 181.951 161.876C181.547 161.439 178.685 162.215 176.797 162.735C174.198 163.42 171.223 164.226 168.603 164.226Z" fill="white"/>
<path d="M168.604 163.473C162.107 163.473 152.842 158.201 154.766 163.036C156.69 167.872 161.986 170.373 168.604 170.373C175.221 170.373 180.51 167.887 182.434 163.036C184.358 158.185 175.1 163.473 168.604 163.473Z" fill="#4DB1C8"/>
<path d="M130.463 105.3C130.52 105.633 130.686 105.935 130.932 106.151L133.062 108.064C133.264 108.243 133.509 108.36 133.77 108.399C134.031 108.439 134.297 108.402 134.538 108.29L136.668 107.273C138.751 106.287 140.607 104.832 142.107 103.01L142.611 102.407C142.814 102.161 142.968 101.874 143.065 101.563C143.161 101.253 143.199 100.925 143.175 100.599C143.152 100.273 143.067 99.9553 142.926 99.6644C142.785 99.3735 142.591 99.1152 142.355 98.9046L140.169 96.9537C139.75 96.5769 139.219 96.37 138.671 96.37C138.122 96.37 137.591 96.5769 137.172 96.9537L134.624 99.2737C134.624 99.2737 129.98 102.249 130.463 105.3Z" fill="#FFB573"/>
<path d="M129.085 106.49C129.161 105.334 129.401 104.196 129.795 103.116C131.598 102.761 136.114 106.724 136.71 108.388C136.327 109.307 134.154 111.145 134.154 111.145C132.77 109.548 130.164 107.627 129.085 106.49Z" fill="#E0E0E0"/>
<path d="M110.546 94.099C111.171 96.3587 111.853 98.6185 112.541 100.878C113.23 103.138 113.961 105.398 114.671 107.657C115.381 109.917 116.176 112.071 116.986 114.143C117.391 115.182 117.809 116.184 118.228 117.073C118.427 117.517 118.633 117.902 118.803 118.233L118.91 118.421L118.96 118.512C118.96 118.512 118.995 118.58 118.96 118.512C118.908 118.441 118.842 118.382 118.768 118.339L118.328 117.954C118.147 117.85 117.954 117.774 117.753 117.728C117.551 117.685 117.344 117.685 117.142 117.728C116.929 117.819 117.298 117.774 117.781 117.465C119.11 116.537 120.306 115.411 121.331 114.12C122.604 112.582 123.79 110.965 124.881 109.277C125.449 108.418 126.01 107.529 126.542 106.633L127.338 105.285L128.048 103.974L137.093 108.946C136.795 109.586 136.553 110.083 136.277 110.64L135.545 112.305C134.991 113.365 134.414 114.417 133.813 115.461C132.59 117.607 131.248 119.675 129.794 121.653C129.011 122.704 128.174 123.71 127.288 124.666C126.288 125.762 125.19 126.751 124.008 127.619C122.437 128.799 120.637 129.589 118.74 129.931C117.473 130.133 116.181 130.077 114.934 129.765C113.687 129.442 112.509 128.872 111.462 128.086H111.427C111.292 127.98 111.143 127.852 111.015 127.732C110.745 127.468 110.482 127.189 110.227 126.903C109.971 126.617 109.865 126.459 109.687 126.225L109.439 125.894L109.247 125.615L108.871 125.042C108.437 124.342 108.061 123.679 107.727 123.054C107.06 121.796 106.499 120.598 105.967 119.416C104.902 117.05 103.964 114.73 103.056 112.41C102.147 110.09 101.295 107.778 100.457 105.458C99.6193 103.138 98.8169 100.841 98.0146 98.4377L110.546 94.099Z" fill="#4DB1C8"/>
<path opacity="0.6" d="M110.546 94.099C111.171 96.3587 111.853 98.6185 112.541 100.878C113.23 103.138 113.961 105.398 114.671 107.657C115.381 109.917 116.176 112.071 116.986 114.143C117.391 115.182 117.809 116.184 118.228 117.073C118.427 117.517 118.633 117.902 118.803 118.233L118.91 118.421L118.96 118.512C118.96 118.512 118.995 118.58 118.96 118.512C118.908 118.441 118.842 118.382 118.768 118.339L118.328 117.954C118.147 117.85 117.954 117.774 117.753 117.728C117.551 117.685 117.344 117.685 117.142 117.728C116.929 117.819 117.298 117.774 117.781 117.465C119.11 116.537 120.306 115.411 121.331 114.12C122.604 112.582 123.79 110.965 124.881 109.277C125.449 108.418 126.01 107.529 126.542 106.633L127.338 105.285L128.048 103.974L137.093 108.946C136.795 109.586 136.553 110.083 136.277 110.64L135.545 112.305C134.991 113.365 134.414 114.417 133.813 115.461C132.59 117.607 131.248 119.675 129.794 121.653C129.011 122.704 128.174 123.71 127.288 124.666C126.288 125.762 125.19 126.751 124.008 127.619C122.437 128.799 120.637 129.589 118.74 129.931C117.473 130.133 116.181 130.077 114.934 129.765C113.687 129.442 112.509 128.872 111.462 128.086H111.427C111.292 127.98 111.143 127.852 111.015 127.732C110.745 127.468 110.482 127.189 110.227 126.903C109.971 126.617 109.865 126.459 109.687 126.225L109.439 125.894L109.247 125.615L108.871 125.042C108.437 124.342 108.061 123.679 107.727 123.054C107.06 121.796 106.499 120.598 105.967 119.416C104.902 117.05 103.964 114.73 103.056 112.41C102.147 110.09 101.295 107.778 100.457 105.458C99.6193 103.138 98.8169 100.841 98.0146 98.4377L110.546 94.099Z" fill="white"/>
<path d="M97.0147 209.745C88.6509 181.619 82.1899 147.392 82.1899 147.392L107.331 144.77C107.331 144.77 108.978 188.805 110.547 208.307C112.18 228.584 118.57 275.677 118.57 275.677L110.924 276.34C110.924 276.34 97.7886 234.919 97.0147 209.745Z" fill="#4DB1C8"/>
<path opacity="0.2" d="M91.9949 170.373L88.4946 176.986C90.2838 184.707 92.3783 193.196 94.6645 201.505C94.345 188.466 93.0599 173.401 91.9949 170.373Z" fill="black"/>
<path d="M128.802 277.56C128.802 277.56 117.988 276.611 116.952 274.984L111.137 275.918L112.102 282.418L115.652 281.846L116.121 281.161L117.108 281.612C120.012 281.153 127.694 279.805 129.419 278.818C129.427 278.57 129.374 278.323 129.266 278.103C129.158 277.883 128.998 277.696 128.802 277.56Z" fill="#263238"/>
<path d="M72.5685 207.869C73.0229 178.952 71.2692 159.624 73.6051 145.35L96.5807 144.981C96.5807 144.981 90.9433 190.861 88.1317 209.964C85.3201 229.066 81.7417 276.249 81.7417 276.249H74.6417C74.6417 276.249 68.4647 230.233 72.5685 207.869Z" fill="#4DB1C8"/>
<path d="M88.7506 280.279C88.7506 280.279 81.9346 277.635 81.0329 275.865H75.147L75.5943 282.449H80.3939L80.9122 281.839L81.8707 282.449C84.803 282.449 87.4939 282.328 89.2973 281.628C89.3187 281.372 89.28 281.116 89.1846 280.88C89.0891 280.645 88.94 280.438 88.7506 280.279V280.279Z" fill="#263238"/>
<path d="M74.6357 87.6739C82.7581 86.6043 94.3737 86.7022 102.155 88.1258C104.099 88.5029 105.883 89.5176 107.255 91.0271C108.627 92.5365 109.518 94.4646 109.802 96.5396C111.442 109.013 110.029 130.812 108.985 152.754C91.2355 159.21 72.4418 152.664 72.4418 152.664C71.7957 148.243 73.2512 133.735 74.231 125.992C72.7613 118 69.6515 108.84 67.5925 98.2194C67.3422 97.0306 67.3297 95.7993 67.5559 94.6052C67.7821 93.411 68.242 92.2804 68.9058 91.2866C69.5696 90.2927 70.4225 89.4576 71.4095 88.8354C72.3965 88.2131 73.4956 87.8174 74.6357 87.6739V87.6739Z" fill="white"/>
<path d="M81.8843 71.2078L91.9237 79.2524C90.7309 82.6345 90.3475 86.1522 95.5731 87.5005C96.8795 89.3309 94.5791 91.4325 92.4136 92.3891C88.9275 91.9296 84.0072 90.7018 81.8843 87.5984C82.5517 85.188 82.7789 76.2018 81.8843 71.2078Z" fill="#FFB573"/>
<path d="M94.6218 90.3554C94.2358 91.5341 93.5766 92.5909 92.7048 93.4287C91.2848 93.4287 89.2329 91.7414 89.2329 91.7414C89.2329 91.7414 90.0281 89.3686 91.1499 88.879C94.0112 89.6247 94.6218 90.3554 94.6218 90.3554Z" fill="#263238"/>
<path d="M91.4048 92.5326C91.5966 92.3056 91.8409 92.1355 92.1135 92.039C92.3862 91.9426 92.6778 91.9232 92.9597 91.9828C94.8128 95.6586 97.7167 118.294 98.8527 124.877C98.3628 128.869 97.6315 130.24 96.6517 134.805C95.7571 131.272 94.4791 129.178 93.0591 125.239C93.4638 120.531 91.987 98.5812 91.4048 92.5326Z" fill="#263238"/>
<path opacity="0.2" d="M91.931 79.2523L91.8458 79.1845L86.2368 74.6651C85.6759 74.6651 84.5967 74.6274 85.0582 78.8004C85.3422 81.4593 89.1407 84.3292 91.6399 84.864C90.8234 83.2671 91.221 81.2635 91.9168 79.2975L91.931 79.2523Z" fill="black"/>
<path d="M98.69 61.4232C100.706 64.7526 99.2935 69.8822 97.7457 71.5243C94.927 65.9954 95.6015 59.9092 98.69 61.4232Z" fill="#263238"/>
<path d="M82.6938 64.8507C82.5376 71.065 82.1471 74.7031 84.8238 78.1229C88.8708 83.2751 96.3187 81.0455 98.2286 74.9818C99.9468 69.5283 99.9113 60.2709 94.3875 57.3332C93.1663 56.685 91.8101 56.3758 90.4457 56.4344C89.0812 56.493 87.753 56.9175 86.5852 57.6683C85.4173 58.419 84.4478 59.4716 83.7673 60.7276C83.0868 61.9836 82.7175 63.4022 82.6938 64.8507Z" fill="#FFB573"/>
<path d="M84.1424 69.7465C87.0392 69.4602 87.8699 64.1273 86.1375 59.8488C89.7798 58.8621 93.3085 60.4815 95.7438 61.4382C98.1791 62.3948 101.793 62.5379 101.793 59.3366C100.543 60.0898 98.0939 58.8997 97.8383 57.574C100.479 57.9356 100.749 53.5517 99.2583 52.8436C99.2583 55.1033 92.208 53.6948 88.5018 52.2937C81.487 49.6348 77.4258 53.9283 79.5629 57.8678C74.0675 60.7301 77.4329 66.3041 81.7923 70.673C82.5357 70.2601 83.3253 69.9488 84.1424 69.7465V69.7465Z" fill="#263238"/>
<path d="M85.9098 67.178C85.4625 71.3736 96.7728 73.5731 98.6898 73.3998C99.2862 77.038 101.636 79.4258 99.2649 81.6855C96.8935 83.9453 88.4587 84.5253 85.4767 79.9305C82.4947 75.3357 84.8022 67.5019 84.8022 67.5019L85.9098 67.178Z" fill="#263238"/>
<path d="M94.1108 74.8764C94.4132 74.9021 94.7171 74.9021 95.0196 74.8764C95.0437 74.8729 95.0668 74.8634 95.0869 74.8487C95.107 74.834 95.1236 74.8146 95.1353 74.7919C95.1471 74.7692 95.1536 74.7439 95.1545 74.718C95.1553 74.6921 95.1505 74.6664 95.1403 74.6429C95.1316 74.5975 95.107 74.5574 95.0713 74.5308C95.0356 74.5042 94.9917 74.493 94.9486 74.4997C94.2667 74.5916 93.5741 74.5201 92.9217 74.2907C92.2693 74.0613 91.6736 73.6797 91.1785 73.174C91.148 73.1427 91.1073 73.1252 91.0649 73.1252C91.0225 73.1252 90.9817 73.1427 90.9513 73.174C90.9218 73.2064 90.9053 73.2496 90.9053 73.2946C90.9053 73.3395 90.9218 73.3828 90.9513 73.4151C91.8017 74.2939 92.9251 74.8134 94.1108 74.8764V74.8764Z" fill="#FFB573"/>
<path d="M81.2808 57.7699C78.6041 58.2369 77.7308 55.4197 78.7319 53.2504C74.9689 55.0582 77.9367 59.8488 81.2808 57.7699Z" fill="#263238"/>
<path d="M79.9883 69.1891C80.1499 69.8748 80.4384 70.5196 80.8369 71.086C81.2355 71.6524 81.7362 72.129 82.31 72.4883C83.8578 73.4449 85.0861 72.0966 85.0506 70.3039C85.008 68.6919 84.1631 66.2514 82.4236 66.033C82.0444 65.9908 81.6613 66.0492 81.3088 66.2031C80.9562 66.3569 80.6452 66.6013 80.4037 66.9143C80.1622 67.2272 79.9978 67.5989 79.9253 67.996C79.8528 68.3931 79.8744 68.8031 79.9883 69.1891V69.1891Z" fill="#FFB573"/>
<path d="M91.7958 66.7261C91.7532 67.2308 91.9733 67.6602 92.2857 67.6828C92.5981 67.7054 92.8821 67.3212 92.9247 66.8241C92.9673 66.3269 92.7472 65.89 92.4348 65.8599C92.1224 65.8298 91.8384 66.2215 91.7958 66.7261Z" fill="#263238"/>
<path d="M97.4189 67.6074C97.3763 68.1121 97.5963 68.5414 97.9087 68.564C98.2211 68.5866 98.5051 68.2025 98.5477 67.6978C98.5903 67.1931 98.3702 66.7638 98.0578 66.7412C97.7454 66.7186 97.4615 67.1103 97.4189 67.6074Z" fill="#263238"/>
<path d="M95.8502 68.0066C96.2861 69.6011 96.9315 71.1225 97.7672 72.5261C97.4224 72.7452 97.0369 72.8822 96.6372 72.9277C96.2376 72.9732 95.8334 72.9261 95.4526 72.7897L95.8502 68.0066Z" fill="#ED893E"/>
<path d="M89.5588 64.7827C89.5107 64.7818 89.4638 64.7661 89.4239 64.7375C89.3619 64.6955 89.3176 64.6297 89.3004 64.5539C89.2832 64.478 89.2944 64.398 89.3316 64.3307C89.5542 63.9155 89.8666 63.5623 90.2431 63.3004C90.6196 63.0384 91.0494 62.8752 91.4971 62.8242C91.5638 62.8355 91.6246 62.8717 91.6684 62.9262C91.7123 62.9807 91.7364 63.0501 91.7364 63.1218C91.7364 63.1934 91.7123 63.2628 91.6684 63.3173C91.6246 63.3718 91.5638 63.408 91.4971 63.4193C91.1453 63.4599 90.8075 63.5882 90.5114 63.7937C90.2152 63.9992 89.9691 64.2762 89.7931 64.6019C89.7751 64.6531 89.7432 64.6975 89.7016 64.7296C89.6599 64.7618 89.6103 64.7802 89.5588 64.7827V64.7827Z" fill="#263238"/>
<path d="M99.3996 65.7618C99.3535 65.7628 99.308 65.7516 99.2671 65.7292C99.2262 65.7068 99.1912 65.674 99.1653 65.6337C98.9792 65.3176 98.7224 65.0552 98.4177 64.8699C98.113 64.6846 97.7698 64.5822 97.4187 64.5716C97.3817 64.5726 97.3449 64.5658 97.3105 64.5515C97.2761 64.5372 97.2447 64.5157 97.2182 64.4883C97.1918 64.4609 97.1707 64.4282 97.1564 64.3921C97.142 64.3559 97.1346 64.3171 97.1347 64.2779C97.1327 64.239 97.1383 64.2002 97.151 64.1637C97.1637 64.1272 97.1832 64.0939 97.2085 64.0657C97.2337 64.0375 97.2641 64.015 97.2978 63.9997C97.3315 63.9844 97.3678 63.9765 97.4045 63.9766C97.8476 63.9898 98.2812 64.1166 98.6682 64.3461C99.0552 64.5756 99.3841 64.9011 99.6268 65.2947C99.6482 65.3267 99.6634 65.3629 99.6715 65.4012C99.6796 65.4395 99.6803 65.4792 99.6737 65.5178C99.6671 65.5564 99.6532 65.5932 99.633 65.6261C99.6127 65.6589 99.5865 65.6871 99.5558 65.709C99.5106 65.7443 99.4557 65.7629 99.3996 65.7618V65.7618Z" fill="#263238"/>
<path d="M82.0973 85.9414C82.0973 85.9414 79.2573 86.7549 79.2573 86.7624C79.2573 87.5157 80.0454 88.9469 82.0334 90.7923C83.8936 92.5097 87.9193 95.4775 89.7156 95.4775C89.4955 93.2178 90.1487 89.9788 91.1356 88.8791C88.7997 89.0071 84.3622 87.5684 82.0973 85.9414Z" fill="#E0E0E0"/>
<path d="M91.1499 88.879C93.145 89.7076 95.346 92.8486 95.9566 94.9878C97.0074 94.3928 98.1292 90.1068 97.5115 87.3424C96.5399 86.7833 95.4266 86.5644 94.3307 86.7172C94.1958 87.6361 93.571 88.7434 91.1499 88.879Z" fill="#E0E0E0"/>
<path d="M82.168 276.468L74.287 276.701L73.4634 271.956L82.6934 272.543L82.168 276.468Z" fill="#4DB1C8"/>
<path opacity="0.2" d="M82.168 276.468L74.287 276.701L73.4634 271.956L82.6934 272.543L82.168 276.468Z" fill="black"/>
<path d="M118.925 275.617L110.491 277.003L109.063 273.048L118.414 270.803L118.925 275.617Z" fill="#4DB1C8"/>
<path opacity="0.2" d="M118.925 275.617L110.491 277.003L109.063 273.048L118.414 270.803L118.925 275.617Z" fill="black"/>
<path d="M77.8308 85.9414C84.9308 96.0349 87.8631 154.931 83.8729 205.708C73.4643 207.629 62.9492 191.878 62.9492 191.878C62.9492 191.878 69.8575 140.808 68.047 124.485C66.2365 108.162 64.2201 98.6186 64.7171 93.7676C65.2141 88.9167 72.6904 86.7549 77.8308 85.9414Z" fill="#4DB1C8"/>
<path opacity="0.7" d="M77.8308 85.9414C84.9308 96.0349 87.8631 154.931 83.8729 205.708C73.4643 207.629 62.9492 191.878 62.9492 191.878C62.9492 191.878 69.8575 140.808 68.047 124.485C66.2365 108.162 64.2201 98.6186 64.7171 93.7676C65.2141 88.9167 72.6904 86.7549 77.8308 85.9414Z" fill="white"/>
<path d="M97.689 86.6948C102.375 104.238 108.183 165.899 106.06 202.793C110.007 199.343 114.53 191.411 114.431 188.541C114.338 185.867 112.62 137.833 111.967 130.677C111.591 119.032 111.868 101.361 110.547 94.5587C109.226 87.7569 102.538 86.2429 97.689 86.6948Z" fill="#4DB1C8"/>
<path opacity="0.7" d="M97.689 86.6948C102.375 104.238 108.183 165.899 106.06 202.793C110.007 199.343 114.53 191.411 114.431 188.541C114.338 185.867 112.62 137.833 111.967 130.677C111.591 119.032 111.868 101.361 110.547 94.5587C109.226 87.7569 102.538 86.2429 97.689 86.6948Z" fill="white"/>
<path d="M94.6851 143.942L74.5495 143.505C74.3626 143.505 74.178 143.461 74.0094 143.375C73.8409 143.29 73.6927 143.165 73.576 143.01C73.4593 142.855 73.3771 142.674 73.3354 142.48C73.2938 142.287 73.2938 142.086 73.3354 141.893L78.632 111.673C78.7245 111.247 78.9492 110.868 79.2699 110.594C79.5906 110.321 79.9886 110.17 80.3999 110.166L100.528 110.626C100.715 110.625 100.9 110.669 101.069 110.755C101.237 110.841 101.385 110.966 101.502 111.121C101.619 111.276 101.701 111.457 101.743 111.65C101.784 111.843 101.784 112.044 101.743 112.238L96.4531 142.435C96.3583 142.859 96.133 143.238 95.8128 143.51C95.4926 143.783 95.0958 143.935 94.6851 143.942Z" fill="#4DB1C8"/>
<path d="M88.3094 130.15C88.1555 129.851 88.1076 129.503 88.1745 129.17L88.6999 126.278C88.7527 126.004 88.8764 125.751 89.0569 125.548C89.2375 125.344 89.4678 125.198 89.7223 125.125L91.9943 124.508C94.2022 123.899 96.5085 123.806 98.7535 124.237L99.4635 124.38C99.7673 124.437 100.057 124.559 100.316 124.737C100.575 124.915 100.797 125.147 100.971 125.418C101.144 125.689 101.265 125.994 101.325 126.315C101.386 126.636 101.385 126.966 101.324 127.287L100.763 130.255C100.654 130.827 100.357 131.339 99.9254 131.7C99.4937 132.062 98.9551 132.249 98.4056 132.228L95.0544 132.1C95.0544 132.1 89.7223 132.854 88.3094 130.15Z" fill="#FFB573"/>
<path d="M88.7497 124.289C89.7676 123.868 90.8403 123.614 91.9305 123.536C92.9813 125.125 91.4619 131.129 90.262 132.417C89.3177 132.417 86.8398 131.091 86.8398 131.091C87.6847 129.087 88.2527 125.803 88.7497 124.289Z" fill="#E0E0E0"/>
<path d="M76.8432 97.8579C76.048 100.02 75.2528 102.295 74.486 104.524C73.7192 106.754 72.9808 109.044 72.2779 111.236C71.575 113.428 70.9147 115.702 70.3538 117.872C70.0769 118.949 69.8213 120.018 69.6438 120.983C69.5515 121.472 69.4805 121.909 69.4308 122.278V122.497V122.602V122.64C69.4308 122.64 69.4308 122.715 69.4308 122.64C69.4252 122.55 69.4085 122.461 69.3811 122.376L69.2462 121.789C69.2003 121.649 69.1278 121.521 69.0332 121.412C68.9622 121.344 68.9551 121.412 69.0332 121.472C69.482 121.831 69.9867 122.104 70.5242 122.278C72.3325 122.87 74.2014 123.229 76.0906 123.348C78.2429 123.513 80.4022 123.554 82.5587 123.468C83.6592 123.468 84.7668 123.363 85.8744 123.272L87.5287 123.122L89.1049 122.949L90.7308 133.615C90.0208 133.75 89.4457 133.848 88.8067 133.946L86.9536 134.225C85.7182 134.398 84.4757 134.549 83.2261 134.669C80.6797 134.921 78.1222 135.024 75.5652 134.978C72.7423 134.953 69.933 134.559 67.2014 133.803C65.4599 133.311 63.807 132.517 62.3095 131.453C61.3532 130.753 60.4992 129.908 59.7748 128.944C58.9569 127.845 58.3404 126.593 57.9572 125.254V125.208C57.9069 125.028 57.8666 124.844 57.8365 124.658C57.7797 124.274 57.73 123.905 57.6945 123.491C57.659 123.077 57.6945 122.903 57.6945 122.602V121.849L57.73 121.156C57.7939 120.32 57.8791 119.551 57.9785 118.843C58.1844 117.412 58.4258 116.102 58.6885 114.821C59.2139 112.26 59.8174 109.819 60.4422 107.394C61.067 104.969 61.7344 102.588 62.416 100.216C63.0976 97.8428 63.7934 95.5002 64.546 93.0898L76.8432 97.8579Z" fill="#4DB1C8"/>
<path opacity="0.7" d="M76.8432 97.8579C76.048 100.02 75.2528 102.295 74.486 104.524C73.7192 106.754 72.9808 109.044 72.2779 111.236C71.575 113.428 70.9147 115.702 70.3538 117.872C70.0769 118.949 69.8213 120.018 69.6438 120.983C69.5515 121.472 69.4805 121.909 69.4308 122.278V122.497V122.602V122.64C69.4308 122.64 69.4308 122.715 69.4308 122.64C69.4252 122.55 69.4085 122.461 69.3811 122.376L69.2462 121.789C69.2003 121.649 69.1278 121.521 69.0332 121.412C68.9622 121.344 68.9551 121.412 69.0332 121.472C69.482 121.831 69.9867 122.104 70.5242 122.278C72.3325 122.87 74.2014 123.229 76.0906 123.348C78.2429 123.513 80.4022 123.554 82.5587 123.468C83.6592 123.468 84.7668 123.363 85.8744 123.272L87.5287 123.122L89.1049 122.949L90.7308 133.615C90.0208 133.75 89.4457 133.848 88.8067 133.946L86.9536 134.225C85.7182 134.398 84.4757 134.549 83.2261 134.669C80.6797 134.921 78.1222 135.024 75.5652 134.978C72.7423 134.953 69.933 134.559 67.2014 133.803C65.4599 133.311 63.807 132.517 62.3095 131.453C61.3532 130.753 60.4992 129.908 59.7748 128.944C58.9569 127.845 58.3404 126.593 57.9572 125.254V125.208C57.9069 125.028 57.8666 124.844 57.8365 124.658C57.7797 124.274 57.73 123.905 57.6945 123.491C57.659 123.077 57.6945 122.903 57.6945 122.602V121.849L57.73 121.156C57.7939 120.32 57.8791 119.551 57.9785 118.843C58.1844 117.412 58.4258 116.102 58.6885 114.821C59.2139 112.26 59.8174 109.819 60.4422 107.394C61.067 104.969 61.7344 102.588 62.416 100.216C63.0976 97.8428 63.7934 95.5002 64.546 93.0898L76.8432 97.8579Z" fill="white"/>
<path d="M229.586 268.182C218.485 274.522 206.075 277.84 193.468 277.839H190.99C190.286 277.839 189.611 278.136 189.113 278.664C188.615 279.192 188.335 279.909 188.335 280.656V280.656C188.335 281.403 188.615 282.12 189.113 282.648C189.611 283.176 190.286 283.473 190.99 283.473H270.645C271.15 283.473 271.649 283.368 272.115 283.163C272.581 282.958 273.005 282.658 273.361 282.28C273.718 281.901 274.001 281.452 274.194 280.958C274.387 280.463 274.486 279.933 274.486 279.398V271.775C274.486 271.24 274.387 270.71 274.194 270.216C274.001 269.721 273.718 269.272 273.361 268.894C273.005 268.515 272.581 268.215 272.115 268.01C271.649 267.806 271.15 267.7 270.645 267.7H231.411C230.774 267.7 230.148 267.865 229.586 268.182Z" fill="#263238"/>
<path d="M258.439 271.775H242.216C241.201 271.775 240.209 271.455 239.365 270.857C238.521 270.26 237.863 269.41 237.473 268.416L228.783 246.218C228.461 245.39 228.336 244.491 228.42 243.6C228.503 242.709 228.792 241.854 229.26 241.109C229.729 240.365 230.364 239.754 231.107 239.332C231.851 238.909 232.682 238.687 233.526 238.685H249.735C250.751 238.685 251.744 239.005 252.589 239.602C253.434 240.2 254.094 241.05 254.485 242.045L263.168 264.25C263.49 265.076 263.615 265.974 263.532 266.863C263.45 267.752 263.162 268.607 262.695 269.35C262.227 270.094 261.595 270.704 260.853 271.127C260.111 271.55 259.282 271.773 258.439 271.775Z" fill="#E0E0E0"/>
<path opacity="0.2" d="M256.431 271.022H242.11C241.472 271.024 240.848 270.824 240.317 270.449C239.786 270.073 239.372 269.539 239.128 268.913L229.813 245.11C229.61 244.59 229.531 244.024 229.583 243.464C229.635 242.903 229.816 242.365 230.111 241.896C230.406 241.428 230.805 241.044 231.273 240.778C231.741 240.512 232.264 240.373 232.795 240.372H247.087C247.726 240.372 248.351 240.573 248.881 240.95C249.412 241.327 249.826 241.862 250.069 242.489L259.384 266.284C259.587 266.802 259.666 267.365 259.615 267.923C259.565 268.481 259.386 269.018 259.094 269.485C258.803 269.953 258.407 270.338 257.943 270.606C257.479 270.874 256.959 271.017 256.431 271.022V271.022Z" fill="black"/>
<path d="M254.066 226.671H225.837C223.076 226.671 220.838 229.045 220.838 231.973V236.259C220.838 239.188 223.076 241.562 225.837 241.562H254.066C256.827 241.562 259.065 239.188 259.065 236.259V231.973C259.065 229.045 256.827 226.671 254.066 226.671Z" fill="#263238"/>
<path d="M218.183 192.375H272.604V217.88C272.606 219.546 272.298 221.196 271.698 222.735C271.099 224.275 270.219 225.673 269.109 226.852C267.999 228.03 266.681 228.964 265.23 229.601C263.78 230.239 262.225 230.566 260.655 230.565H218.183V192.375Z" fill="#E0E0E0"/>
<path opacity="0.2" d="M219.297 197.686H262.7V218.023C262.7 220.704 261.696 223.276 259.909 225.171C258.122 227.067 255.698 228.132 253.171 228.132H219.297V197.686Z" fill="black"/>
<path opacity="0.6" d="M224.481 282.916H191.345C190.792 282.906 190.265 282.669 189.874 282.254C189.483 281.84 189.26 281.28 189.25 280.694V280.694C189.26 280.107 189.483 279.548 189.874 279.133C190.265 278.718 190.792 278.481 191.345 278.472H224.481C225.033 278.481 225.561 278.718 225.952 279.133C226.342 279.548 226.566 280.107 226.575 280.694V280.694C226.566 281.28 226.342 281.84 225.952 282.254C225.561 282.669 225.033 282.906 224.481 282.916Z" fill="black"/>
<path d="M181.234 196.669C181.236 196.978 181.151 197.28 180.99 197.537C180.829 197.795 180.6 197.996 180.332 198.115C180.064 198.234 179.768 198.266 179.482 198.207C179.197 198.147 178.934 197.999 178.728 197.782C178.522 197.564 178.381 197.286 178.324 196.983C178.266 196.681 178.295 196.367 178.406 196.081C178.517 195.796 178.706 195.552 178.947 195.381C179.189 195.209 179.474 195.117 179.765 195.117C179.957 195.116 180.148 195.156 180.326 195.233C180.505 195.311 180.667 195.425 180.803 195.569C180.94 195.713 181.048 195.885 181.122 196.073C181.196 196.262 181.234 196.464 181.234 196.669V196.669Z" fill="#263238"/>
<path d="M199.964 244.787C201.642 244.787 203.003 243.343 203.003 241.563C203.003 239.782 201.642 238.339 199.964 238.339C198.286 238.339 196.925 239.782 196.925 241.563C196.925 243.343 198.286 244.787 199.964 244.787Z" fill="#263238"/>
<path d="M205.836 263.339C205.688 263.377 205.532 263.353 205.4 263.274C205.268 263.194 205.17 263.064 205.126 262.91L187.333 196.887C187.297 196.731 187.319 196.566 187.395 196.426C187.47 196.286 187.593 196.182 187.738 196.134C187.885 196.096 188.041 196.12 188.173 196.2C188.305 196.279 188.403 196.41 188.448 196.564L206.247 262.586C206.285 262.743 206.262 262.91 206.185 263.051C206.109 263.192 205.983 263.295 205.836 263.339V263.339Z" fill="#E0E0E0"/>
<path d="M179.523 196.669C179.525 196.502 179.589 196.342 179.7 196.224C179.812 196.105 179.962 196.038 180.12 196.036H187.873C188.031 196.038 188.181 196.105 188.293 196.224C188.404 196.342 188.468 196.502 188.469 196.669V196.669C188.469 196.837 188.407 196.999 188.295 197.119C188.184 197.239 188.032 197.307 187.873 197.309H180.12C179.961 197.307 179.809 197.239 179.698 197.119C179.586 196.999 179.523 196.837 179.523 196.669V196.669Z" fill="#E0E0E0"/>
<path d="M179.737 201.49H179.808C180.118 201.49 180.369 201.223 180.369 200.894V193.776C180.369 193.448 180.118 193.181 179.808 193.181H179.737C179.427 193.181 179.176 193.448 179.176 193.776V200.894C179.176 201.223 179.427 201.49 179.737 201.49Z" fill="#E0E0E0"/>
<path d="M167.24 196.247C166.563 195.983 165.935 195.593 165.387 195.095C165.195 194.907 165.055 194.667 164.983 194.4C164.912 194.134 164.911 193.851 164.98 193.584C165.05 193.317 165.188 193.076 165.379 192.886C165.569 192.697 165.806 192.567 166.061 192.511C170.321 191.539 179.346 189.347 183.144 187.811C181.909 191.374 174.013 195.855 171.443 196.39C170.055 196.735 168.605 196.686 167.24 196.247V196.247Z" fill="black"/>
<path d="M167.24 196.247C170.272 197.151 173.254 194.492 173.297 190.831C173.304 190.422 173.426 190.025 173.645 189.688C173.865 189.352 174.173 189.092 174.532 188.941C177.62 187.622 184.223 185.611 187.426 184.662C187.664 184.591 187.915 184.578 188.159 184.626C188.403 184.673 188.633 184.779 188.832 184.935C189.032 185.092 189.195 185.294 189.309 185.527C189.423 185.761 189.486 186.019 189.492 186.282C189.527 188.541 188.924 191.826 185.232 192.918C173.126 196.503 169.96 197.347 167.24 196.247Z" fill="#263238"/>
<path d="M325.563 156.845L324.853 156.732C324.968 155.793 324.893 154.839 324.634 153.933C324.374 153.027 323.936 152.191 323.349 151.478C322.761 150.766 322.037 150.194 321.226 149.801C320.414 149.408 319.533 149.203 318.64 149.199H306.57V148.446H318.64C319.638 148.45 320.623 148.68 321.53 149.121C322.437 149.562 323.245 150.203 323.9 151.002C324.554 151.8 325.041 152.738 325.326 153.752C325.612 154.766 325.69 155.834 325.556 156.882L325.563 156.845Z" fill="#4DB1C8"/>
<path d="M321.246 163.33L320.756 162.78L323.39 160.136L323.923 160.626L323.859 160.709L321.246 163.33Z" fill="#4DB1C8"/>
<path d="M244.644 209.806H191.309C186.247 209.806 184.99 202.341 189.74 200.48L210.018 192.541C220.062 188.608 229.374 182.825 237.523 175.458L260.733 154.487C263.273 152.193 266.499 150.933 269.835 150.932H318.648C319.528 150.931 320.39 151.199 321.131 151.703C321.872 152.207 322.461 152.927 322.827 153.776C323.194 154.625 323.323 155.568 323.198 156.493C323.074 157.418 322.702 158.285 322.127 158.992L302.524 178.576C296.631 183.902 290.177 188.484 283.29 192.232L258.766 205.58C252.71 208.879 251.46 209.806 244.644 209.806Z" fill="#4DB1C8"/>
<path opacity="0.2" d="M293.095 184.278C293.031 184.279 292.968 184.261 292.913 184.227C292.858 184.192 292.813 184.142 292.783 184.082L292.073 182.673C291.374 181.337 290.352 180.222 289.111 179.446C287.87 178.67 286.456 178.26 285.015 178.259H237.253C237.159 178.259 237.069 178.22 237.002 178.149C236.936 178.078 236.898 177.983 236.898 177.883C236.898 177.783 236.936 177.687 237.002 177.616C237.069 177.546 237.159 177.506 237.253 177.506H284.994C286.562 177.505 288.101 177.95 289.451 178.795C290.801 179.641 291.912 180.855 292.669 182.312L293.379 183.72C293.422 183.809 293.432 183.911 293.406 184.007C293.379 184.103 293.319 184.183 293.237 184.233C293.193 184.258 293.145 184.273 293.095 184.278V184.278Z" fill="black"/>
<path opacity="0.2" d="M241.84 201.286H191.132C186.659 202.793 187.844 208.992 192.608 208.992H241.84C244.417 208.992 246.363 206.823 245.908 204.472C245.677 203.527 245.146 202.695 244.406 202.115C243.665 201.535 242.759 201.243 241.84 201.286V201.286Z" fill="black"/>
<path d="M208.442 243.913H158.877C157.685 243.913 156.52 243.53 155.538 242.813C154.556 242.096 153.802 241.079 153.376 239.897C152.95 238.716 152.873 237.425 153.154 236.195C153.436 234.966 154.062 233.856 154.951 233.013L180.135 209.113C182.825 206.554 186.312 205.14 189.926 205.143H239.491C240.683 205.142 241.848 205.526 242.83 206.243C243.812 206.96 244.566 207.977 244.992 209.158C245.418 210.34 245.495 211.631 245.214 212.86C244.933 214.09 244.306 215.199 243.417 216.042L218.233 239.943C215.543 242.502 212.056 243.915 208.442 243.913V243.913Z" fill="#4DB1C8"/>
<path opacity="0.2" d="M203.841 242.986H158.401C157.323 242.982 156.29 242.526 155.528 241.718C154.766 240.909 154.336 239.813 154.333 238.67V238.67C154.336 237.527 154.766 236.431 155.528 235.622C156.29 234.814 157.323 234.358 158.401 234.354H203.841C204.92 234.356 205.954 234.811 206.718 235.62C207.482 236.429 207.912 237.525 207.916 238.67V238.67C207.912 239.815 207.482 240.911 206.718 241.72C205.954 242.529 204.92 242.984 203.841 242.986Z" fill="black"/>
<path d="M245.951 117.179L243.786 118.881C244.453 126.293 251.411 128.824 253.293 123.747C254.89 119.514 250.765 117.254 245.951 117.179Z" fill="#263238"/>
<path d="M247.932 117.247C247.776 119.431 246.647 122.339 243.232 121.179C243.115 121.136 243.009 121.065 242.924 120.969C242.84 120.873 242.779 120.757 242.746 120.631C242.714 120.504 242.712 120.371 242.739 120.243C242.767 120.115 242.824 119.997 242.905 119.898C244.016 118.554 245.322 117.407 246.775 116.501C246.894 116.423 247.031 116.381 247.171 116.38C247.311 116.38 247.449 116.42 247.569 116.497C247.688 116.575 247.786 116.685 247.85 116.818C247.914 116.95 247.942 117.098 247.932 117.247V117.247Z" fill="#4DB1C8"/>
<path d="M229.152 96.3439C229.528 93.3309 240.036 91.2293 244.772 100.66C247.385 105.842 247.534 111.492 247.257 115.077C247.171 116.198 246.782 117.268 246.137 118.16C245.493 119.053 244.619 119.729 243.622 120.109C239.88 121.555 233.682 123.348 230.551 121.02C224.303 116.418 229.152 96.3439 229.152 96.3439Z" fill="#263238"/>
<path d="M229.152 96.3435C218.737 104.343 219.717 115.393 226.057 118.444C234.563 113.254 229.152 96.3435 229.152 96.3435Z" fill="#263238"/>
<path d="M191.33 147.776L189.711 143.188L184.642 149.056C184.642 149.056 187.532 152.19 190.549 152.724L190.989 151.971C191.339 151.344 191.552 150.641 191.611 149.915C191.67 149.188 191.574 148.457 191.33 147.776V147.776Z" fill="#7F3E3B"/>
<path d="M184.714 143.309L183.351 145.418C183.063 145.857 182.942 146.396 183.013 146.925C183.084 147.455 183.342 147.936 183.734 148.273L184.643 149.064L189.712 143.188L186.872 142.435C186.471 142.33 186.05 142.357 185.664 142.513C185.278 142.669 184.947 142.947 184.714 143.309V143.309Z" fill="#7F3E3B"/>
<path d="M224.268 138.428C224.07 139.023 223.906 139.467 223.722 139.934C223.537 140.401 223.345 140.898 223.147 141.365C222.756 142.314 222.344 143.241 221.911 144.16C221.052 146.006 220.104 147.803 219.071 149.545C218.022 151.301 216.882 152.994 215.656 154.615C214.413 156.266 213.06 157.822 211.609 159.27L210.48 160.339L210.203 160.603L210.132 160.671L210.004 160.784L209.621 161.1C209.125 161.455 208.582 161.729 208.009 161.914C207.15 162.177 206.25 162.256 205.361 162.147C204.702 162.076 204.05 161.938 203.416 161.733C201.407 161.042 199.496 160.064 197.736 158.825C194.54 156.638 191.566 154.106 188.861 151.27C188.52 150.916 188.313 150.442 188.277 149.938C188.242 149.433 188.38 148.932 188.667 148.528C188.953 148.124 189.368 147.843 189.835 147.74C190.302 147.636 190.788 147.715 191.204 147.964H191.268C194.349 149.817 197.53 151.685 200.632 153.169C202.038 153.877 203.515 154.416 205.034 154.773C205.283 154.822 205.535 154.842 205.787 154.833C205.972 154.833 206.014 154.758 205.851 154.833C205.711 154.862 205.578 154.921 205.461 155.007C205.417 155.031 205.377 155.062 205.34 155.097V155.097L205.389 155.037L205.602 154.803L206.454 153.862C208.695 151.215 210.668 148.327 212.34 145.244C213.214 143.693 213.995 142.081 214.769 140.461C215.152 139.648 215.521 138.827 215.862 138.006L216.366 136.77L216.821 135.61L216.892 135.43C217.268 134.395 218.017 133.561 218.973 133.112C219.929 132.663 221.014 132.635 221.989 133.034C222.965 133.434 223.751 134.228 224.174 135.242C224.597 136.257 224.624 137.408 224.247 138.443L224.268 138.428Z" fill="#7F3E3B"/>
<path d="M220.952 130.933C214.221 135.151 213.49 142.744 210.43 145.727C213.724 154.012 219.191 154.073 219.191 154.073C219.191 154.073 228.421 126.263 220.952 130.933Z" fill="#4DB1C8"/>
<path opacity="0.3" d="M220.952 130.933C214.221 135.151 213.49 142.744 210.43 145.727C213.724 154.012 219.191 154.073 219.191 154.073C219.191 154.073 228.421 126.263 220.952 130.933Z" fill="white"/>
<path d="M247.293 167.609C248.144 157.764 248.438 147.873 248.173 137.991C248.01 133.908 246.306 130.15 242.493 129.705C241.471 129.6 240.363 129.509 239.277 129.449C235.401 129.159 231.51 129.159 227.633 129.449C226.369 129.577 225.07 129.743 223.835 129.931C221.669 130.253 219.694 131.419 218.295 133.201C216.896 134.984 216.172 137.255 216.266 139.573C216.38 142.247 212.396 148.438 217.31 152.024C217.729 155.888 217.175 162.487 217.352 169.206C214.029 175.269 202.911 179.939 201.945 185.822C200.582 194.168 209.081 197.309 217.161 197.874C241.911 199.727 254.294 196.112 247.293 167.609Z" fill="#4DB1C8"/>
<path opacity="0.4" d="M247.293 167.609C248.144 157.764 248.438 147.873 248.173 137.991C248.01 133.908 246.306 130.15 242.493 129.705C241.471 129.6 240.363 129.509 239.277 129.449C235.401 129.159 231.51 129.159 227.633 129.449C226.369 129.577 225.07 129.743 223.835 129.931C221.669 130.253 219.694 131.419 218.295 133.201C216.896 134.984 216.172 137.255 216.266 139.573C216.38 142.247 212.396 148.438 217.31 152.024C217.729 155.888 217.175 162.487 217.352 169.206C214.029 175.269 202.911 179.939 201.945 185.822C200.582 194.168 209.081 197.309 217.161 197.874C241.911 199.727 254.294 196.112 247.293 167.609Z" fill="white"/>
<path opacity="0.6" d="M221.598 181.77C218.623 182.455 211.055 179.985 206.631 180.964C205.564 181.175 204.571 181.692 203.761 182.46C202.951 183.228 202.355 184.216 202.038 185.318C201.989 185.493 201.951 185.672 201.924 185.852C200.554 194.198 209.024 197.339 217.132 197.904C224.232 198.417 230.033 198.658 234.669 198.047C235.819 197.911 236.895 197.381 237.735 196.537C238.574 195.692 239.131 194.58 239.32 193.37C240.236 186.877 230.083 179.819 221.598 181.77Z" fill="#4DB1C8"/>
<path opacity="0.3" d="M227.093 154.314C230.643 157.899 237.587 164.317 239.965 165.341C234.668 164.55 228.79 157.266 227.093 154.314Z" fill="#4DB1C8"/>
<path opacity="0.3" d="M221.179 147.58C224.864 154.321 230.92 164.324 233.377 166.946C226.944 162.185 221.847 151.09 221.179 147.58Z" fill="#4DB1C8"/>
<path d="M219.894 186.515C216.074 180.602 207.412 180.361 204.615 183.156C199.95 187.796 190.997 196.097 185.686 202.56C179.033 210.657 170.18 235.793 167.098 244.32C165.771 248.191 159.672 252.093 153.992 251.385C151.464 251.069 153.189 254.398 154.993 254.873C159.508 256.138 159.253 254.443 161.866 255.008C164.067 255.49 163.91 256.085 166.523 256.756C167.993 257.132 168.817 255.596 169.101 253.743C169.385 251.89 170.031 250.526 173.744 244.553C181.168 234.68 187.7 224.088 193.255 212.917C208.605 204.782 211.715 202.213 217.31 196.94C220.206 194.183 222.322 190.266 219.894 186.515Z" fill="#7F3E3B"/>
<path opacity="0.2" d="M219.894 186.515C219.485 185.885 219.024 185.295 218.516 184.752C216.909 185.497 215.427 186.515 214.128 187.765C209.421 192.36 200.589 200.947 197.671 204.088C195.49 206.337 194.142 209.341 193.872 212.555C208.69 204.676 211.821 202.107 217.302 196.895C220.206 194.191 222.322 190.266 219.894 186.515Z" fill="black"/>
<path d="M238.106 115.567C237.396 119.544 236.636 126.828 239.256 129.479C234.411 130.722 229.97 133.324 226.398 137.012C223.764 131.822 227.612 129.479 227.612 129.479C231.787 128.425 231.68 125.133 230.949 122.045L238.106 115.567Z" fill="#7F3E3B"/>
<path opacity="0.2" d="M235.188 118.211L230.928 122.045C231.11 122.763 231.231 123.496 231.29 124.237C232.88 123.988 235.074 122.128 235.245 120.357C235.348 119.644 235.329 118.917 235.188 118.211V118.211Z" fill="black"/>
<path d="M242.053 108.275C240.59 114.738 240.1 117.51 236.493 120.29C231.055 124.478 224.04 121.171 223.713 114.377C223.401 108.26 225.843 98.7165 232.191 97.2251C238.538 95.7336 243.529 101.805 242.053 108.275Z" fill="#7F3E3B"/>
<path d="M229.99 97.0068C233.071 103.033 238.375 104.298 238.474 108.479C238.574 112.659 245.162 114.324 244.438 108.742C243.714 103.161 239.454 92.4572 229.99 97.0068Z" fill="#263238"/>
<path d="M230.75 96.7581C230.317 101.737 233.697 101.767 234.577 101.428C230.786 102.987 228.407 100.615 228.897 97.903C229.113 97.5853 229.39 97.3192 229.709 97.122C230.028 96.9248 230.383 96.8008 230.75 96.7581V96.7581Z" fill="#263238"/>
<path d="M232.539 108.343C232.447 108.878 232.106 109.262 231.779 109.194C231.453 109.126 231.261 108.652 231.346 108.125C231.432 107.597 231.772 107.206 232.106 107.274C232.44 107.341 232.624 107.786 232.539 108.343Z" fill="#263238"/>
<path d="M226.347 107.281C226.262 107.808 225.921 108.193 225.594 108.132C225.268 108.072 225.076 107.59 225.161 107.055C225.247 106.52 225.587 106.144 225.921 106.204C226.255 106.264 226.439 106.746 226.347 107.281Z" fill="#263238"/>
<path d="M226.057 106.279L224.914 105.684C224.914 105.684 225.368 106.784 226.057 106.279Z" fill="#263238"/>
<path d="M227.909 108.479C227.265 109.613 226.477 110.647 225.566 111.552C225.791 111.793 226.062 111.98 226.361 112.1C226.66 112.219 226.98 112.269 227.299 112.245L227.909 108.479Z" fill="#630F0F"/>
<path d="M229.855 114.738C229.569 114.739 229.284 114.711 229.003 114.655C228.984 114.653 228.965 114.646 228.948 114.635C228.931 114.624 228.917 114.61 228.906 114.593C228.894 114.576 228.886 114.557 228.882 114.536C228.878 114.516 228.878 114.495 228.883 114.475C228.885 114.454 228.892 114.434 228.902 114.416C228.912 114.398 228.925 114.383 228.941 114.371C228.957 114.359 228.975 114.35 228.995 114.346C229.014 114.342 229.034 114.342 229.053 114.346C229.674 114.479 230.317 114.454 230.928 114.273C231.538 114.093 232.1 113.762 232.567 113.307C232.581 113.292 232.598 113.28 232.616 113.272C232.634 113.264 232.654 113.26 232.674 113.26C232.694 113.26 232.713 113.264 232.732 113.272C232.75 113.28 232.767 113.292 232.78 113.307C232.807 113.336 232.822 113.376 232.822 113.416C232.822 113.457 232.807 113.496 232.78 113.525C231.992 114.32 230.942 114.755 229.855 114.738V114.738Z" fill="#263238"/>
<path d="M242.82 113.375C242.479 113.86 242.046 114.264 241.548 114.558C241.049 114.853 240.498 115.033 239.93 115.085C238.51 115.167 238.148 113.427 238.872 111.913C239.518 110.558 241.052 108.9 242.344 109.51C243.636 110.121 243.714 112.109 242.82 113.375Z" fill="#7F3E3B"/>
<path d="M235.393 106.392C235.314 106.368 235.246 106.315 235.201 106.242C235.022 105.892 234.767 105.592 234.457 105.367C234.147 105.142 233.791 104.997 233.419 104.946C233.38 104.944 233.342 104.934 233.306 104.916C233.271 104.899 233.239 104.874 233.212 104.843C233.186 104.812 233.166 104.776 233.152 104.737C233.139 104.698 233.133 104.656 233.135 104.615C233.141 104.53 233.177 104.451 233.237 104.395C233.297 104.338 233.375 104.309 233.455 104.313C233.927 104.368 234.38 104.543 234.774 104.824C235.168 105.104 235.493 105.482 235.72 105.925C235.74 105.961 235.753 106 235.759 106.041C235.764 106.082 235.762 106.124 235.752 106.164C235.742 106.204 235.725 106.241 235.701 106.274C235.677 106.307 235.647 106.334 235.613 106.355C235.547 106.396 235.468 106.41 235.393 106.392V106.392Z" fill="#263238"/>
<path d="M224.672 104.125C224.596 104.118 224.525 104.081 224.474 104.02C224.42 103.958 224.39 103.878 224.39 103.794C224.39 103.71 224.42 103.629 224.474 103.568C224.827 103.228 225.251 102.983 225.712 102.852C226.172 102.721 226.656 102.708 227.122 102.814C227.16 102.826 227.195 102.846 227.226 102.873C227.256 102.9 227.282 102.933 227.3 102.97C227.319 103.007 227.33 103.048 227.334 103.09C227.337 103.131 227.333 103.174 227.321 103.214C227.31 103.254 227.292 103.291 227.268 103.323C227.243 103.356 227.213 103.383 227.178 103.402C227.144 103.422 227.106 103.434 227.067 103.438C227.028 103.442 226.989 103.437 226.951 103.425C226.583 103.344 226.203 103.357 225.84 103.461C225.477 103.566 225.143 103.76 224.864 104.027C224.814 104.085 224.746 104.12 224.672 104.125V104.125Z" fill="#263238"/>
<path d="M232.241 107.326L231.098 106.731C231.098 106.731 231.552 107.846 232.241 107.326Z" fill="#263238"/>
<path d="M237.261 171.676L232.695 170.998L235.124 178.531C235.124 178.531 239.1 177.333 240.988 174.765L240.555 174.011C240.205 173.386 239.727 172.852 239.157 172.448C238.587 172.044 237.939 171.78 237.261 171.676Z" fill="#7F3E3B"/>
<path d="M230.402 175.713L231.488 177.973C231.717 178.45 232.105 178.818 232.577 179.005C233.049 179.192 233.571 179.184 234.037 178.983L235.124 178.508L232.695 170.976L230.707 173.296C230.429 173.617 230.251 174.021 230.197 174.454C230.142 174.886 230.214 175.326 230.402 175.713V175.713Z" fill="#7F3E3B"/>
<path d="M247.208 133.938C248.116 135.739 248.834 137.449 249.572 139.211C250.31 140.974 250.942 142.789 251.546 144.635C252.825 148.418 253.674 152.35 254.073 156.348C254.073 156.882 254.144 157.41 254.159 157.96V158.374C254.173 158.625 254.173 158.876 254.159 159.127C254.126 159.56 254.055 159.989 253.946 160.408C253.612 161.659 253.089 162.844 252.398 163.918C251.303 165.636 250.039 167.227 248.628 168.663C246.015 171.368 243.162 173.797 240.108 175.917C239.711 176.197 239.232 176.316 238.759 176.249C238.286 176.183 237.852 175.936 237.538 175.556C237.224 175.176 237.05 174.687 237.05 174.181C237.05 173.675 237.223 173.187 237.537 172.806L237.58 172.753C239.817 170.034 242.081 167.232 244.048 164.468C244.988 163.161 245.826 161.775 246.554 160.325C246.805 159.829 246.983 159.296 247.08 158.743C247.08 158.683 247.08 158.637 247.08 158.66C247.077 158.677 247.077 158.695 247.08 158.713V158.434C247.044 158.057 246.988 157.681 246.931 157.274C246.329 153.925 245.423 150.646 244.226 147.482C243.636 145.832 242.983 144.198 242.33 142.563C241.677 140.929 240.91 139.279 240.264 137.78L240.221 137.697C239.805 136.714 239.762 135.597 240.102 134.581C240.442 133.565 241.138 132.727 242.046 132.242C242.953 131.756 244.002 131.661 244.974 131.976C245.947 132.29 246.767 132.991 247.264 133.931L247.208 133.938Z" fill="#7F3E3B"/>
<path d="M235.925 186.53C232.834 183.697 228.827 182.247 224.748 182.486C220.669 182.725 216.836 184.634 214.057 187.811C209.705 192.782 204.43 198.921 199.147 205.384C191.252 214.996 180.24 248.636 179.495 249.961L183.045 252.628C192.216 241.312 200.15 228.93 206.695 215.719C222.045 207.584 230.451 202.055 236.011 196.782C236.694 196.136 237.239 195.342 237.61 194.454C237.981 193.566 238.169 192.605 238.162 191.634C238.154 190.662 237.952 189.704 237.567 188.823C237.183 187.941 236.625 187.157 235.933 186.523L235.925 186.53Z" fill="#7F3E3B"/>
<path d="M184.287 257.32C184.216 255.452 183.463 253.343 187.176 247.37C187.176 247.37 181.269 245.005 180.531 247.136C179.196 251.008 173.992 258.179 168.276 258.269C165.734 258.307 168.816 261.282 170.683 261.426C175.348 261.704 174.943 260.544 177.584 260.552C179.172 260.455 180.765 260.546 182.334 260.823C183.825 261.117 184.365 259.188 184.287 257.32Z" fill="#7F3E3B"/>
<path d="M242.948 129.811C247.485 130.443 250.531 135.837 253.293 144.28C250.959 148.794 247.338 152.407 242.948 154.6C240.598 149.704 238.262 143.135 237.829 139.535C237.396 135.934 238.013 129.118 242.948 129.811Z" fill="#4DB1C8"/>
<path opacity="0.4" d="M242.948 129.811C247.485 130.443 250.531 135.837 253.293 144.28C250.959 148.794 247.338 152.407 242.948 154.6C240.598 149.704 238.262 143.135 237.829 139.535C237.396 135.934 238.013 129.118 242.948 129.811Z" fill="white"/>
<path d="M246.597 263.881C246.517 263.868 246.441 263.837 246.373 263.792C246.305 263.746 246.246 263.686 246.2 263.616C246.154 263.545 246.123 263.466 246.107 263.382C246.091 263.298 246.091 263.212 246.107 263.128L257.19 195.471C257.203 195.387 257.232 195.306 257.275 195.234C257.318 195.161 257.374 195.099 257.44 195.05C257.507 195.002 257.582 194.968 257.661 194.951C257.74 194.934 257.821 194.934 257.9 194.952V194.952C257.979 194.966 258.055 194.997 258.123 195.043C258.19 195.089 258.249 195.149 258.294 195.219C258.34 195.289 258.372 195.368 258.389 195.452C258.405 195.535 258.405 195.621 258.39 195.705L247.307 263.354C247.295 263.439 247.267 263.521 247.224 263.594C247.182 263.667 247.126 263.73 247.059 263.78C246.993 263.829 246.917 263.864 246.838 263.881C246.758 263.898 246.677 263.899 246.597 263.881V263.881Z" fill="#E0E0E0"/>
<path d="M249.458 195.554C249.46 195.387 249.524 195.227 249.635 195.109C249.747 194.991 249.897 194.923 250.055 194.921H257.808C257.966 194.921 258.118 194.988 258.23 195.107C258.342 195.225 258.405 195.386 258.405 195.554C258.405 195.637 258.391 195.72 258.361 195.797C258.331 195.875 258.288 195.945 258.232 196.004C258.176 196.063 258.11 196.109 258.037 196.141C257.965 196.172 257.887 196.188 257.808 196.187H250.055C249.897 196.187 249.745 196.12 249.633 196.002C249.521 195.883 249.458 195.722 249.458 195.554V195.554Z" fill="#E0E0E0"/>
<path d="M249.664 200.352H249.735C250.045 200.352 250.296 200.086 250.296 199.757V192.639C250.296 192.311 250.045 192.044 249.735 192.044H249.664C249.354 192.044 249.103 192.311 249.103 192.639V199.757C249.103 200.086 249.354 200.352 249.664 200.352Z" fill="#E0E0E0"/>
<path d="M253.292 241.563C253.293 242.202 253.116 242.828 252.782 243.361C252.447 243.893 251.972 244.309 251.415 244.554C250.858 244.8 250.245 244.864 249.654 244.74C249.062 244.615 248.519 244.307 248.092 243.855C247.666 243.403 247.376 242.826 247.258 242.199C247.141 241.571 247.202 240.921 247.433 240.33C247.665 239.739 248.056 239.235 248.558 238.88C249.06 238.526 249.65 238.337 250.253 238.339C251.059 238.339 251.832 238.678 252.402 239.283C252.972 239.887 253.292 240.707 253.292 241.563Z" fill="white"/>
<path d="M251.176 195.554C251.176 195.863 251.09 196.164 250.929 196.42C250.767 196.677 250.538 196.877 250.269 196.995C250 197.113 249.705 197.144 249.42 197.083C249.135 197.023 248.873 196.875 248.667 196.657C248.462 196.439 248.322 196.161 248.265 195.858C248.208 195.556 248.237 195.242 248.349 194.958C248.46 194.673 248.648 194.429 248.89 194.258C249.132 194.086 249.416 193.995 249.707 193.995C250.096 193.995 250.47 194.159 250.746 194.452C251.021 194.744 251.176 195.141 251.176 195.554Z" fill="white"/>
<path d="M237.175 195.102C236.815 194.957 236.466 194.78 236.132 194.575C235.833 194.39 235.594 194.115 235.446 193.783C235.298 193.452 235.248 193.081 235.303 192.719C235.357 192.357 235.514 192.021 235.752 191.756C235.99 191.49 236.298 191.307 236.636 191.23C241.087 190.198 249.465 188.135 253.079 186.711C251.851 190.274 243.956 194.756 241.379 195.29C239.986 195.623 238.536 195.558 237.175 195.102V195.102Z" fill="black"/>
<path d="M237.175 195.102C240.207 196.014 243.189 193.355 243.239 189.694C243.244 189.284 243.364 188.886 243.583 188.548C243.801 188.21 244.109 187.948 244.467 187.796C247.563 186.485 254.159 184.474 257.361 183.525C257.599 183.452 257.851 183.438 258.095 183.485C258.339 183.532 258.57 183.637 258.77 183.794C258.97 183.95 259.133 184.154 259.247 184.388C259.361 184.622 259.422 184.881 259.427 185.144C259.469 187.404 258.859 190.688 255.167 191.78C243.068 195.366 239.895 196.202 237.175 195.102Z" fill="#263238"/>
<path d="M197.996 49.9221C202.163 31.1922 191.229 12.425 173.574 8.00432C155.92 3.58367 138.23 15.1836 134.063 33.9135C129.896 52.6433 140.83 71.4106 158.485 75.8312C176.139 80.2519 193.829 68.6519 197.996 49.9221Z" fill="#4DB1C8"/>
<path d="M137.555 47.2096L123.667 62.9148L143.846 63.9392L137.555 47.2096Z" fill="#4DB1C8"/>
<path d="M194.175 48.9653C197.844 32.4744 188.217 15.9506 172.673 12.0584C157.129 8.16624 141.554 18.3795 137.885 34.8704C134.216 51.3612 143.843 67.885 159.387 71.7772C174.931 75.6694 190.506 65.4561 194.175 48.9653Z" fill="white"/>
<path d="M146.261 36.4306C148.174 37.0894 150.036 37.908 151.827 38.8787C153.606 39.8217 155.336 40.8651 157.01 42.0047C157.841 42.5847 158.679 43.1571 159.481 43.7899C160.283 44.4226 161.086 45.0629 161.867 45.7257C163.467 47.0941 164.972 48.5845 166.368 50.1849L160.802 50.5842C162.324 47.9747 164.04 45.4987 165.935 43.1797C167.79 40.9189 169.768 38.7736 171.856 36.7545C173.946 34.7552 176.144 32.8865 178.438 31.1579C180.744 29.3847 183.196 27.8368 185.765 26.533C184.345 29.207 182.776 31.655 181.179 34.0654C179.581 36.4758 177.934 38.7958 176.294 41.0932L171.324 47.8725C169.691 50.1322 168.1 52.3392 166.624 54.5613L163.883 58.674L161.043 54.9605C159.935 53.4992 158.728 52.0304 157.493 50.5465L153.709 46.027C152.438 44.5205 151.153 43.014 149.896 41.3795C148.639 39.7449 147.475 38.1932 146.261 36.4306Z" fill="#4DB1C8"/>
</svg>
