<svg width="307" height="279" viewBox="0 0 307 279" fill="none" xmlns="http://www.w3.org/2000/svg">
<path d="M304.49 152.71C304.49 152.71 298.91 148.512 290.77 161.675C282.63 174.837 279.344 182.486 279.344 182.486C279.344 182.486 277.244 185.215 275.368 183.186C273.491 181.156 271.118 175.691 267.616 176.405C264.021 177.147 262.532 180.926 262.798 186.65C263.064 192.374 263.158 204.921 263.165 206.062C263.172 207.202 262.396 208.763 260.893 207.594C259.39 206.426 250.999 195.922 246.116 200.093C241.234 204.263 244.678 220.085 244.994 221.821C245.311 223.556 244.937 224.256 244.074 224.62C243.211 224.984 240.737 221.198 238.228 218.322C235.718 215.446 232.281 212.5 229.671 215.138C227.061 217.776 225.443 229.35 235.424 249.042L240.666 257.866L251.185 258.027C273.735 257.062 283.371 250.064 284.485 246.565C285.6 243.066 281.307 241.555 277.489 240.806C273.671 240.057 269.069 239.784 268.982 238.874C268.896 237.965 269.335 237.286 271.06 236.733C272.786 236.18 288.678 231.464 290.073 225.292C291.468 219.12 277.956 217.055 276.187 216.334C274.418 215.614 275.468 214.193 276.475 213.654C277.482 213.115 288.843 207.139 294.114 204.599C299.384 202.059 302.088 199.001 301.01 195.544C299.96 192.22 293.876 192.843 291.166 192.213C288.455 191.583 289.893 188.483 289.893 188.483C289.893 188.483 295.214 181.975 303.124 168.693C311.033 155.412 304.389 152.598 304.389 152.598" fill="#EBEBEB"/>
<path d="M297.176 164.467C297.131 164.563 297.081 164.656 297.025 164.747C296.918 164.95 296.759 165.222 296.558 165.572L294.717 168.728C293.114 171.464 290.762 175.411 287.843 180.282C282.004 190.009 273.828 203.374 264.747 218.14C255.665 232.905 247.446 246.25 241.557 255.928C238.623 260.777 236.25 264.703 234.596 267.425L232.705 270.553L232.202 271.358C232.147 271.453 232.087 271.544 232.022 271.631L232.173 271.344L232.648 270.518C233.079 269.819 233.697 268.727 234.488 267.369C236.092 264.626 238.443 260.68 241.363 255.816C247.201 246.082 255.377 232.723 264.466 217.951C273.555 203.179 281.76 189.848 287.642 180.163C290.575 175.32 292.956 171.395 294.602 168.665L296.501 165.544C296.716 165.194 296.882 164.929 296.997 164.733C297.112 164.537 297.176 164.467 297.176 164.467Z" fill="#E0E0E0"/>
<path d="M270.622 184.236C270.717 184.461 270.787 184.695 270.83 184.935C270.952 185.397 271.103 186.069 271.283 186.895C271.635 188.553 272.067 190.856 272.491 193.41C272.915 195.964 273.275 198.196 273.555 199.939C273.692 200.722 273.8 201.38 273.893 201.912C273.951 202.153 273.982 202.399 273.987 202.647C273.886 202.423 273.814 202.188 273.771 201.947C273.649 201.485 273.498 200.813 273.332 199.988C272.995 198.322 272.613 196.013 272.168 193.466C271.722 190.919 271.348 188.679 271.053 186.944L270.708 184.97C270.65 184.73 270.621 184.483 270.622 184.236V184.236Z" fill="#E0E0E0"/>
<path d="M274.936 202.899C274.936 202.815 279.754 201.744 285.722 200.513C291.69 199.281 296.58 198.343 296.601 198.413C296.623 198.483 291.777 199.568 285.815 200.8C279.854 202.031 274.95 202.983 274.936 202.899Z" fill="#E0E0E0"/>
<path d="M259.936 224.935C260.192 224.911 260.45 224.911 260.705 224.935L262.805 225.089C264.574 225.214 267.019 225.382 269.723 225.466C272.426 225.55 274.878 225.557 276.654 225.543H278.754C279.012 225.518 279.272 225.518 279.531 225.543C279.278 225.602 279.02 225.633 278.761 225.634C278.265 225.676 277.546 225.718 276.661 225.753C274.885 225.823 272.426 225.858 269.715 225.753C267.004 225.648 264.552 225.466 262.784 225.284C261.899 225.186 261.187 225.103 260.691 225.033C260.436 225.034 260.182 225.001 259.936 224.935Z" fill="#E0E0E0"/>
<path d="M252.213 208.889C252.361 209.074 252.484 209.276 252.58 209.491L253.472 211.17C254.191 212.57 255.219 214.571 256.312 216.768C257.405 218.966 258.369 220.967 259.059 222.402L259.857 224.13C259.968 224.337 260.055 224.555 260.116 224.781C259.968 224.595 259.842 224.393 259.742 224.179C259.505 223.724 259.203 223.164 258.85 222.5C258.131 221.1 257.11 219.099 256.017 216.901C254.924 214.704 253.954 212.703 253.263 211.268C252.954 210.568 252.681 210.008 252.465 209.54C252.354 209.334 252.269 209.115 252.213 208.889Z" fill="#E0E0E0"/>
<path d="M236.43 226.712C236.614 226.952 236.771 227.21 236.897 227.482C237.192 228.042 237.616 228.763 238.048 229.63C239.004 231.45 240.313 233.976 241.736 236.775C243.16 239.574 244.44 242.115 245.332 243.962C245.763 244.844 246.115 245.578 246.389 246.152C246.533 246.416 246.65 246.693 246.741 246.978C246.562 246.737 246.408 246.479 246.281 246.208L245.123 244.06C244.167 242.241 242.858 239.714 241.434 236.915C240.011 234.116 238.731 231.576 237.839 229.728L236.782 227.531C236.639 227.269 236.521 226.995 236.43 226.712Z" fill="#E0E0E0"/>
<path d="M246.647 246.425C246.975 246.398 247.305 246.398 247.633 246.425L250.293 246.523C252.544 246.607 255.65 246.712 259.087 246.726C262.524 246.74 265.631 246.691 267.881 246.635L270.549 246.572C270.877 246.547 271.206 246.547 271.534 246.572C271.212 246.638 270.885 246.675 270.556 246.684C269.931 246.733 269.018 246.796 267.896 246.852C265.645 246.964 262.524 247.062 259.087 247.041C255.65 247.02 252.529 246.88 250.286 246.74C249.157 246.67 248.251 246.6 247.618 246.544C247.292 246.529 246.967 246.49 246.647 246.425V246.425Z" fill="#E0E0E0"/>
<path d="M280.196 108.611L226.887 124.958L238.209 159.925L291.518 143.577L280.196 108.611Z" fill="white"/>
<path d="M291.525 143.558C291.525 143.558 291.446 143.341 291.302 142.921C291.158 142.501 290.949 141.878 290.683 141.073C290.151 139.45 289.367 137.078 288.368 134.041C286.383 127.966 283.529 119.254 280.056 108.631L280.242 108.729L226.953 125.111L227.075 124.88C231.109 137.343 234.941 149.198 238.386 159.869L238.17 159.757L276.582 148.064L287.577 144.74L290.504 143.858L291.266 143.635L291.532 143.565L291.287 143.648L290.568 143.886L287.692 144.789L276.762 148.19L238.299 160.086L238.134 160.135L238.084 159.974C234.625 149.324 230.785 137.476 226.744 124.985L226.687 124.81L226.866 124.754L280.185 108.436L280.329 108.394L280.372 108.534C283.795 119.205 286.606 127.966 288.562 134.076C289.526 137.106 290.281 139.471 290.791 141.073C291.043 141.871 291.237 142.473 291.366 142.907C291.496 143.341 291.525 143.558 291.525 143.558Z" fill="#E0E0E0"/>
<path d="M280.199 108.589C280.199 108.589 280.199 108.645 280.127 108.75L279.883 109.198L278.905 110.912C278.035 112.424 276.791 114.565 275.259 117.211C272.124 122.543 267.803 129.884 262.992 138.071L262.913 138.204L262.762 138.148L261.115 137.553L236.89 128.708L229.563 125.993L227.578 125.237L227.06 125.027C226.999 125.01 226.941 124.984 226.888 124.95C226.952 124.954 227.015 124.968 227.075 124.992L227.6 125.167L229.613 125.867L236.969 128.463L261.237 137.203L262.884 137.805L262.661 137.882C267.508 129.716 271.865 122.396 275.022 117.078C276.604 114.46 277.898 112.34 278.775 110.843L279.811 109.163C279.926 108.988 280.012 108.848 280.084 108.729C280.117 108.679 280.156 108.632 280.199 108.589V108.589Z" fill="#E0E0E0"/>
<path d="M75.2516 28.3105C75.1388 27.8521 75.0832 27.3822 75.0863 26.9109C75.0703 26.3587 75.0077 25.8087 74.8993 25.2664C74.8082 24.5194 74.6592 23.7802 74.4535 23.0551C73.9641 21.0524 73.1691 19.1323 72.0949 17.3589C69.5855 13.0954 65.6303 9.81424 60.9074 8.07786C56.1844 6.34148 50.9878 6.25805 46.2086 7.84188C44.2257 8.48389 42.3559 9.4185 40.6646 10.613C38.8747 11.8084 37.2983 13.2811 35.9979 14.9726C33.1897 18.5028 31.615 22.8144 31.5037 27.2775C31.3925 31.7405 32.7505 36.1213 35.3795 39.7799C36.0066 40.6524 36.6912 41.4846 37.4288 42.2711C38.1795 43.0205 38.9794 43.7217 39.8233 44.3704C41.45 45.6337 43.2664 46.6462 45.2091 47.3725C49.9131 49.1737 55.1135 49.3309 59.9233 47.8174C64.7331 46.3039 68.8545 43.2135 71.5844 39.0731C72.7445 37.3447 73.6339 35.458 74.2234 33.4748C74.4591 32.7579 74.6441 32.0261 74.7771 31.2845C74.9085 30.7458 74.9998 30.1986 75.0503 29.647C75.069 29.1732 75.1463 28.7033 75.2804 28.2475C75.3351 28.7125 75.3351 29.182 75.2804 29.647C75.2757 30.2079 75.2228 30.7673 75.1222 31.3195C75.0309 32.0808 74.8795 32.8342 74.6692 33.5728C74.144 35.625 73.2924 37.5847 72.1453 39.381C70.4681 42.0398 68.226 44.3188 65.5696 46.0653C62.9131 47.8117 59.9036 48.9851 56.7429 49.5068C52.739 50.161 48.6278 49.7525 44.8424 48.3242C42.7906 47.5747 40.8697 46.522 39.1474 45.2032C38.255 44.5281 37.4094 43.7965 36.6163 43.0129C35.8374 42.1888 35.1167 41.3144 34.4591 40.3957C31.6725 36.5447 30.2294 31.9251 30.3421 27.2164C30.4547 22.5077 32.117 17.9585 35.0847 14.2379C36.4627 12.4613 38.1316 10.9175 40.0246 9.66831C41.8085 8.43009 43.7779 7.46706 45.8634 6.8132C49.716 5.56989 53.8411 5.3572 57.8071 6.19739C60.9379 6.86694 63.8853 8.18062 66.4513 10.0502C69.0174 11.9198 71.1427 14.3021 72.6846 17.037C73.7425 18.8849 74.497 20.8824 74.9209 22.9571C75.0948 23.7054 75.2078 24.4659 75.2588 25.2314C75.3346 25.788 75.3611 26.3499 75.3379 26.9109C75.3624 27.3791 75.3335 27.8485 75.2516 28.3105V28.3105Z" fill="#E0E0E0"/>
<path d="M70.8149 14.8326C70.8652 14.9026 70.4625 15.2385 69.6931 15.7983L68.255 16.792C67.9746 16.981 67.6797 17.1979 67.349 17.3938L66.256 17.9537C62.2923 20.1517 57.7872 21.255 53.2265 21.1447L51.2563 21.0607L49.358 20.7738C49.0488 20.7178 48.7396 20.6828 48.4376 20.6198L47.5531 20.3889C46.9779 20.2349 46.3954 20.102 45.8489 19.934C43.921 19.2976 42.0676 18.4649 40.3193 17.4498C37.3496 15.7004 35.9042 14.1119 36.0049 14.0139C36.1056 13.9159 37.7379 15.2105 40.7292 16.722C42.4753 17.5979 44.2967 18.3238 46.1725 18.8914C46.7046 19.0383 47.2583 19.1503 47.8192 19.2902L48.6677 19.5002L49.5449 19.6261L51.357 19.885L53.2409 19.962C57.6183 20.0376 61.9491 19.077 65.8605 17.1629L66.9607 16.701C67.2986 16.5261 67.6006 16.3442 67.8955 16.1902L69.4271 15.4134C70.2756 14.9796 70.7645 14.7697 70.8149 14.8326Z" fill="#E0E0E0"/>
<path d="M35.3509 41.0604C35.3006 40.9975 35.7032 40.6616 36.4726 40.1017L37.9108 39.101C38.1984 38.9121 38.4932 38.7022 38.824 38.4992L39.9098 37.9464C43.8752 35.7461 48.3832 34.6427 52.9464 34.7554L54.9166 34.8394L56.815 35.1263C57.1242 35.1753 57.4334 35.2173 57.7354 35.2732L58.6126 35.5042C59.1951 35.6651 59.7703 35.7981 60.3168 35.966C62.2455 36.5976 64.0993 37.428 65.8464 38.4432C68.8234 40.1927 70.2687 41.7812 70.1608 41.8862C70.053 41.9911 68.4279 40.6895 65.4366 39.178C63.6919 38.299 61.8703 37.5731 59.9932 37.0087C59.4611 36.8617 58.9075 36.7428 58.3466 36.6028L57.4981 36.3999L56.6136 36.2739L54.8088 36.015L52.8889 35.931C48.5163 35.858 44.1909 36.8185 40.2837 38.7302L39.1835 39.199C38.8455 39.367 38.5363 39.5489 38.2487 39.7099L36.7315 40.5216C35.8902 40.9205 35.4012 41.1304 35.3509 41.0604Z" fill="#E0E0E0"/>
<path d="M75.2372 28.8144C75.2372 29.1433 65.2998 29.1712 53.0613 28.8843C40.8228 28.5974 30.8997 28.0936 30.9141 27.7647C30.9285 27.4358 40.8444 27.4078 53.09 27.6947C65.3357 27.9816 75.2444 28.4855 75.2372 28.8144Z" fill="#E0E0E0"/>
<path d="M52.055 49.3389C51.717 49.3389 51.6811 39.6679 51.9831 27.7647C52.2851 15.8614 52.7884 6.20443 53.1264 6.21143C53.4644 6.21843 53.4931 15.8824 53.1983 27.7927C52.9035 39.7029 52.3858 49.3459 52.055 49.3389Z" fill="#E0E0E0"/>
<path d="M52.0545 49.3038C51.9682 49.4298 49.5234 47.8203 46.7047 44.1674C45.0605 42.0238 43.7296 39.6688 42.7498 37.1696C41.5531 34.093 40.9699 30.8227 41.0312 27.5336C41.1126 24.2294 41.873 20.9744 43.2675 17.9606C44.3908 15.5244 45.8416 13.2442 47.5819 11.1798C50.566 7.68086 53.0324 6.11335 53.1115 6.23931C53.1906 6.36527 51.0047 8.13572 48.265 11.6976C46.6668 13.7656 45.3316 16.0143 44.2886 18.3945C43.02 21.2877 42.327 24.389 42.2465 27.5336C42.1913 30.6875 42.7174 33.8255 43.7996 36.7987C44.7006 39.2322 45.9082 41.5475 47.395 43.6916C50.0124 47.3654 52.1696 49.1709 52.0545 49.3038Z" fill="#E0E0E0"/>
<path d="M53.6079 6.21849C53.6942 6.09253 56.139 7.70902 58.9578 11.3549C60.6018 13.4997 61.935 15.8544 62.9198 18.3527C64.1134 21.442 64.6942 24.7237 64.6312 28.0236C64.5489 31.3256 63.7885 34.5781 62.3949 37.5896C61.2729 40.0287 59.822 42.3114 58.0805 44.3775C55.0964 47.8764 52.63 49.4439 52.5509 49.318C52.4718 49.192 54.6578 47.4146 57.3974 43.8597C58.997 41.7888 60.3345 39.5379 61.381 37.1558C62.6521 34.2557 63.3475 31.1475 63.4304 27.9957C63.4855 24.8418 62.9595 21.7038 61.8772 18.7306C60.9748 16.2977 59.7672 13.9826 58.2819 11.8377C55.7004 8.16387 53.5001 6.35144 53.6079 6.21849Z" fill="#E0E0E0"/>
<path d="M191.848 28.9339C192.288 28.7398 192.668 28.4356 192.948 28.0521C193.271 27.5797 193.42 27.015 193.372 26.4496C193.33 26.1015 193.24 25.7603 193.106 25.4349L192.675 24.2523L187.469 10.0398C186.929 8.54924 186.361 6.98173 185.764 5.35125C185.47 4.5325 185.168 3.69976 184.866 2.85303C184.734 2.42932 184.566 2.01729 184.362 1.62142C184.129 1.25652 183.795 0.963017 183.399 0.774681C182.995 0.583705 182.54 0.520103 182.097 0.592739C181.636 0.714357 181.182 0.861552 180.738 1.0336L177.912 2.04828L172.001 4.14763L145.648 13.5807C145.121 13.7835 144.689 14.1684 144.436 14.6616C144.182 15.1549 144.125 15.7219 144.274 16.2538C144.677 17.3735 145.072 18.4931 145.468 19.5988C146.264 21.8241 147.05 24.0167 147.827 26.1767L152.278 38.6048C152.457 39.1017 152.637 39.5915 152.81 40.0814C152.949 40.5418 153.23 40.9496 153.615 41.25C153.993 41.5392 154.457 41.7013 154.938 41.7118C155.436 41.6851 155.924 41.5664 156.376 41.362L161.956 39.3816L171.98 35.8407L186.505 30.7463L190.46 29.3467L191.495 29.0038C191.612 28.9587 191.732 28.9236 191.855 28.8989C191.743 28.9555 191.628 29.0046 191.51 29.0458L190.496 29.4307L186.57 30.8722L172.095 36.1066L162.086 39.6965L156.513 41.6909L155.794 41.9498C155.527 42.0369 155.248 42.0795 154.967 42.0757C154.395 42.0622 153.844 41.8709 153.392 41.5299C152.945 41.1826 152.617 40.7117 152.45 40.1793C152.27 39.6895 152.098 39.1996 151.918 38.7028L147.438 26.2817C146.662 24.1264 145.873 21.936 145.072 19.7107L143.857 16.3378C143.677 15.6991 143.747 15.0182 144.052 14.4264C144.358 13.8346 144.877 13.3738 145.511 13.1328L171.85 3.76974L177.768 1.6704L180.609 0.662716C181.076 0.476372 181.556 0.324329 182.047 0.207861C182.566 0.127481 183.098 0.203161 183.571 0.424791C184.033 0.645511 184.42 0.990365 184.686 1.41848C184.904 1.83554 185.082 2.27124 185.218 2.72007C185.52 3.56681 185.815 4.39955 186.11 5.21829C186.694 6.85578 187.253 8.42562 187.785 9.92781L192.818 24.1334C192.969 24.5532 193.106 24.9451 193.235 25.323C193.381 25.6675 193.475 26.0303 193.516 26.4006C193.565 26.993 193.397 27.5831 193.041 28.0661C192.825 28.3607 192.539 28.6006 192.207 28.7659C192.096 28.8385 191.975 28.8951 191.848 28.9339Z" fill="#E0E0E0"/>
<path d="M169.342 18.2057L175.31 19.3533L171.391 23.9789L167.472 28.5974L165.423 22.8313L163.374 17.0651L169.342 18.2057Z" fill="#E0E0E0"/>
<path d="M278.525 70.9202C277.52 70.3482 276.406 69.9801 275.25 69.8382C274.095 69.6963 272.922 69.7835 271.802 70.0945C269.565 70.7316 267.509 71.8591 265.79 73.3905C262.389 76.2386 260.095 80.7522 258.686 84.9019C263.511 86.1265 268.753 83.6842 271.291 82.2847C275.347 80.0664 281.293 73.6704 278.525 70.9202" fill="#4DB1C8"/>
<path d="M250.136 85.4056C251.334 84.9111 252.378 84.1176 253.16 83.1052C253.943 82.0927 254.438 80.8973 254.594 79.6394C254.723 78.3811 254.594 77.1104 254.215 75.9009C253.836 74.6913 253.215 73.5669 252.386 72.5926C251.667 71.6829 250.617 70.8361 249.424 70.8221C248.862 70.8519 248.318 71.0263 247.848 71.3275C247.378 71.6287 246.999 72.046 246.749 72.5366C246.271 73.5299 246.067 74.6274 246.159 75.7206C246.303 79.4574 247.151 83.0473 250.136 85.4056" fill="#4DB1C8"/>
<g opacity="0.4">
<path opacity="0.4" d="M250.136 85.4056C251.334 84.9111 252.378 84.1176 253.16 83.1052C253.943 82.0927 254.438 80.8973 254.594 79.6394C254.723 78.3811 254.594 77.1104 254.215 75.9009C253.836 74.6913 253.215 73.5669 252.386 72.5926C251.667 71.6829 250.617 70.8361 249.424 70.8221C248.862 70.8519 248.318 71.0263 247.848 71.3275C247.378 71.6287 246.999 72.046 246.749 72.5366C246.271 73.5299 246.067 74.6274 246.159 75.7206C246.303 79.4574 247.151 83.0473 250.136 85.4056" fill="white"/>
</g>
<path d="M241.55 96.8118C241.798 96.6313 242.026 96.4273 242.233 96.203L244.023 94.4815C246.064 92.6289 247.785 90.4694 249.122 88.0855C250.428 85.6607 251.046 82.9407 250.912 80.206C250.858 79.384 250.704 78.5711 250.452 77.7848C250.387 77.57 250.308 77.3597 250.215 77.155C250.157 77.0104 250.121 76.9404 250.107 76.945C250.413 78.0147 250.606 79.1121 250.682 80.22C250.738 82.896 250.103 85.5429 248.834 87.9176C247.505 90.2702 245.828 92.4204 243.858 94.2996C243.139 95.0484 242.535 95.6572 242.139 96.091C241.922 96.3141 241.724 96.5553 241.55 96.8118V96.8118Z" fill="#263238"/>
<path d="M273.556 75.3779C273.43 75.4281 273.31 75.489 273.196 75.5599L272.211 76.1337C271.355 76.6375 270.126 77.3863 268.616 78.317C265.595 80.1854 261.461 82.8236 256.967 85.8327C252.473 88.8417 248.475 91.6618 245.598 93.7402C244.16 94.7828 243.002 95.6296 242.211 96.2314L241.313 96.9312C241.201 97.007 241.097 97.0938 241.003 97.1901C241.126 97.133 241.242 97.0626 241.349 96.9802L242.291 96.3364L245.728 93.9291C248.604 91.8998 252.659 89.1146 257.154 86.1056C261.648 83.0965 265.782 80.4304 268.745 78.513L272.283 76.2457L273.239 75.6229C273.351 75.5488 273.456 75.467 273.556 75.3779V75.3779Z" fill="#263238"/>
<path d="M251.56 92.1235C254.049 91.0049 256.777 90.4799 259.517 90.5918C262.257 90.7038 264.93 91.4495 267.314 92.7673C268.515 93.467 269.766 94.5517 269.572 95.8953C269.378 97.2389 267.868 97.9946 266.509 98.2745C263.661 98.8654 260.697 98.6225 257.99 97.5764C255.284 96.5303 252.956 94.7279 251.301 92.3964" fill="#4DB1C8"/>
<path d="M263.474 94.6007C263.25 94.4262 263.01 94.2738 262.755 94.1458C262.51 94.0129 262.216 93.8449 261.849 93.684C261.446 93.4885 261.033 93.3134 260.612 93.1591C260.104 92.9626 259.586 92.7921 259.059 92.6483C258.454 92.471 257.839 92.3261 257.218 92.2144C255.795 91.9711 254.347 91.8842 252.904 91.9555C251.46 92.0481 250.031 92.3017 248.647 92.7113C248.047 92.8968 247.459 93.1164 246.885 93.3691C246.393 93.5755 245.912 93.8091 245.447 94.0688C245.001 94.2858 244.635 94.5587 244.297 94.7686C244.009 94.9452 243.733 95.1392 243.47 95.3494C243.233 95.5147 243.012 95.6997 242.808 95.9023C242.851 95.9582 243.808 95.2025 245.555 94.2718C246.034 94.014 246.526 93.7804 247.029 93.572C247.561 93.3411 248.151 93.1591 248.776 92.9562C251.506 92.1581 254.39 91.9927 257.197 92.4733C257.808 92.5675 258.413 92.6984 259.009 92.8652C259.534 92.9957 260.053 93.1522 260.562 93.3341C262.374 94.0129 263.438 94.6567 263.474 94.6007Z" fill="#263238"/>
<path d="M62.165 172.598C74.648 162.549 76.2587 145.608 74.4826 130.612C74.1878 128.106 74.2525 125.447 72.8431 123.341C71.4338 121.234 68.4497 119.961 66.2277 121.199C64.3869 122.228 63.7326 124.46 62.8122 126.336C61.5813 128.838 59.6496 130.95 57.2394 132.431C55.6719 133.383 53.6441 134.054 51.9903 133.313C49.6677 132.291 49.1571 129.324 48.963 126.833C48.6083 122.167 48.2511 117.519 47.8916 112.886C47.6974 110.388 47.4961 107.841 46.5038 105.538C45.5115 103.236 43.5628 101.179 41.0677 100.703C38.5725 100.227 35.6747 101.837 35.3655 104.321C35.3563 105.359 35.4187 106.397 35.5524 107.428C35.5524 108.47 35.1641 109.653 34.179 110.024C33.1939 110.395 32.1009 109.772 31.3028 109.1C28.4265 106.791 26.3843 103.691 24.4357 100.598C22.487 97.5049 20.5887 94.3349 17.9641 91.7737C15.3395 89.2125 11.8377 87.3091 8.14885 87.3931C4.46005 87.477 0.735291 89.9962 0.102513 93.5721C-0.530264 97.148 1.87141 100.57 4.4169 103.229C8.17165 107.18 12.4921 110.583 17.245 113.334C18.1572 113.734 18.9134 114.409 19.4022 115.258C20.1213 116.875 18.6184 118.652 16.979 119.338C15.1166 120.108 13.0313 120.073 11.0539 120.465C9.07645 120.857 6.98397 121.864 6.37995 123.775C5.53865 126.406 7.9547 128.904 10.2557 130.486C14.8647 133.65 19.9997 136.017 25.4352 137.483C27.3767 138.008 29.4044 138.435 31.0367 139.583C32.669 140.73 33.7691 142.921 32.9926 144.754C32.216 146.588 29.879 147.371 27.8656 147.196C25.8522 147.021 24.0114 146.091 22.07 145.545C18.4746 144.53 13.9158 145.125 11.9024 148.267C10.5865 150.331 10.68 153.053 11.6219 155.314C12.6729 157.532 14.1691 159.524 16.0226 161.171C22.1458 167.252 29.8184 171.642 38.2561 173.893C46.6548 175.992 54.2841 176.153 62.165 172.619" fill="#4DB1C8"/>
<g opacity="0.2">
<path opacity="0.2" d="M62.165 172.598C74.648 162.549 76.2587 145.608 74.4826 130.612C74.1878 128.106 74.2525 125.447 72.8431 123.341C71.4338 121.234 68.4497 119.961 66.2277 121.199C64.3869 122.228 63.7326 124.46 62.8122 126.336C61.5813 128.838 59.6496 130.95 57.2394 132.431C55.6719 133.383 53.6441 134.054 51.9903 133.313C49.6677 132.291 49.1571 129.324 48.963 126.833C48.6083 122.167 48.2511 117.519 47.8916 112.886C47.6974 110.388 47.4961 107.841 46.5038 105.538C45.5115 103.236 43.5628 101.179 41.0677 100.703C38.5725 100.227 35.6747 101.837 35.3655 104.321C35.3563 105.359 35.4187 106.397 35.5524 107.428C35.5524 108.47 35.1641 109.653 34.179 110.024C33.1939 110.395 32.1009 109.772 31.3028 109.1C28.4265 106.791 26.3843 103.691 24.4357 100.598C22.487 97.5049 20.5887 94.3349 17.9641 91.7737C15.3395 89.2125 11.8377 87.3091 8.14885 87.3931C4.46005 87.477 0.735291 89.9962 0.102513 93.5721C-0.530264 97.148 1.87141 100.57 4.4169 103.229C8.17165 107.18 12.4921 110.583 17.245 113.334C18.1572 113.734 18.9134 114.409 19.4022 115.258C20.1213 116.875 18.6184 118.652 16.979 119.338C15.1166 120.108 13.0313 120.073 11.0539 120.465C9.07645 120.857 6.98397 121.864 6.37995 123.775C5.53865 126.406 7.9547 128.904 10.2557 130.486C14.8647 133.65 19.9997 136.017 25.4352 137.483C27.3767 138.008 29.4044 138.435 31.0367 139.583C32.669 140.73 33.7691 142.921 32.9926 144.754C32.216 146.588 29.879 147.371 27.8656 147.196C25.8522 147.021 24.0114 146.091 22.07 145.545C18.4746 144.53 13.9158 145.125 11.9024 148.267C10.5865 150.331 10.68 153.053 11.6219 155.314C12.6729 157.532 14.1691 159.524 16.0226 161.171C22.1458 167.252 29.8184 171.642 38.2561 173.893C46.6548 175.992 54.2841 176.153 62.165 172.619" fill="white"/>
</g>
<path d="M63.2935 183.718C61.9945 176.811 60.0176 170.041 57.39 163.501C54.1456 155.533 50.4339 147.753 46.2732 140.199L43.0374 134.229C41.966 132.27 40.8802 130.332 39.7513 128.498C37.5278 124.975 35.1032 121.576 32.4887 118.316C30.0224 115.181 27.556 112.298 25.2334 109.625C22.9108 106.952 20.6889 104.496 18.5676 102.34C15.234 98.9281 11.6273 95.7785 7.78168 92.9214C6.42264 91.9067 5.34405 91.1579 4.6106 90.6611L3.7621 90.0943C3.6721 90.0237 3.57299 89.9648 3.46729 89.9193C3.54924 89.9991 3.63827 90.0717 3.73334 90.1363L4.55307 90.7311C5.27214 91.2559 6.32916 92.0327 7.66663 93.0613C11.4565 95.9668 15.0164 99.1458 18.316 102.571C20.4156 104.734 22.6304 107.19 24.9242 109.87C27.218 112.55 29.6772 115.468 32.1148 118.575C34.7002 121.832 37.1007 125.224 39.3055 128.736C40.456 130.563 41.4627 132.487 42.57 134.446L45.8058 140.415C49.9572 147.967 53.6733 155.737 56.937 163.69C59.5852 170.187 61.6002 176.911 62.9555 183.774" fill="#263238"/>
<path d="M39.6154 128.456C39.7151 128.102 39.7706 127.738 39.7808 127.371C39.8599 126.672 39.9318 125.657 40.0109 124.397C40.1619 121.885 40.2554 118.414 40.3417 114.6C40.428 110.787 40.579 107.302 40.7659 104.803C40.8594 103.551 40.9457 102.536 41.0176 101.843C41.0787 101.48 41.0956 101.112 41.0679 100.745C40.9527 101.093 40.8755 101.452 40.8378 101.815C40.7084 102.515 40.5718 103.523 40.4352 104.768C40.1547 107.274 39.9606 110.752 39.8743 114.565C39.788 118.379 39.7305 121.773 39.6729 124.362C39.6729 125.545 39.6154 126.539 39.5938 127.336C39.5631 127.709 39.5704 128.084 39.6154 128.456V128.456Z" fill="#263238"/>
<path d="M6.14941 125.062C6.58765 125.122 7.03089 125.138 7.47249 125.111C8.32818 125.111 9.55778 125.111 11.0678 125.174C14.1095 125.251 18.3088 125.503 22.9324 125.979C27.556 126.455 31.7194 127.071 34.7179 127.603C36.2135 127.854 37.4288 128.092 38.2629 128.246C38.6923 128.352 39.1301 128.422 39.5716 128.456C39.1639 128.287 38.74 128.158 38.306 128.071C37.4791 127.861 36.2711 127.575 34.7754 127.274C31.7841 126.665 27.5847 126 22.9755 125.517C19.0212 125.086 15.0468 124.852 11.0678 124.817C9.5434 124.817 8.30661 124.852 7.47249 124.908C7.02757 124.92 6.58469 124.972 6.14941 125.062V125.062Z" fill="#263238"/>
<path d="M56.9375 162.941C57.02 162.815 57.0853 162.678 57.1317 162.535L57.599 161.332C58.0017 160.282 58.5338 158.75 59.181 156.853C60.4609 153.053 62.0572 147.756 63.7471 141.878C65.4369 136 66.99 130.681 68.1837 126.882C68.7733 125.02 69.2623 123.495 69.6218 122.361C69.7728 121.871 69.9022 121.465 70.0029 121.129C70.0594 120.988 70.0957 120.84 70.1108 120.689C70.1108 120.689 70.0245 120.822 69.9166 121.101C69.8088 121.381 69.6362 121.801 69.4492 122.305C69.0466 123.348 68.5073 124.88 67.8673 126.777C66.5874 130.577 64.991 135.874 63.294 141.752C61.597 147.63 60.0582 152.948 58.8574 156.748L57.4193 161.269C57.2611 161.766 57.1388 162.172 57.031 162.5C56.9815 162.643 56.9501 162.791 56.9375 162.941V162.941Z" fill="#263238"/>
<path d="M12.0171 152.669C12.1601 152.737 12.3128 152.784 12.4701 152.809L13.7716 153.124L18.5822 154.236C22.6449 155.167 28.2392 156.524 34.4016 158.029C40.564 159.534 46.1943 160.828 50.2785 161.703C52.3207 162.13 53.9745 162.459 55.125 162.669L56.4481 162.892C56.601 162.929 56.7582 162.946 56.9155 162.941C56.7738 162.876 56.624 162.829 56.4697 162.802L55.161 162.487L50.3504 161.381C46.2877 160.443 40.6934 159.086 34.531 157.581C28.3686 156.077 22.7384 154.782 18.6613 153.914C16.6191 153.487 14.9581 153.152 13.8148 152.949L12.4845 152.718C12.3309 152.685 12.1742 152.669 12.0171 152.669V152.669Z" fill="#263238"/>
<path d="M76.2586 41.4035C76.2586 41.4035 79.1996 115.125 79.7533 161.269C80.2782 205.411 65.1131 254.459 67.2703 269.903L249.604 279C249.604 279 241.126 164.936 244.362 128.897C247.454 94.5379 247.432 37.5477 247.432 37.5477L76.2586 41.4035Z" fill="#E0E0E0"/>
<path d="M69.0611 39.0103C69.0611 39.0103 72.074 112.732 72.6565 158.876C73.1958 203.018 65.0991 256.516 67.321 271.96L243.945 265.998C243.945 265.998 237.509 162.571 240.817 126.546C243.967 92.1866 243.931 35.8263 243.931 35.8263L69.0611 39.0103Z" fill="#EBEBEB"/>
<path d="M66.7593 39.0173C66.7593 39.0173 62.3155 120.192 62.8907 166.335C63.4444 210.471 65.0479 256.516 67.313 271.96L239.126 273.451C239.126 273.451 232.504 170.023 235.898 133.998C239.126 99.6113 239.126 38.4924 239.126 38.4924L66.7593 39.0173Z" fill="#FAFAFA"/>
<path d="M239.508 273.8L67.0044 272.31L66.9541 272.009C64.4589 255.151 63.0136 204.55 62.5318 166.342C61.9566 120.716 66.3572 39.8218 66.4004 38.9821V38.6532L239.472 38.1213V38.4712C239.472 39.08 239.472 100.052 236.244 134.012C232.886 169.596 239.407 272.373 239.472 273.409L239.508 273.8ZM67.6516 271.61L238.789 273.094C238.358 266.208 232.317 168.518 235.589 133.963C238.667 101.361 238.803 43.8875 238.811 38.8421L67.141 39.367C66.8318 45.0842 62.7404 122.207 63.294 166.328C63.7327 204.298 65.1636 254.5 67.6228 271.61H67.6516Z" fill="#263238"/>
<path d="M149.063 87.162H78.3506V153.746H149.063V87.162Z" fill="#4DB1C8"/>
<g opacity="0.3">
<path opacity="0.3" d="M83.8301 148.043L103.396 113.782L119.395 135.685L129.117 124.054L143.584 148.043H83.8301Z" fill="black"/>
</g>
<g opacity="0.3">
<path opacity="0.3" d="M126.233 107.12C126.233 108.1 125.935 109.058 125.375 109.873C124.816 110.687 124.021 111.322 123.09 111.697C122.16 112.072 121.137 112.17 120.149 111.979C119.161 111.788 118.254 111.316 117.542 110.623C116.83 109.93 116.346 109.048 116.149 108.087C115.953 107.125 116.053 106.129 116.439 105.224C116.824 104.319 117.477 103.545 118.314 103.001C119.151 102.456 120.135 102.166 121.142 102.166C122.492 102.166 123.787 102.688 124.742 103.617C125.697 104.546 126.233 105.806 126.233 107.12V107.12Z" fill="black"/>
</g>
<g opacity="0.3">
<path opacity="0.3" d="M143.585 148.232C143.576 148.141 143.576 148.05 143.585 147.959C143.585 147.756 143.585 147.504 143.585 147.182C143.585 146.483 143.585 145.475 143.585 144.187C143.585 141.542 143.542 137.728 143.506 132.879C143.47 123.152 143.419 109.303 143.362 92.6764L143.649 92.9563L83.9023 93.0053L84.2331 92.6834V107.631C84.2331 112.529 84.2331 117.316 84.2331 121.976C84.2331 131.304 84.2331 140.122 84.1971 148.232L83.9023 147.945L127.104 148.092L139.292 148.162L142.52 148.197H143.362H143.657H143.391H142.585L139.414 148.232L127.291 148.309L83.9023 148.456H83.6147V148.169C83.6147 140.059 83.6147 131.241 83.6147 121.913C83.6147 117.253 83.6147 112.459 83.6147 107.568V92.6834C83.3127 92.9703 84.0173 92.2775 83.9526 92.3475L143.7 92.3965H143.987V92.6764C143.923 109.38 143.872 123.285 143.836 133.054C143.836 137.875 143.779 141.675 143.764 144.299C143.764 145.566 143.764 146.546 143.729 147.245C143.729 147.553 143.729 147.798 143.729 147.987C143.688 148.073 143.64 148.155 143.585 148.232V148.232Z" fill="black"/>
</g>
<path d="M215.972 214.662H167.356V260.435H215.972V214.662Z" fill="#4DB1C8"/>
<g opacity="0.4">
<path opacity="0.4" d="M171.125 256.516L184.571 232.961L195.573 248.014L202.253 240.022L212.198 256.516H171.125Z" fill="black"/>
</g>
<g opacity="0.4">
<path opacity="0.4" d="M200.254 228.371C200.255 229.046 200.051 229.705 199.667 230.267C199.282 230.828 198.735 231.266 198.095 231.525C197.455 231.784 196.75 231.852 196.07 231.721C195.39 231.589 194.766 231.265 194.276 230.788C193.786 230.311 193.452 229.703 193.317 229.041C193.182 228.379 193.252 227.693 193.518 227.07C193.784 226.447 194.234 225.915 194.811 225.541C195.388 225.167 196.066 224.969 196.759 224.97C197.686 224.97 198.575 225.328 199.23 225.966C199.886 226.604 200.254 227.469 200.254 228.371V228.371Z" fill="black"/>
</g>
<g opacity="0.4">
<path opacity="0.4" d="M212.197 256.642C212.197 256.642 212.197 256.579 212.197 256.453C212.197 256.327 212.197 256.145 212.197 255.921C212.197 255.455 212.197 254.769 212.197 253.864C212.197 252.045 212.197 249.42 212.147 246.089C212.147 239.399 212.09 229.882 212.046 218.448L212.241 218.644H171.168L171.398 218.42V228.7C171.398 232.059 171.398 235.355 171.398 238.56C171.398 244.97 171.398 251.03 171.398 256.607L171.196 256.411L200.894 256.509L209.271 256.565H211.493H212.068H212.269C212.21 256.572 212.149 256.572 212.09 256.565H211.536H209.379L201.045 256.614L171.218 256.712H171.017V256.516C171.017 250.918 171.017 244.879 171.017 238.469C171.017 235.264 171.017 231.968 171.017 228.609V218.455L171.247 218.224L212.32 218.259H212.521V218.448C212.478 229.931 212.442 239.497 212.42 246.208C212.42 249.525 212.377 252.135 212.37 253.941C212.37 254.809 212.37 255.487 212.37 255.963C212.37 256.18 212.37 256.348 212.37 256.474C212.37 256.6 212.205 256.649 212.197 256.642Z" fill="black"/>
</g>
<path d="M108.861 57.5753V68.6319H107.869L100.57 59.6607V68.6319H99.3696V57.5753H100.348L107.668 66.5465V57.5753H108.861Z" fill="#263238"/>
<path d="M120.596 67.6172V68.6319H112.571V57.5753H120.359V58.583H113.772V62.5228H119.647V63.5235H113.772V67.6242L120.596 67.6172Z" fill="#263238"/>
<path d="M138.853 57.5753L135.02 68.6319H133.754L130.432 59.1988L127.089 68.6319H125.838L122.005 57.5753H123.242L126.521 67.0853L129.907 57.5753H131.029L134.373 67.1273L137.738 57.5753H138.853Z" fill="#263238"/>
<path d="M139.96 67.2884L140.428 66.3857C141.463 67.2691 142.798 67.7478 144.174 67.7293C146.331 67.7293 147.23 66.8616 147.23 65.7699C147.23 62.7399 140.234 64.6013 140.234 60.5146C140.234 58.8841 141.528 57.4775 144.419 57.4775C145.666 57.4629 146.891 57.8034 147.942 58.4572L147.539 59.3949C146.61 58.8058 145.527 58.4877 144.419 58.4782C142.341 58.4782 141.42 59.3739 141.42 60.4796C141.42 63.5166 148.409 61.6832 148.409 65.7069C148.409 67.3374 147.079 68.723 144.174 68.723C142.634 68.7769 141.13 68.2647 139.96 67.2884V67.2884Z" fill="#263238"/>
<path d="M159.922 61.3684C159.922 63.7196 158.167 65.1402 155.277 65.1402H152.228V68.6391H151.027V57.5825H155.277C158.167 57.5755 159.922 59.0241 159.922 61.3684ZM158.721 61.3684C158.721 59.5979 157.52 58.5692 155.248 58.5692H152.228V64.0975H155.248C157.52 64.1115 158.721 63.1038 158.721 61.3684Z" fill="#263238"/>
<path d="M169.068 65.6788H162.741L161.382 68.6319H160.13L165.322 57.5753H166.501L171.693 68.6319H170.427L169.068 65.6788ZM168.637 64.7271L165.904 58.7929L163.179 64.7271H168.637Z" fill="#263238"/>
<path d="M182.479 61.3684C182.479 63.7196 180.724 65.1402 177.834 65.1402H174.785V68.6391H173.584V57.5825H177.834C180.724 57.5755 182.479 59.0241 182.479 61.3684ZM181.278 61.3684C181.278 59.5979 180.077 58.5692 177.805 58.5692H174.785V64.0975H177.805C180.077 64.1115 181.278 63.1038 181.278 61.3684Z" fill="#263238"/>
<path d="M193.107 67.6172V68.6319H185.075V57.5753H192.863V58.583H186.276V62.5228H192.151V63.5235H186.276V67.6242L193.107 67.6172Z" fill="#263238"/>
<path d="M203.691 68.6319L201.095 65.077C200.801 65.077 200.506 65.126 200.182 65.126H197.133V68.6249H195.933V57.5684H200.182C203.059 57.5684 204.827 58.9679 204.827 61.3612C204.873 62.1458 204.64 62.9219 204.168 63.5591C203.695 64.1962 203.011 64.6556 202.232 64.8601L205.007 68.6529L203.691 68.6319ZM203.627 61.3682C203.627 59.5977 202.426 58.5691 200.154 58.5691H197.133V64.1183H200.154C202.455 64.1323 203.627 63.1036 203.627 61.3682V61.3682Z" fill="#263238"/>
<path d="M228.737 73.9292H228.341H227.191L222.754 74.0202L206.431 74.2861L152.588 75.0208L98.7297 75.6506L82.4069 75.7976H77.9703H76.8198H76.4243H76.8198H77.9703L82.4069 75.7066L98.7225 75.4407L152.58 74.706L206.431 74.0761L222.747 73.9292H227.191H228.341C228.6 73.9152 228.737 73.9292 228.737 73.9292Z" fill="#263238"/>
<path d="M225.271 49.8639C225.271 49.8639 225.141 49.8639 224.883 49.8639H223.725L219.288 49.9549L202.965 50.2208L149.122 50.9206L95.2639 51.5504L78.9483 51.6973H74.5117H73.354C73.0951 51.6973 72.9585 51.6973 72.9585 51.6973H73.354H74.5045L78.9411 51.6063L95.2639 51.3404L149.115 50.6406L202.965 50.0108L219.288 49.8639H223.725H224.875C225.141 49.8499 225.271 49.8639 225.271 49.8639Z" fill="#263238"/>
<path d="M221.919 93.222C221.919 93.3199 208.811 93.4039 192.646 93.4039C176.481 93.4039 163.366 93.3199 163.366 93.222C163.366 93.124 176.467 93.04 192.646 93.04C208.825 93.04 221.919 93.124 221.919 93.222Z" fill="#263238"/>
<path d="M221.919 102.347C221.919 102.445 208.811 102.529 192.646 102.529C176.481 102.529 163.366 102.445 163.366 102.347C163.366 102.25 176.467 102.166 192.646 102.166C208.825 102.166 221.919 102.243 221.919 102.347Z" fill="#263238"/>
<path d="M221.919 111.508C221.919 111.606 208.811 111.69 192.646 111.69C176.481 111.69 163.366 111.606 163.366 111.508C163.366 111.41 176.467 111.326 192.646 111.326C208.825 111.326 221.919 111.368 221.919 111.508Z" fill="#263238"/>
<path d="M221.919 120.605C221.919 120.71 208.811 120.787 192.646 120.787C176.481 120.787 163.366 120.71 163.366 120.605C163.366 120.5 176.467 120.423 192.646 120.423C208.825 120.423 221.919 120.493 221.919 120.605Z" fill="#263238"/>
<path d="M221.919 129.702C221.919 129.807 208.811 129.884 192.646 129.884C176.481 129.884 163.366 129.807 163.366 129.702C163.366 129.597 176.467 129.52 192.646 129.52C208.825 129.52 221.919 129.618 221.919 129.702Z" fill="#263238"/>
<path d="M145.31 207.168C145.31 207.266 132.202 207.35 116.037 207.35C99.8726 207.35 86.7568 207.266 86.7568 207.168C86.7568 207.07 99.8582 206.986 116.037 206.986C132.216 206.986 145.31 207.07 145.31 207.168Z" fill="#263238"/>
<path d="M145.31 218.224C145.31 218.322 132.202 218.406 116.037 218.406C99.8726 218.406 86.7568 218.322 86.7568 218.224C86.7568 218.126 99.8582 218.042 116.037 218.042C132.216 218.042 145.31 218.119 145.31 218.224Z" fill="#263238"/>
<path d="M145.31 229.274C145.31 229.379 132.202 229.456 116.037 229.456C99.8726 229.456 86.7568 229.379 86.7568 229.274C86.7568 229.169 99.8582 229.092 116.037 229.092C132.216 229.092 145.31 229.176 145.31 229.274Z" fill="#263238"/>
<path d="M145.31 240.33C145.31 240.428 132.202 240.512 116.037 240.512C99.8726 240.512 86.7568 240.428 86.7568 240.33C86.7568 240.232 99.8582 240.148 116.037 240.148C132.216 240.148 145.31 240.225 145.31 240.33Z" fill="#263238"/>
<path d="M121.509 252.219C121.509 252.317 113.729 252.401 104.129 252.401C94.5299 252.401 86.7568 252.317 86.7568 252.219C86.7568 252.121 94.5299 252.037 104.129 252.037C113.729 252.037 121.509 252.114 121.509 252.219Z" fill="#263238"/>
<path d="M194.832 138.841C194.422 138.898 194.009 138.921 193.595 138.911L190.223 138.967C187.347 138.967 183.442 139.023 179.099 139.023C174.756 139.023 170.815 139.023 167.968 138.967L164.595 138.911C164.184 138.921 163.773 138.898 163.366 138.841C163.773 138.784 164.184 138.76 164.595 138.771L167.968 138.715C170.844 138.715 174.756 138.659 179.099 138.659C183.442 138.659 187.375 138.659 190.223 138.715L193.595 138.771C194.009 138.76 194.422 138.784 194.832 138.841V138.841Z" fill="#263238"/>
<path d="M224.746 196.181C224.746 196.279 193.359 196.363 154.652 196.363C115.944 196.363 84.5283 196.244 84.5283 196.181C84.5283 196.118 115.908 195.999 154.623 195.999C193.337 195.999 224.746 196.048 224.746 196.181Z" fill="#263238"/>
<path d="M224.746 184.103C224.746 184.201 193.358 184.285 154.651 184.285C115.944 184.285 84.5566 184.201 84.5566 184.103C84.5566 184.005 115.937 183.921 154.651 183.921C193.366 183.921 224.746 183.998 224.746 184.103Z" fill="#263238"/>
<path d="M224.746 173.907C224.746 174.005 193.358 174.089 154.651 174.089C115.944 174.089 84.5566 174.005 84.5566 173.907C84.5566 173.809 115.937 173.725 154.651 173.725C193.366 173.725 224.746 173.788 224.746 173.907Z" fill="#263238"/>
<path d="M150.049 165.978C150.049 166.076 134.82 166.16 116.038 166.16C97.2556 166.16 82.0186 166.076 82.0186 165.978C82.0186 165.88 97.2484 165.797 116.038 165.797C134.827 165.797 150.049 165.873 150.049 165.978Z" fill="#4DB1C8"/>
<path d="M132.489 167.007C138.4 165.607 142.067 158.498 139.68 153.011C138.407 150.051 135.668 147.49 135.826 144.278C135.934 142.095 137.415 140.184 137.753 138.022C138.393 133.97 135.056 130.478 133.525 126.665C131.936 122.732 132.288 118.351 132.31 114.118C132.331 109.884 131.857 105.342 129.045 102.116L125.558 151.297L132.489 167.007Z" fill="#263238"/>
<path d="M93.0844 91.6547C87.9575 94.7127 84.3909 99.8351 82.2984 105.314C80.2059 110.794 79.379 116.665 78.7534 122.487C77.1003 137.871 76.5453 153.347 77.0924 168.805C96.5072 171.192 116.059 173.585 135.581 172.304C132.194 150.611 130.052 128.918 132.762 107.169" fill="#263238"/>
<path d="M136.581 164.838C136.581 164.838 136.818 164.908 137.3 164.915C137.971 164.91 138.622 164.699 139.163 164.313C140.028 163.72 140.64 162.839 140.881 161.836C141.121 160.487 140.938 159.1 140.356 157.854C139.788 156.455 138.825 155.055 137.976 153.424C137.521 152.586 137.178 151.695 136.955 150.772C136.762 149.783 136.73 148.769 136.862 147.77C137.263 145.668 137.932 143.623 138.853 141.682C139.688 139.646 140.579 137.483 140.615 135.174C140.549 132.925 139.826 130.74 138.53 128.876C137.365 127.001 136.02 125.307 134.935 123.558C133.319 120.96 132.252 118.075 131.798 115.07C131.343 112.066 131.51 109.004 132.288 106.063C132.46 105.425 132.669 104.796 132.914 104.181L133.101 103.698C133.123 103.642 133.149 103.589 133.18 103.537C133.176 103.597 133.161 103.657 133.137 103.712C133.137 103.845 133.043 104.006 132.979 104.202C132.828 104.629 132.648 105.266 132.432 106.098C131.867 108.452 131.678 110.876 131.871 113.285C132.15 116.858 133.301 120.316 135.229 123.369C136.308 125.09 137.653 126.777 138.825 128.68C139.997 130.584 141.032 132.774 140.982 135.188C140.932 137.602 140.025 139.786 139.184 141.822C138.269 143.733 137.602 145.748 137.2 147.819C137.064 148.782 137.089 149.761 137.271 150.716C137.479 151.612 137.805 152.478 138.242 153.292C139.062 154.894 140.033 156.315 140.594 157.77C141.179 159.062 141.35 160.497 141.083 161.885C140.816 162.929 140.16 163.839 139.242 164.439C138.672 164.827 137.987 165.021 137.293 164.992C137.115 164.983 136.939 164.952 136.768 164.901C136.702 164.891 136.639 164.87 136.581 164.838V164.838Z" fill="#263238"/>
<path d="M186.469 167.861C185.491 168.903 184.578 169.106 184.132 167.077C183.147 162.605 180.702 159.512 179.465 159.128C178.229 158.743 177.258 160.31 178.114 161.451C178.922 162.781 179.538 164.212 179.947 165.706C180.324 166.89 180.497 168.126 180.458 169.365C180.422 170.436 180.35 171.388 180.278 172.234C180.278 172.234 179.818 177.133 178.416 179.407L190.791 188.21L195.709 182.808C195.709 182.808 198.909 180.135 197.989 176.111C197.068 172.087 193.379 166.965 193.379 166.965C192.114 166.363 195.45 159.317 196.745 157.021C198.039 154.726 197.464 153.214 195.961 153.466C194.947 153.641 190.819 160.576 189.59 162.878C188.921 164.138 187.648 166.608 186.469 167.861Z" fill="#FFBE9D"/>
<path d="M131.03 238.868C127.435 228.812 128.47 227.349 127.938 223.752L125.587 238.448L136.675 271.883L93.3583 272.128H56.9736L64.7899 229.001L56.6285 219.113L56.4559 223.311L31.7129 226.579C31.7129 226.579 43.0885 193.067 48.6469 178.519C54.2052 163.97 64.7899 159.184 64.7899 159.184C84.9237 152.487 99.9522 152.095 117.361 156.223C124.494 157.943 130.958 161.649 135.962 166.888C140.965 172.126 144.292 178.67 145.534 185.719C145.534 185.915 145.606 186.111 145.634 186.3L152.271 217.307L178.373 176.72L193.826 188.539L178.1 216.384L164.848 240.351C155.442 252.17 135.56 249.658 131.052 238.882" fill="#455A64"/>
<path d="M68.3344 193.081C68.2265 193.081 68.6148 191.128 68.8952 188.721C69.1757 186.314 69.2548 184.347 69.3698 184.347C69.5329 185.817 69.4991 187.302 69.2692 188.763C69.153 190.236 68.8387 191.687 68.3344 193.081V193.081Z" fill="#263238"/>
<path d="M124.976 188.21C124.976 188.21 125.069 188.301 125.22 188.504L125.86 189.393C126.202 189.859 126.514 190.345 126.795 190.849C127.126 191.436 127.557 192.08 127.902 192.85C128.326 193.673 128.703 194.519 129.031 195.383C129.427 196.307 129.75 197.329 130.059 198.392C130.702 200.737 131.107 203.137 131.267 205.558C131.393 207.978 131.299 210.404 130.987 212.808C130.901 213.361 130.822 213.899 130.742 214.424C130.663 214.949 130.534 215.446 130.44 215.936C130.261 216.908 130.002 217.797 129.786 218.616C129.57 219.435 129.312 220.155 129.11 220.792C128.909 221.429 128.7 221.975 128.521 222.409L128.111 223.423C128.071 223.544 128.015 223.659 127.945 223.766C127.964 223.639 127.998 223.515 128.046 223.395C128.132 223.123 128.247 222.78 128.384 222.367C128.521 221.954 128.729 221.38 128.909 220.736C129.089 220.092 129.348 219.372 129.527 218.553C129.707 217.734 129.966 216.845 130.138 215.873C130.225 215.39 130.34 214.893 130.419 214.368C130.498 213.843 130.563 213.319 130.642 212.766C130.933 210.381 131.017 207.977 130.893 205.579C130.734 203.184 130.346 200.809 129.736 198.483C129.412 197.42 129.132 196.384 128.751 195.495C128.439 194.632 128.079 193.787 127.672 192.962C127.341 192.185 126.953 191.562 126.622 190.947C126.291 190.331 126.004 189.869 125.745 189.47L125.163 188.546C125.091 188.439 125.029 188.327 124.976 188.21V188.21Z" fill="#263238"/>
<path d="M151.969 228.189C151.831 226.2 151.815 224.204 151.919 222.213C151.906 220.219 152.014 218.225 152.242 216.244C152.389 218.233 152.405 220.229 152.293 222.22C152.315 224.214 152.207 226.208 151.969 228.189V228.189Z" fill="#263238"/>
<path d="M157.197 227.622C156.282 225.883 155.477 224.09 154.788 222.255C153.984 220.462 153.295 218.623 152.724 216.748C153.645 218.484 154.449 220.277 155.133 222.115C155.935 223.908 156.624 225.747 157.197 227.622V227.622Z" fill="#263238"/>
<path d="M129.355 249.609H129.168L128.629 249.56L127.758 249.476C127.363 249.429 126.963 249.415 126.565 249.434C124.018 249.427 121.484 249.783 119.043 250.491C115.937 251.303 112.363 252.674 108.257 253.843C106.115 254.486 103.906 254.895 101.671 255.061C99.2532 255.248 96.8218 254.946 94.5305 254.172C92.2838 253.315 90.1183 252.268 88.0589 251.044C86.1655 249.917 84.1788 248.945 82.1194 248.14C78.5781 246.89 74.7604 246.574 71.053 247.223C69.631 247.456 68.238 247.834 66.8968 248.35C65.8805 248.73 64.895 249.183 63.9487 249.707C63.1793 250.162 62.5824 250.519 62.2085 250.799L61.7627 251.1C61.662 251.163 61.6117 251.198 61.6045 251.191C62.3093 250.592 63.0673 250.056 63.8696 249.588C64.8136 249.048 65.7993 248.58 66.8177 248.189C68.1676 247.646 69.5729 247.245 71.0099 246.992C74.766 246.306 78.6422 246.603 82.2417 247.853C84.3248 248.655 86.3336 249.628 88.2459 250.764C90.2763 251.976 92.4131 253.011 94.6312 253.857C96.8734 254.617 99.2536 254.915 101.62 254.732C103.83 254.571 106.015 254.175 108.135 253.549C112.219 252.401 115.815 251.058 118.921 250.274C121.381 249.584 123.934 249.261 126.493 249.315C126.893 249.311 127.292 249.339 127.687 249.399L128.564 249.518L129.096 249.602C129.182 249.592 129.269 249.594 129.355 249.609V249.609Z" fill="#F5F5F5"/>
<path d="M127.147 223.123C126.954 223.167 126.756 223.192 126.558 223.2L125.838 223.263C125.558 223.298 125.242 223.389 124.882 223.458C122.875 223.988 120.991 224.886 119.331 226.104C118.252 226.838 117.116 227.713 115.894 228.644C114.601 229.661 113.255 230.612 111.86 231.492C110.318 232.466 108.615 233.177 106.826 233.591C105.865 233.793 104.883 233.89 103.9 233.878C102.892 233.855 101.889 233.745 100.901 233.549C96.8961 232.738 93.4446 230.953 90.3167 229.463C87.5794 228.045 84.6677 226.973 81.6519 226.272C79.6254 225.817 77.523 225.783 75.4823 226.174C74.9298 226.292 74.3867 226.448 73.8573 226.642C73.6753 226.717 73.4878 226.778 73.2964 226.824C73.4653 226.725 73.6435 226.64 73.8285 226.573C74.3504 226.347 74.8918 226.167 75.4464 226.034C77.5087 225.586 79.6471 225.586 81.7094 226.034C84.7455 226.706 87.6796 227.758 90.4389 229.162C93.574 230.638 97.0183 232.402 100.944 233.192C101.911 233.382 102.893 233.489 103.878 233.514C104.832 233.526 105.784 233.437 106.719 233.248C108.484 232.845 110.164 232.149 111.687 231.191C113.075 230.324 114.416 229.39 115.707 228.392C116.936 227.468 118.087 226.607 119.187 225.873C120.885 224.66 122.813 223.787 124.861 223.305C125.227 223.242 125.58 223.172 125.831 223.144H126.55C126.749 223.126 126.948 223.119 127.147 223.123Z" fill="#F5F5F5"/>
<path d="M166.969 234.403C166.902 234.512 166.823 234.613 166.732 234.704C166.494 234.984 166.232 235.244 165.948 235.481C164.889 236.342 163.65 236.968 162.317 237.314C160.34 237.821 158.28 237.942 156.255 237.671C153.811 237.285 151.405 236.695 149.064 235.907C146.733 235.125 144.322 234.586 141.874 234.298C139.877 234.128 137.867 234.367 135.97 234.998C134.694 235.421 133.53 236.114 132.562 237.027C132.305 237.28 132.065 237.549 131.843 237.832C131.769 237.937 131.682 238.034 131.584 238.119C131.633 238.001 131.698 237.89 131.778 237.79C131.979 237.483 132.207 237.195 132.461 236.929C133.415 235.956 134.59 235.213 135.891 234.76C137.815 234.076 139.868 233.807 141.91 233.969C144.381 234.235 146.815 234.768 149.165 235.558C151.488 236.344 153.874 236.94 156.298 237.342C158.283 237.618 160.304 237.523 162.252 237.062C163.557 236.743 164.781 236.166 165.847 235.369C166.602 234.788 166.933 234.368 166.969 234.403Z" fill="#F5F5F5"/>
<path d="M179.343 214.018C179.343 214.018 179.286 214.088 179.149 214.2C178.953 214.366 178.739 214.509 178.509 214.627C177.647 215.055 176.687 215.265 175.719 215.236C174.295 215.186 172.896 214.847 171.613 214.242C170.175 213.599 168.687 212.675 167.054 211.912C165.692 211.213 164.176 210.843 162.636 210.834C161.095 210.824 159.575 211.175 158.203 211.856C157.073 212.443 156.046 213.201 155.161 214.102C155.161 214.102 155.204 214.018 155.305 213.878C155.46 213.677 155.628 213.485 155.808 213.305C156.47 212.634 157.237 212.069 158.081 211.632C159.339 210.973 160.731 210.589 162.158 210.506C163.903 210.437 165.637 210.808 167.191 211.583C168.852 212.36 170.312 213.291 171.728 213.934C172.966 214.538 174.316 214.892 175.698 214.977C176.63 215.03 177.561 214.867 178.416 214.501C179.034 214.228 179.322 213.983 179.343 214.018Z" fill="#F5F5F5"/>
<path d="M187.973 196.062C187.699 196.188 187.418 196.297 187.131 196.391C186.381 196.72 185.659 197.109 184.974 197.553C183.958 198.238 182.869 198.813 181.724 199.267C180.294 199.795 178.773 200.05 177.244 200.016C175.715 199.985 174.207 199.659 172.807 199.057C171.671 198.566 170.623 197.902 169.701 197.091C169.077 196.553 168.522 195.945 168.047 195.278C167.875 195.04 167.76 194.851 167.681 194.718C167.601 194.586 167.573 194.516 167.587 194.509C168.276 195.366 169.044 196.16 169.881 196.881C170.807 197.641 171.844 198.264 172.958 198.728C174.323 199.297 175.788 199.604 177.273 199.631C178.755 199.658 180.229 199.421 181.623 198.931C182.755 198.498 183.84 197.954 184.859 197.308C185.566 196.879 186.315 196.52 187.095 196.237C187.377 196.134 187.673 196.075 187.973 196.062V196.062Z" fill="#F5F5F5"/>
<path d="M150.3 208.595C150.3 208.63 150.005 208.539 149.488 208.546C148.75 208.57 148.027 208.757 147.374 209.092C146.414 209.624 145.51 210.247 144.677 210.953C143.609 211.819 142.367 212.46 141.031 212.836C138.589 213.521 135.978 213.358 133.647 212.374C132.95 212.081 132.293 211.705 131.691 211.254C131.465 211.095 131.26 210.909 131.08 210.701C131.921 211.26 132.814 211.74 133.747 212.136C136.038 213.026 138.568 213.149 140.938 212.486C143.757 211.786 145.461 209.603 147.273 208.861C147.965 208.531 148.732 208.374 149.502 208.406C149.71 208.415 149.915 208.45 150.113 208.511C150.235 208.553 150.307 208.581 150.3 208.595Z" fill="#F5F5F5"/>
<path d="M145.648 190.828C144.808 190.34 143.9 189.973 142.952 189.736C141.924 189.509 140.86 189.487 139.824 189.673C138.554 189.884 137.365 190.42 136.38 191.227C135.452 192.117 134.584 193.067 133.784 194.068C133.091 194.906 132.172 195.541 131.13 195.901C130.426 196.159 129.653 196.176 128.937 195.95C128.746 195.888 128.566 195.796 128.405 195.677C128.297 195.6 128.247 195.551 128.254 195.544C128.261 195.537 128.506 195.684 128.973 195.81C129.66 195.973 130.383 195.92 131.037 195.656C132.016 195.279 132.872 194.653 133.518 193.844C134.313 192.817 135.186 191.849 136.128 190.947C137.153 190.102 138.397 189.548 139.723 189.344C140.804 189.166 141.912 189.213 142.973 189.484C143.686 189.659 144.364 189.948 144.98 190.338C145.229 190.463 145.455 190.629 145.648 190.828Z" fill="#F5F5F5"/>
<path d="M88.5039 208.889C88.5039 208.854 89.1007 209.078 90.2081 209.246C91.7752 209.459 93.3691 209.39 94.9108 209.043C97.1991 208.517 99.3946 207.663 101.426 206.51C103.755 205.278 106.207 203.711 109.012 202.402C111.655 201.192 114.499 200.452 117.41 200.219C119.78 200.021 122.167 200.148 124.5 200.597C126.07 200.909 127.602 201.378 129.074 201.996C129.598 202.199 129.987 202.409 130.253 202.535C130.393 202.592 130.526 202.664 130.648 202.752C130.648 202.752 130.066 202.521 129.023 202.129C127.542 201.576 126.011 201.159 124.45 200.884C122.138 200.475 119.779 200.373 117.439 200.583C114.573 200.832 111.774 201.569 109.17 202.759C106.401 204.026 103.949 205.607 101.591 206.832C99.5262 207.985 97.2931 208.825 94.9683 209.323C93.3927 209.651 91.7669 209.682 90.1793 209.414C89.7512 209.338 89.3303 209.228 88.921 209.085C88.7734 209.038 88.6331 208.972 88.5039 208.889Z" fill="#F5F5F5"/>
<path d="M93.7321 176.09C93.6093 176.191 93.474 176.275 93.3294 176.342C92.9272 176.552 92.5059 176.725 92.071 176.86C90.4526 177.322 88.7441 177.402 87.0879 177.091C85.9449 176.897 84.8264 176.585 83.7515 176.16C82.5213 175.67 81.3209 175.111 80.1561 174.488C77.7041 173.193 75.0723 171.64 71.9876 170.807C70.4923 170.39 68.9578 170.12 67.4071 170.002C66.688 169.918 65.9186 169.939 65.1996 169.918C64.4805 169.897 63.7614 169.918 63.0783 170.03C60.6309 170.254 58.2303 170.824 55.9524 171.724C54.4227 172.344 52.9565 173.103 51.5733 173.991C51.0843 174.306 50.732 174.586 50.4731 174.754C50.3521 174.853 50.2193 174.937 50.0776 175.006C50.1818 174.89 50.3001 174.786 50.43 174.698C50.6673 174.509 51.0124 174.215 51.4942 173.872C52.8563 172.93 54.3169 172.13 55.8517 171.486C58.1432 170.542 60.567 169.939 63.0424 169.694C63.7614 169.61 64.4805 169.603 65.1996 169.568C65.9186 169.533 66.688 169.568 67.4503 169.645C69.0233 169.759 70.58 170.031 72.0954 170.457C75.2377 171.304 77.8983 172.892 80.3287 174.187C81.4709 174.817 82.6498 175.383 83.8593 175.88C84.9102 176.31 86.0043 176.631 87.1239 176.839C88.7459 177.166 90.4234 177.128 92.0279 176.727C92.608 176.547 93.177 176.334 93.7321 176.09V176.09Z" fill="#F5F5F5"/>
<path d="M143.052 177.987C143.052 177.987 142.988 178.064 142.829 178.183C142.609 178.357 142.367 178.505 142.11 178.624C141.114 179.047 140.016 179.193 138.939 179.043C137.349 178.834 135.831 178.264 134.51 177.378C132.985 176.447 131.504 175.188 129.764 174.166C128.133 173.198 126.295 172.609 124.393 172.444C122.84 172.3 121.274 172.416 119.762 172.787C118.375 173.172 117.043 173.727 115.8 174.439C115.8 174.439 115.872 174.362 116.03 174.25C116.259 174.076 116.499 173.918 116.749 173.774C117.665 173.234 118.652 172.817 119.683 172.535C121.224 172.121 122.828 171.977 124.421 172.109C126.378 172.265 128.271 172.862 129.951 173.851C131.727 174.901 133.201 176.167 134.69 177.098C135.965 177.967 137.425 178.546 138.961 178.791C139.998 178.957 141.063 178.854 142.046 178.491C142.707 178.239 143.031 177.987 143.052 177.987Z" fill="#F5F5F5"/>
<path d="M67.9896 194.642C67.6309 194.643 67.2727 194.617 66.9182 194.565L64.0419 194.215L59.7275 193.648C58.1096 193.431 56.3407 193.2 54.4711 193.123C52.7229 193.028 50.9695 193.162 49.2579 193.522C47.8652 193.828 46.5322 194.35 45.3103 195.068C44.1975 195.761 43.2068 196.623 42.3765 197.623C42.4088 197.538 42.4523 197.458 42.5059 197.385C42.6441 197.163 42.8004 196.952 42.9733 196.755C43.5967 196.012 44.3368 195.369 45.1664 194.851C46.3977 194.083 47.7546 193.524 49.1788 193.2C50.9203 192.812 52.709 192.664 54.4927 192.759C56.2608 192.853 58.0226 193.037 59.7706 193.312L64.085 193.956L66.9613 194.425C67.3109 194.462 67.6555 194.534 67.9896 194.642Z" fill="#F5F5F5"/>
<path d="M128.98 124.404C129.285 124.815 129.507 125.278 129.635 125.769C129.996 127.109 130.033 128.513 129.743 129.87C129.462 131.605 128.678 133.544 128.254 135.769C128.025 136.924 128.025 138.112 128.254 139.268C128.569 140.508 128.963 141.728 129.433 142.921C129.916 144.142 130.16 145.44 130.152 146.748C130.071 147.965 129.787 149.161 129.311 150.289C128.463 152.431 127.528 154.292 127.413 156.014C127.209 156.923 127.267 157.87 127.582 158.75C127.897 159.629 128.455 160.406 129.196 160.996C129.075 160.942 128.962 160.874 128.858 160.793C128.548 160.565 128.276 160.291 128.053 159.981C127.279 158.796 126.959 157.384 127.147 155.993C127.229 155.035 127.447 154.093 127.794 153.193C128.139 152.228 128.592 151.227 128.988 150.156C129.44 149.062 129.709 147.905 129.786 146.727C129.786 145.461 129.542 144.205 129.067 143.026C128.592 141.818 128.198 140.581 127.887 139.324C127.643 138.125 127.643 136.891 127.887 135.692C128.34 133.418 129.146 131.493 129.448 129.807C129.75 128.482 129.75 127.108 129.448 125.783C129.325 125.314 129.169 124.853 128.98 124.404V124.404Z" fill="#455A64"/>
<path d="M110.213 162.27C111.472 155.419 112.931 148.232 112.931 148.232C112.931 148.232 122.279 148.323 126.227 137.127C130.009 126.455 132.742 100.738 132.742 100.738C126.761 97.1164 119.785 95.3624 112.75 95.7114C105.715 96.0604 98.9584 98.4957 93.3871 102.69V102.69L84.0824 158.477C83.0038 164.95 87.8647 171.01 94.9978 172.081C102.203 173.2 109.012 168.792 110.213 162.27Z" fill="#FFBE9D"/>
<path d="M125.795 120.01C125.73 120.395 125.512 120.741 125.188 120.972C124.864 121.204 124.46 121.303 124.062 121.248C123.867 121.229 123.677 121.172 123.504 121.081C123.331 120.99 123.179 120.866 123.056 120.717C122.932 120.568 122.841 120.396 122.787 120.212C122.732 120.028 122.716 119.836 122.739 119.646C122.806 119.261 123.025 118.916 123.348 118.685C123.671 118.454 124.075 118.354 124.472 118.407C124.67 118.421 124.863 118.474 125.039 118.563C125.215 118.652 125.37 118.776 125.494 118.927C125.618 119.077 125.709 119.251 125.761 119.438C125.813 119.624 125.824 119.819 125.795 120.01V120.01Z" fill="#263238"/>
<path d="M128.557 118.778C128.334 118.939 127.334 117.91 125.68 117.638C124.027 117.365 122.704 117.952 122.56 117.722C122.495 117.624 122.747 117.309 123.336 117.022C124.129 116.665 125.016 116.558 125.875 116.714C126.725 116.853 127.507 117.255 128.104 117.861C128.557 118.33 128.665 118.708 128.557 118.778Z" fill="#263238"/>
<path d="M109.027 117.421C108.963 117.807 108.745 118.154 108.421 118.386C108.097 118.617 107.692 118.716 107.294 118.659C107.097 118.646 106.904 118.593 106.729 118.504C106.554 118.415 106.399 118.292 106.275 118.142C106.151 117.992 106.06 117.819 106.007 117.634C105.955 117.448 105.943 117.254 105.971 117.064C106.038 116.678 106.256 116.333 106.579 116.101C106.902 115.869 107.305 115.767 107.704 115.818C107.899 115.837 108.089 115.894 108.262 115.985C108.435 116.077 108.587 116.2 108.71 116.35C108.833 116.499 108.925 116.67 108.979 116.854C109.034 117.038 109.05 117.231 109.027 117.421V117.421Z" fill="#263238"/>
<path d="M111.414 116.406C111.191 116.567 110.191 115.538 108.537 115.265C106.884 114.993 105.561 115.58 105.417 115.349C105.345 115.251 105.597 114.937 106.193 114.65C106.983 114.293 107.868 114.185 108.724 114.342C109.577 114.482 110.36 114.884 110.961 115.489C111.414 115.986 111.522 116.364 111.414 116.406Z" fill="#263238"/>
<path d="M115.204 129.233C116.113 129.124 117.033 129.124 117.943 129.233C118.367 129.233 118.777 129.233 118.9 128.981C119.01 128.567 118.987 128.13 118.835 127.728C118.626 126.679 118.396 125.58 118.166 124.432C117.246 119.737 116.663 115.909 116.857 115.874C117.052 115.839 117.95 119.611 118.871 124.306C119.087 125.461 119.288 126.567 119.489 127.616C119.662 128.151 119.636 128.728 119.417 129.247C119.33 129.38 119.213 129.492 119.075 129.575C118.937 129.657 118.781 129.708 118.619 129.723C118.38 129.751 118.139 129.751 117.9 129.723C116.984 129.669 116.078 129.504 115.204 129.233V129.233Z" fill="#263238"/>
<path d="M112.931 148.232C107.344 147.362 102.116 144.998 97.8306 141.402C97.8306 141.402 100.239 149.974 112.277 150.926L112.931 148.232Z" fill="#EB996E"/>
<path d="M113.823 132.949C113.582 132.514 113.231 132.147 112.803 131.881C112.375 131.615 111.885 131.46 111.378 131.43C111.012 131.399 110.644 131.441 110.295 131.553C109.947 131.664 109.625 131.844 109.35 132.081C109.082 132.307 108.892 132.609 108.807 132.945C108.722 133.281 108.746 133.634 108.876 133.956C109.086 134.286 109.393 134.546 109.757 134.705C110.121 134.863 110.525 134.912 110.918 134.845C111.739 134.716 112.524 134.426 113.226 133.991C113.436 133.898 113.624 133.765 113.78 133.6C113.855 133.523 113.905 133.425 113.923 133.321C113.941 133.216 113.926 133.108 113.88 133.012" fill="#EB996E"/>
<path d="M110.199 129.513C110.472 129.513 110.199 131.27 111.457 132.753C112.715 134.237 114.671 134.37 114.642 134.615C114.642 134.727 114.161 134.873 113.362 134.761C112.322 134.594 111.374 134.079 110.68 133.306C110.021 132.557 109.686 131.589 109.746 130.605C109.81 129.87 110.084 129.478 110.199 129.513Z" fill="#263238"/>
<path d="M101.39 94.496C104.554 101.284 114.801 109.541 122.71 112.473C121.991 111.074 117.547 107.134 116.828 105.734C120.021 109.107 124.63 113.691 129.513 114.832C130.075 115.014 130.679 115.033 131.253 114.888C131.572 114.721 131.847 114.486 132.058 114.199C132.268 113.913 132.409 113.584 132.468 113.236C133.412 109.806 133.972 106.287 134.136 102.739C134.306 99.7525 133.295 96.8156 131.31 94.531C128.614 91.5779 124.213 90.1644 119.971 89.2896C116.418 88.5899 112.701 88.086 109.185 88.7438C105.668 89.4016 102.411 91.361 101.354 94.2511" fill="#263238"/>
<path d="M82.5218 120.059C82.4616 117.424 82.5624 114.788 82.8238 112.165C83.6219 106.168 85.5418 84.377 106.215 89.9823L104.015 95.5805C104.015 95.5805 105.604 109.576 94.9903 117.134C94.9903 117.134 95.0335 131.129 87.6918 136.189C87.6918 136.189 82.5649 126.693 82.5218 120.094" fill="#263238"/>
<path d="M95.4362 116.175C94.2152 115.694 92.882 115.549 91.582 115.755C90.2766 115.977 89.1139 116.691 88.3462 117.742C87.6373 118.834 87.3803 120.147 87.6271 121.416C87.88 122.685 88.4258 123.882 89.2235 124.915C89.739 125.688 90.4335 126.333 91.2512 126.798C91.6632 127.021 92.1253 127.142 92.5968 127.151C93.0683 127.159 93.5346 127.055 93.9549 126.847" fill="#FFBE9D"/>
<path d="M93.3799 123.516C93.5165 123.593 92.8334 124.215 91.7332 123.74C91.4427 123.585 91.1864 123.377 90.9791 123.126C90.7718 122.875 90.6175 122.586 90.5252 122.277C90.2938 121.585 90.2034 120.855 90.2591 120.129C90.3024 119.344 90.6312 118.6 91.1867 118.029C91.4183 117.784 91.7046 117.593 92.0237 117.472C92.3428 117.35 92.6862 117.302 93.0275 117.33C94.2212 117.511 94.4657 118.372 94.3075 118.372C94.1493 118.372 93.8041 117.959 92.9916 118.008C92.179 118.057 91.309 118.89 91.2443 120.164C91.1795 121.437 91.4456 122.697 92.0856 123.103C92.7255 123.509 93.3224 123.404 93.3799 123.516Z" fill="#EB996E"/>
<path d="M92.2935 128.862C90.3951 129.562 89.6473 131.927 89.9421 133.893C90.2369 135.86 91.2868 137.637 91.9986 139.492C92.7105 141.346 93.0413 143.571 91.9483 145.251C91.0639 146.615 89.3956 147.406 88.7125 148.869C87.4901 151.486 89.9925 154.201 90.8697 156.944C91.4556 158.796 91.2721 160.798 90.3584 162.52C89.4448 164.242 87.8739 165.546 85.983 166.154C84.0921 166.761 82.0319 166.622 80.2446 165.768C78.4574 164.914 77.0856 163.411 76.4237 161.584C74.4031 155.986 79.5876 149.897 78.1279 144.145" fill="#263238"/>
<path d="M90.6038 92.3545C85.1317 96.6162 78.7536 106.714 78.2934 113.516C77.9914 117.861 78.8327 122.487 76.8121 126.371C75.6688 128.568 73.7273 130.255 72.0879 132.137C70.4484 134.019 69.0319 136.336 69.2835 138.792C69.6502 142.256 73.1809 144.74 73.7561 148.176C74.1013 150.226 73.3319 152.277 72.8573 154.306C72.3827 156.335 72.2748 158.68 73.6698 160.254C75.9133 162.773 82.2267 168.484 83.9309 165.587C85.6351 162.689 83.6433 151.983 83.3844 148.652C82.0278 131.067 83.6555 113.385 88.2021 96.3152" fill="#263238"/>
<path d="M71.9804 155.734C72.2445 155.728 72.5072 155.696 72.7641 155.636C73.0694 155.545 73.3547 155.401 73.6054 155.209C73.9409 154.938 74.2172 154.605 74.418 154.229C74.6775 153.764 74.8343 153.252 74.8782 152.724C74.9211 152.097 74.7947 151.47 74.5115 150.905C73.7501 149.54 72.6439 148.386 71.2972 147.553C70.5782 147.042 69.8016 146.524 69.0466 145.909C68.235 145.283 67.5499 144.517 67.026 143.648C66.7658 143.177 66.5746 142.673 66.4579 142.151C66.3525 141.609 66.3186 141.056 66.3573 140.506C66.4734 139.365 66.8179 138.258 67.3711 137.245C68.4497 135.146 70.3337 133.46 72.0882 131.647C72.9969 130.748 73.8088 129.761 74.5115 128.701C75.1959 127.597 75.6822 126.388 75.9496 125.125C76.5105 122.55 76.3451 119.94 76.2588 117.428C76.2156 116.182 76.1725 114.943 76.2084 113.733C76.2084 113.131 76.2732 112.529 76.3523 111.941C76.3882 111.647 76.4098 111.353 76.4529 111.06L76.6255 110.206C77.4744 106.167 79.4297 102.426 82.2846 99.3802C83.3762 98.2247 84.5803 97.1748 85.8799 96.2452C86.4767 95.8603 87.0232 95.4894 87.5481 95.1885C88.073 94.8876 88.562 94.6217 88.9862 94.4188L90.2015 93.8799C90.5538 93.74 90.8702 93.642 91.1147 93.558L91.6827 93.3691C91.745 93.3432 91.8102 93.3244 91.8769 93.3131C91.8769 93.3131 91.8194 93.3131 91.6971 93.4041L91.1434 93.621C90.8989 93.726 90.5897 93.8309 90.2446 93.9779L89.0509 94.5447C88.6051 94.7547 88.1377 95.0486 87.6128 95.3355C87.0879 95.6224 86.563 96.0353 85.9805 96.4061C84.7019 97.345 83.5174 98.3993 82.4427 99.5552C79.6547 102.583 77.7504 106.283 76.9275 110.269C76.87 110.549 76.8197 110.829 76.7621 111.116C76.7046 111.402 76.6974 111.689 76.6687 111.976C76.5896 112.557 76.5536 113.145 76.532 113.747C76.532 114.943 76.532 116.168 76.5896 117.414C76.683 119.905 76.8556 122.536 76.2804 125.181C76.0002 126.484 75.4944 127.731 74.7847 128.869C74.0673 129.949 73.2385 130.955 72.3111 131.871C70.535 133.683 68.7158 135.321 67.6372 137.364C67.1022 138.335 66.7652 139.397 66.6449 140.492C66.6046 141.014 66.6336 141.538 66.7312 142.053C66.8358 142.542 67.0126 143.013 67.2561 143.452C67.7531 144.295 68.4094 145.038 69.1904 145.643C69.9094 146.252 70.6932 146.776 71.4123 147.294C72.7819 148.173 73.8982 149.377 74.6553 150.793C74.9476 151.39 75.0717 152.052 75.0148 152.71C74.9576 153.259 74.7837 153.791 74.5043 154.271C74.2855 154.656 73.9897 154.993 73.6342 155.265C73.3676 155.458 73.0647 155.598 72.7426 155.678C72.5477 155.726 72.3464 155.745 72.1457 155.734H71.9804Z" fill="#263238"/>
<path d="M80.2862 165.16C80.207 165.149 80.1296 165.128 80.0561 165.097C79.8431 164.999 79.6523 164.861 79.4952 164.691C79.1993 164.356 78.9848 163.961 78.8678 163.534C78.7507 163.108 78.7342 162.661 78.8193 162.228C78.9559 161.059 79.8763 159.925 80.617 158.533C81.0044 157.783 81.211 156.958 81.221 156.119C81.2109 155.177 81.0232 154.244 80.6673 153.368C80.284 152.392 79.8022 151.454 79.2292 150.569C78.6324 149.653 77.9205 148.743 77.2446 147.77C76.5184 146.759 75.9015 145.678 75.4038 144.544C74.8566 143.326 74.6675 141.984 74.8573 140.667C75.1313 139.293 75.7937 138.021 76.77 136.994C77.7048 135.916 78.8049 134.978 79.8332 133.942C80.8873 132.924 81.7597 131.741 82.4146 130.444C83.0516 129.08 83.4874 127.636 83.709 126.154C84.1979 123.145 84.0685 120.143 84.0973 117.253C84.0973 115.804 84.1476 114.377 84.2698 112.991L84.3777 111.948L84.5503 110.934C84.6607 110.264 84.8095 109.6 84.9961 108.946C86.2931 104.377 88.8698 100.249 92.4384 97.0221C93.8168 95.7951 95.3175 94.7051 96.9182 93.7681C97.6373 93.3902 98.306 93.0123 98.946 92.7324C99.5859 92.4525 100.176 92.1866 100.722 92.0326L102.16 91.5498C102.584 91.4238 102.958 91.3538 103.253 91.2769L103.929 91.1229C104.005 91.1042 104.082 91.0901 104.159 91.0809C104.088 91.1149 104.013 91.1407 103.936 91.1579L103.268 91.3469C102.98 91.4308 102.613 91.5218 102.196 91.6478L100.758 92.1656C100.219 92.3545 99.6506 92.6414 99.0107 92.9144C98.3707 93.1873 97.7235 93.6141 97.0117 93.971C95.4378 94.9167 93.9638 96.0114 92.611 97.239C89.0795 100.464 86.5421 104.584 85.2837 109.135C85.0951 109.776 84.951 110.428 84.8523 111.088L84.6797 112.088L84.5718 113.117C84.4568 114.517 84.4136 115.916 84.4136 117.316C84.5164 120.307 84.389 123.301 84.0325 126.273C83.8012 127.789 83.3535 129.265 82.7023 130.661C82.0317 132.002 81.1321 133.223 80.0417 134.271C79.0063 135.314 77.8845 136.252 76.9929 137.294C76.0552 138.27 75.4175 139.482 75.1521 140.793C74.9638 142.052 75.1406 143.336 75.6626 144.502C76.1428 145.618 76.7404 146.683 77.4459 147.679C78.1146 148.652 78.8265 149.569 79.4233 150.478C80.0099 151.362 80.506 152.3 80.9046 153.277C81.2578 154.188 81.4404 155.152 81.4439 156.126C81.4269 156.996 81.2029 157.851 80.7896 158.624C80.013 160.023 79.0998 161.136 78.9488 162.249C78.8595 162.665 78.866 163.096 78.968 163.51C79.0699 163.923 79.2647 164.31 79.5384 164.642C79.7466 164.865 80.0017 165.041 80.2862 165.16V165.16Z" fill="#455A64"/>
<path d="M130.965 114.663C130.875 114.58 130.795 114.486 130.728 114.384L130.109 113.523C129.549 112.732 128.794 111.654 127.88 110.346L120.632 99.7861C119.329 97.8442 117.775 96.0732 116.009 94.5168C114.552 93.2688 112.835 92.3426 110.975 91.8016C109.722 91.4375 108.407 91.3186 107.107 91.4517C106.186 91.5637 105.668 91.7316 105.668 91.6897C105.778 91.6331 105.894 91.5886 106.014 91.5567C106.358 91.446 106.712 91.364 107.071 91.3118C108.394 91.1205 109.744 91.2016 111.033 91.5497C112.945 92.0684 114.716 92.9933 116.217 94.2579C118.022 95.8199 119.606 97.6083 120.927 99.5762C123.803 103.705 126.27 107.477 128.118 110.199C128.988 111.535 129.714 112.634 130.275 113.446L130.836 114.342C130.894 114.442 130.938 114.551 130.965 114.663Z" fill="#455A64"/>
<path d="M100.433 157.553L109.716 196.412L117.87 195.012L111.341 155.734L100.433 157.553Z" fill="#263238"/>
<path d="M108.745 152.557C111.413 151.703 112.19 147.147 112.19 144.418C112.19 140.723 108.839 138.883 106.056 138.526C104.656 138.376 103.243 138.641 102 139.285C100.757 139.929 99.7422 140.923 99.0884 142.137C98.4722 143.37 98.2288 144.749 98.3866 146.112C98.5445 147.475 99.0971 148.766 99.9801 149.835C100.892 150.878 102.072 151.668 103.399 152.123C104.727 152.578 106.155 152.682 107.537 152.424" fill="#263238"/>
<path d="M94.3647 150.765L96.4932 166.846L121.438 161.675L117.066 147.329L94.3647 150.765Z" fill="#4DB1C8"/>
<g opacity="0.4">
<path opacity="0.4" d="M118.28 151.318L100.433 153.634L102.31 160.24L120.035 157.091L118.28 151.318Z" fill="#FAFAFA"/>
</g>
<path d="M112.19 144.803C111.53 144.987 110.854 145.108 110.17 145.167C108.919 145.335 107.179 145.517 105.252 145.636C103.324 145.755 101.577 145.797 100.312 145.783C99.6265 145.815 98.9399 145.78 98.2622 145.678C98.9368 145.567 99.6203 145.515 100.304 145.524C101.57 145.468 103.31 145.391 105.23 145.272C107.15 145.153 108.883 145.013 110.141 144.908C110.82 144.812 111.506 144.777 112.19 144.803V144.803Z" fill="#FAFAFA"/>
<path d="M102.36 165.629L112.629 163.501V164.481L102.54 166.37L102.36 165.629Z" fill="#263238"/>
<path d="M85.6787 187.21L90.1081 184.943C90.1081 184.943 97.4642 169.722 99.4991 168.925C101.175 168.267 110.681 165.496 113.988 164.53C114.292 164.443 114.618 164.475 114.897 164.621C115.175 164.766 115.384 165.013 115.477 165.307V165.307C115.572 165.592 115.551 165.902 115.417 166.172C115.283 166.442 115.046 166.651 114.758 166.755L103.698 170.562L103.929 171.458L115.153 168.19C116.325 167.931 117.62 169.47 114.067 170.891L104.791 174.047L104.971 174.614L114.894 173.039C115.39 172.955 116.735 172.815 116.893 173.284C116.893 173.284 117.842 174.271 115.239 175.419C114.341 175.81 106.007 178.036 106.007 178.036L106.553 178.666L115.671 177.875C115.991 177.849 116.308 177.942 116.561 178.134C116.814 178.325 116.984 178.603 117.037 178.91V178.91C117.087 179.223 117.011 179.542 116.827 179.802C116.642 180.062 116.363 180.244 116.045 180.31L106.654 182.248L101.584 189.519C100.505 191.071 98.9151 192.219 97.0759 192.773L87.9366 195.537L85.6787 187.21Z" fill="#FFBE9D"/>
<path d="M114.009 164.53C114.009 164.53 113.901 164.593 113.693 164.67L112.744 164.992L109.242 166.09L104.057 167.707L100.987 168.644L100.189 168.889L99.7789 169.015C99.6502 169.044 99.5266 169.091 99.4121 169.155C98.964 169.479 98.5751 169.874 98.2616 170.324C96.9985 172.093 95.8574 173.943 94.8461 175.859C93.8825 177.616 93.0484 179.218 92.3581 180.569L90.733 183.767C90.5532 184.117 90.4094 184.404 90.2872 184.634C90.1649 184.865 90.1218 184.935 90.1074 184.928C90.1281 184.817 90.1644 184.708 90.2153 184.606L90.6036 183.711C90.9487 182.934 91.4593 181.821 92.1208 180.457C92.7823 179.092 93.5589 177.476 94.5369 175.705C95.5438 173.765 96.6874 171.894 97.9596 170.107C98.3015 169.616 98.73 169.187 99.2252 168.84C99.3618 168.768 99.5066 168.712 99.6566 168.672L100.066 168.547L100.872 168.309L103.949 167.385L109.163 165.845L112.686 164.838L113.642 164.586C113.762 164.555 113.885 164.536 114.009 164.53V164.53Z" fill="#EB996E"/>
<path d="M35.818 243.696C37.469 245.223 39.4263 246.401 41.5672 247.158C43.7081 247.914 45.9864 248.232 48.2594 248.091C50.5324 247.95 52.751 247.354 54.7763 246.341C56.8015 245.327 58.5898 243.916 60.0289 242.198L98.8584 195.593L85.0524 178.546L36.3501 219.973C34.6266 221.445 33.2364 223.249 32.2676 225.271C31.2988 227.294 30.7727 229.49 30.7227 231.721C30.6727 233.952 31.0998 236.168 31.9769 238.23C32.8541 240.291 34.1621 242.153 35.818 243.696V243.696Z" fill="#455A64"/>
<path d="M62.3159 240.267C62.3159 240.267 62.3662 240.183 62.4812 240.029C62.5963 239.875 62.7761 239.651 62.999 239.371L65.0339 236.831L72.6632 227.426L98.7221 195.481V195.698L89.1514 183.9L84.9089 178.659H85.1749C70.9878 190.807 58.6271 201.912 49.6028 209.757C45.1014 213.69 41.463 216.839 38.9319 218.987L36.0556 221.443L35.2934 222.073L35.0273 222.283C35.0273 222.283 35.1064 222.199 35.2718 222.052L35.9909 221.394L38.8671 218.882L49.4662 209.575C58.4401 201.681 70.7721 190.548 84.9592 178.386L85.1102 178.26L85.2325 178.414L89.475 183.648L99.0098 195.481L99.096 195.593L99.0098 195.705L72.8502 227.58L65.113 236.922L63.0349 239.427L62.4884 240.064L62.3159 240.267Z" fill="#263238"/>
<path d="M67.2702 233.78C67.0303 234.223 66.697 234.612 66.2923 234.921C65.1742 235.762 63.8013 236.22 62.3878 236.222C61.4169 236.257 60.4465 236.143 59.5115 235.887C58.453 235.577 57.4292 235.164 56.4555 234.655C54.3918 233.626 52.2921 232.178 49.7754 231.401C47.4037 230.667 44.8995 230.429 42.4265 230.701C40.4101 230.943 38.4477 231.503 36.6165 232.36C35.3834 232.946 34.223 233.666 33.1578 234.508C32.4387 235.124 32.0289 235.488 32.0073 235.46C31.9857 235.432 32.0864 235.355 32.259 235.173C32.4315 234.991 32.6976 234.711 33.0643 234.403C34.1068 233.507 35.2617 232.743 36.5014 232.129C38.3453 231.222 40.3344 230.628 42.3834 230.372C44.9051 230.058 47.4669 230.283 49.8904 231.03C52.4791 231.828 54.5859 233.297 56.6209 234.326C57.5665 234.838 58.5641 235.253 59.5978 235.565C60.4975 235.828 61.434 235.954 62.3734 235.936C63.7426 235.958 65.0832 235.554 66.1988 234.781C66.583 234.476 66.9412 234.141 67.2702 233.78V233.78Z" fill="#F5F5F5"/>
<path d="M86.462 210.135C86.462 210.135 86.3685 210.226 86.1744 210.359C85.8796 210.555 85.5695 210.728 85.2468 210.876C84.0938 211.458 82.8366 211.819 81.5436 211.94C79.6134 212.117 77.6708 211.766 75.9349 210.925C73.9647 210.016 72.1095 208.553 69.9811 207.364C67.9623 206.268 65.7542 205.542 63.4663 205.222C61.5969 204.959 59.6982 204.959 57.8289 205.222C56.5677 205.397 55.3273 205.692 54.1257 206.104C53.2772 206.398 52.8098 206.594 52.8026 206.566C52.7954 206.538 52.9033 206.496 53.119 206.391C53.4299 206.234 53.7491 206.094 54.0753 205.971C55.2731 205.504 56.5197 205.166 57.7929 204.963C59.696 204.66 61.6351 204.636 63.5454 204.893C65.8799 205.198 68.1341 205.929 70.1896 207.049C72.3468 208.259 74.1948 209.722 76.1075 210.624C77.7881 211.456 79.6711 211.821 81.5508 211.681C82.8182 211.586 84.0578 211.271 85.2108 210.75C86.0234 210.394 86.4405 210.107 86.462 210.135Z" fill="#F5F5F5"/>
<path d="M194.868 169.82C194.829 170.1 194.756 170.375 194.653 170.639C194.494 171.157 194.228 171.906 193.869 172.808C193.509 173.711 193.042 174.782 192.467 175.936C192.199 176.585 191.798 177.173 191.287 177.665C191.134 177.805 190.953 177.912 190.755 177.98C190.557 178.049 190.346 178.076 190.137 178.061C189.927 178.046 189.723 177.988 189.537 177.893C189.352 177.797 189.189 177.664 189.058 177.504C188.79 177.197 188.614 176.824 188.548 176.426C188.501 176.051 188.528 175.671 188.627 175.306C188.824 174.652 189.084 174.017 189.403 173.41L190.842 170.317L191.863 168.218C191.976 167.958 192.118 167.712 192.287 167.483C192.221 167.758 192.124 168.026 191.999 168.281C191.748 168.847 191.446 169.554 191.079 170.38C190.712 171.206 190.202 172.346 189.641 173.501C189.352 174.095 189.112 174.711 188.922 175.341C188.843 175.664 188.823 175.999 188.864 176.328C188.915 176.659 189.06 176.969 189.281 177.224C189.38 177.349 189.505 177.452 189.648 177.526C189.791 177.6 189.948 177.645 190.11 177.656C190.271 177.667 190.433 177.645 190.585 177.591C190.738 177.537 190.876 177.453 190.993 177.343C191.467 176.888 191.843 176.345 192.1 175.747C192.69 174.607 193.179 173.557 193.538 172.668C193.898 171.78 194.257 171.052 194.43 170.569C194.546 170.304 194.694 170.053 194.868 169.82V169.82Z" fill="#EB996E"/>
<path d="M192.114 179.68C192.114 179.736 191.625 179.561 190.791 179.526C189.677 179.48 188.577 179.779 187.649 180.38L187.347 180.583V180.226C187.386 179.571 187.386 178.915 187.347 178.26C187.234 176.714 186.895 175.192 186.34 173.739C185.916 172.619 185.542 171.969 185.621 171.941C186.046 172.45 186.382 173.025 186.613 173.641C187.256 175.098 187.641 176.65 187.749 178.232C187.796 178.903 187.796 179.576 187.749 180.247L187.469 180.093C188.465 179.464 189.653 179.187 190.834 179.309C191.285 179.332 191.724 179.459 192.114 179.68V179.68Z" fill="#EB996E"/>
<path d="M197.327 173.704C197.291 173.931 197.218 174.15 197.112 174.355C196.953 174.761 196.709 175.348 196.393 176.069L195.882 177.252C195.694 177.722 195.453 178.17 195.163 178.588C194.994 178.832 194.775 179.04 194.52 179.199C194.266 179.358 193.98 179.464 193.682 179.512C193.346 179.565 193.002 179.501 192.711 179.33C192.42 179.147 192.198 178.877 192.078 178.56C191.887 177.971 191.86 177.344 191.999 176.741C192.103 176.2 192.254 175.668 192.452 175.152C192.787 174.289 193.178 173.448 193.624 172.633L194.545 170.989C194.634 170.776 194.753 170.576 194.897 170.394C194.644 171.207 194.312 171.994 193.905 172.745C193.574 173.445 193.186 174.299 192.819 175.264C192.639 175.766 192.5 176.281 192.402 176.804C192.281 177.344 192.306 177.906 192.474 178.434C192.557 178.67 192.723 178.87 192.943 178.998C193.162 179.126 193.422 179.174 193.674 179.134C193.927 179.096 194.169 179.008 194.385 178.876C194.602 178.743 194.788 178.569 194.933 178.364C195.215 177.972 195.456 177.552 195.652 177.112L196.198 175.943C196.544 175.243 196.824 174.663 197.025 174.271C197.099 174.069 197.201 173.879 197.327 173.704Z" fill="#EB996E"/>
</svg>
